<svg width="940" height="1024" viewBox="0 0 940 1024" fill="none" xmlns="http://www.w3.org/2000/svg">
<ellipse cx="278.571" cy="250.954" rx="278.571" ry="250.954" transform="matrix(-0.811803 0.583932 0.583932 0.811803 829.606 36.5391)" fill="#D91517"/>
<ellipse cx="425.461" cy="746.058" rx="425.461" ry="746.058" transform="matrix(-0.811803 0.583932 0.583932 0.811803 946.776 -29.4994)" fill="#D91517"/>
<path d="M991.348 1147.77C1317.23 1399.91 1557.01 1508.25 1700.8 1322.41C1844.59 1136.56 1837.94 726.902 1512.05 474.764C1186.17 222.626 805.425 168.885 661.636 354.73C517.847 540.575 665.464 895.63 991.348 1147.77Z" fill="#D91517"/>
<path d="M1413 705.559C1717.77 982.847 1850.1 1164.69 1691.97 1338.5C1533.83 1512.3 1145.13 1612.25 840.356 1334.96C535.586 1057.67 416.712 691.987 574.844 518.183C732.976 344.379 1108.23 428.27 1413 705.559Z" fill="#D91517"/>
<circle cx="88.4543" cy="88.4543" r="88.4543" transform="matrix(-0.811803 0.583932 0.583932 0.811803 886.917 61.382)" fill="#D91517"/>
<circle cx="88.4543" cy="88.4543" r="88.4543" transform="matrix(-0.811803 0.583932 0.583932 0.811803 539.229 304.572)" fill="#D91517"/>
<path d="M599.813 154.077L635.281 220.893L496.074 349.619L599.813 154.077Z" fill="#D91517"/>
<path d="M832.609 214.458C805.169 243.389 744.511 328.378 685.108 332.044C691.272 359.78 557.004 412.701 539.443 413.844C473.288 418.149 509.824 570.719 613.594 606.372C717.364 642.024 967.952 480.598 966.905 366.021C965.859 251.443 860.049 185.527 832.609 214.458Z" fill="url(#paint0_radial_355_284)"/>
<path d="M824.238 241.16C838.481 219.425 845.256 235.232 845.92 239.35C846.584 243.468 844.694 263.21 839.062 264.963C833.43 266.716 826.385 269.435 821.315 275.431C747.546 350.537 697.83 384.281 594.355 429.493C576.193 432.222 570.977 441.714 569.037 445.406C567.098 449.099 551.052 449.152 539.973 443.334C528.895 437.517 531.771 428.086 544.463 424.02C675.926 374.711 736.53 335.565 824.238 241.16Z" fill="url(#paint1_linear_355_284)"/>
<path d="M700.28 263.685C707.48 276.889 699.538 300.359 681.843 327.499C653.563 329.538 634.368 331.777 622.626 321.84C610.883 311.904 613.958 294.482 652.194 279.892C671.625 256.536 693.081 250.482 700.28 263.685Z" fill="#4F070B"/>
<g filter="url(#filter0_d_355_284)">
<path d="M311.17 796.208C478.132 763.568 512.65 733.213 627.357 679.034C742.064 624.856 848.977 1087.97 803.638 1095.45C717.5 1109.68 680.095 1142.12 521.279 1157.19C258.9 1182.09 50.8139 847.107 311.17 796.208Z" fill="#D91517"/>
</g>
<path d="M1506.37 1698.27C1243.35 1553.78 1190.9 1552.37 1030.86 1451.66C870.827 1350.96 1253.3 1086.54 1438.25 1220.72C1623.2 1354.91 1951.54 1580.92 1821.33 1704.01C1655.54 1860.75 1618.64 1759.94 1506.37 1698.27Z" fill="#D91517"/>
<defs>
<filter id="filter0_d_355_284" x="184.333" y="674.627" width="629.967" height="504.285" filterUnits="userSpaceOnUse" color-interpolation-filters="sRGB">
<feFlood flood-opacity="0" result="BackgroundImageFix"/>
<feColorMatrix in="SourceAlpha" type="matrix" values="0 0 0 0 0 0 0 0 0 0 0 0 0 0 0 0 0 0 127 0" result="hardAlpha"/>
<feOffset dx="-7.21" dy="20.4"/>
<feComposite in2="hardAlpha" operator="out"/>
<feColorMatrix type="matrix" values="0 0 0 0 0.639216 0 0 0 0 0.0627451 0 0 0 0 0.0705882 0 0 0 1 0"/>
<feBlend mode="normal" in2="BackgroundImageFix" result="effect1_dropShadow_355_284"/>
<feBlend mode="normal" in="SourceGraphic" in2="effect1_dropShadow_355_284" result="shape"/>
</filter>
<radialGradient id="paint0_radial_355_284" cx="0" cy="0" r="1" gradientUnits="userSpaceOnUse" gradientTransform="translate(731.302 397.411) rotate(54.2724) scale(259.285 451.968)">
<stop stop-color="#D01C1E"/>
<stop offset="0.715495" stop-color="#911118"/>
</radialGradient>
<linearGradient id="paint1_linear_355_284" x1="923.168" y1="188.17" x2="467.122" y2="509.311" gradientUnits="userSpaceOnUse">
<stop offset="0.052154" stop-color="#9E9E9C"/>
<stop offset="0.265591" stop-color="#F3F3F3"/>
<stop offset="0.488471" stop-color="#FBFBFB"/>
<stop offset="0.66837" stop-color="#FBFBFB"/>
<stop offset="0.904057" stop-color="#8D8C8B"/>
</linearGradient>
</defs>
</svg>
