<svg width="197" height="207" viewBox="0 0 197 207" fill="none" xmlns="http://www.w3.org/2000/svg">
<g filter="url(#filter0_d_313_839)">
<path d="M113.22 7.3754C122.293 2.58866 129.333 0.659248 141.004 0.202066L143.833 0C141.283 3.16331 140.27 4.88219 138.983 7.88056C142.518 8.77966 144.127 9.50634 146.46 11.1136C164.646 -3.43512 178.992 16.2663 168.485 33.1388C173.231 47.65 171.929 54.4824 165.555 65.8734C183.343 83.2682 186.542 100.274 180.71 142.962C198.189 154.58 196.572 168.624 176.77 170.341C171.97 176.075 166.524 177.302 151.511 175.595C149.638 205.198 108.922 214.291 93.0134 185.496L59.3695 180.344C51.3524 186.033 45.7531 187.247 33.6061 185.496C8.09183 177.476 -0.294577 128.657 9.30355 121.543C18.9017 114.428 19.3864 120.082 32.7979 121.543L33.6061 115.278C30.5844 93.7012 40.6373 80.6419 78.3637 55.7701C72.2149 41.3453 74.7844 33.1673 90.3866 18.59C89.5783 5.35474 103.87 -0.885702 113.22 7.3754Z" fill="#D91517"/>
</g>
<rect x="102.777" y="40.2111" width="3.43512" height="35.1594" transform="rotate(13.5126 102.777 40.2111)" fill="#A31113"/>
<rect x="102.914" y="40.4297" width="1.08754" height="34.3946" transform="rotate(13.5126 102.914 40.4297)" fill="url(#paint0_linear_313_839)"/>
<path d="M71.4251 74.5623L114.162 83.8574L84.2562 197.115C70.8156 198.887 63.9456 197.446 52.936 190.952L71.4251 74.5623Z" fill="#F5F1F0"/>
<path d="M102.923 120.81C100.823 131.052 90.8177 137.651 80.5765 135.55C70.3354 133.449 63.7362 123.444 65.8369 113.203C67.9377 102.962 77.9427 96.3628 88.1839 98.4635C98.425 100.564 105.024 110.569 102.923 120.81ZM68.9975 113.851C67.2548 122.347 72.7292 130.647 81.2248 132.389C89.7205 134.132 98.0202 128.658 99.7629 120.162C101.506 111.667 96.0312 103.367 87.5356 101.624C79.0399 99.8814 70.7402 105.356 68.9975 113.851Z" fill="url(#paint1_linear_313_839)"/>
<path d="M94.3595 125.577C93.6554 129.01 90.3018 131.222 86.8691 130.517C83.4364 129.813 81.2245 126.46 81.9286 123.027C82.6328 119.594 85.9863 117.382 89.419 118.087C92.8517 118.791 95.0636 122.144 94.3595 125.577ZM85.2686 123.712C84.9429 125.3 85.9662 126.852 87.5542 127.177C89.1423 127.503 90.6937 126.48 91.0195 124.892C91.3452 123.304 90.3219 121.752 88.7339 121.427C87.1458 121.101 85.5944 122.124 85.2686 123.712Z" fill="url(#paint2_linear_313_839)"/>
<path d="M84.3693 114.617C84.5639 113.669 85.4903 113.058 86.4385 113.253L93.9932 114.802C94.9414 114.997 95.5525 115.923 95.3579 116.871C95.1634 117.82 94.237 118.431 93.2888 118.236L85.7341 116.687C84.7859 116.492 84.1748 115.566 84.3693 114.617Z" fill="url(#paint3_linear_313_839)"/>
<path d="M91.1929 109.689L86.7615 112.612C85.9535 113.145 84.8664 112.922 84.3334 112.114C83.8004 111.306 84.0234 110.219 84.8315 109.686L90.6612 105.841C90.7531 105.78 90.8485 105.729 90.9463 105.688C91.7232 105.318 92.6737 105.568 93.161 106.307L97.0062 112.136C97.5392 112.944 97.3162 114.032 96.5082 114.564C95.7001 115.097 94.613 114.874 94.08 114.066L91.1929 109.689Z" fill="url(#paint4_linear_313_839)"/>
<path fill-rule="evenodd" clip-rule="evenodd" d="M80.1169 121.634C81.869 120.791 83.2212 119.168 83.6421 117.116C84.3579 113.627 82.1093 110.218 78.6197 109.502C75.1301 108.786 71.721 111.035 71.0052 114.524C70.2894 118.014 72.538 121.423 76.0276 122.139C76.0505 122.143 76.0734 122.148 76.0963 122.152L75.6032 124.556L80.1169 121.634ZM76.724 118.743C75.1097 118.412 74.0694 116.835 74.4005 115.221C74.7317 113.606 76.3088 112.566 77.9232 112.897C79.5376 113.228 80.5778 114.805 80.2467 116.42C79.9156 118.034 78.3384 119.074 76.724 118.743Z" fill="url(#paint5_linear_313_839)"/>
<path d="M71.7396 75.4763L112.861 84.3703L83.8439 194.972C82.3028 195.499 82.2018 196.711 75.1295 196.004C106.854 98.6081 112.003 88.459 71.7396 75.4763Z" fill="url(#paint6_linear_313_839)"/>
<g filter="url(#filter1_d_313_839)">
<path d="M75.0622 66.3786C90.7241 69.1042 99.4723 71.1619 114.97 75.4712C118.187 79.3301 118.76 81.5852 118.158 85.7406C97.4699 81.6407 86.5455 79.1544 68.3996 74.3473C69.0473 70.1647 70.4537 68.3942 75.0622 66.3786Z" fill="#A31113"/>
</g>
<path d="M76.624 67.9814C90.7327 71.0245 98.6938 72.8593 112.897 76.2771C116.291 77.7342 117.131 78.3891 117.23 79.3468C98.5184 75.2011 88.5894 72.931 71.9951 68.9893C71.9325 68.0317 72.8964 67.7967 76.624 67.9814Z" fill="url(#paint7_linear_313_839)"/>
<path d="M105.891 19.8024C104.476 19.6003 103.787 22.9034 106.194 27.0765C108.917 26.9859 112.357 26.6726 113.771 25.46C115.186 24.2474 115.388 20.5094 112.559 20.3073C109.73 20.1052 109.225 20.8131 108.315 20.5097C107.406 20.2063 107.305 20.0045 105.891 19.8024Z" fill="#A31113"/>
<path d="M116.194 32.6333C115.992 30.5117 111.548 40.2013 116.901 45.9696C115.56 40.271 116.396 34.7549 116.194 32.6333Z" fill="#A31113"/>
<path d="M96.3926 39.6045C102.679 42.1053 115.387 41.9283 115.387 39.2003C107.961 40.4525 102.577 40.3329 96.3926 39.6045Z" fill="#A31113"/>
<g filter="url(#filter2_d_313_839)">
<path d="M87.6746 123.168C84.5012 131.632 69.9794 139.825 57.5968 135.182C45.2141 130.539 30.9838 117.276 34.1572 108.812C37.3305 100.348 62.2443 88.2017 76.3889 94.7681C88.7715 99.4106 90.8479 114.704 87.6746 123.168Z" fill="#D91517"/>
</g>
<g filter="url(#filter3_d_313_839)">
<path d="M25.8613 149.77C30.872 165.192 31.1844 178.912 26.5591 180.415C21.9338 181.918 9.52277 158.504 8.41446 153C7.30616 147.496 3.78854 126.07 8.41385 124.567C13.0391 123.064 20.8507 134.348 25.8613 149.77Z" fill="url(#paint8_radial_313_839)"/>
</g>
<g filter="url(#filter4_dd_313_839)">
<path d="M141.948 174.069C140.144 188.728 129.284 201.286 116.353 199.696C103.423 198.105 93.319 182.968 95.1226 168.309C96.9262 153.65 108.151 140.144 121.081 141.735C134.012 143.326 143.752 159.41 141.948 174.069Z" fill="url(#paint9_radial_313_839)"/>
</g>
<path d="M163.428 99.2142C164.268 110.397 163.732 141.441 155.069 176.437L151.311 176.719C157.982 147.894 161.586 130.531 163.428 99.2142Z" fill="#A31113"/>
<defs>
<filter id="filter0_d_313_839" x="5.44531" y="0" width="190.587" height="206.046" filterUnits="userSpaceOnUse" color-interpolation-filters="sRGB">
<feFlood flood-opacity="0" result="BackgroundImageFix"/>
<feColorMatrix in="SourceAlpha" type="matrix" values="0 0 0 0 0 0 0 0 0 0 0 0 0 0 0 0 0 0 127 0" result="hardAlpha"/>
<feOffset dx="3.23305" dy="3.03099"/>
<feComposite in2="hardAlpha" operator="out"/>
<feColorMatrix type="matrix" values="0 0 0 0 0.639216 0 0 0 0 0.0666667 0 0 0 0 0.0745098 0 0 0 1 0"/>
<feBlend mode="normal" in2="BackgroundImageFix" result="effect1_dropShadow_313_839"/>
<feBlend mode="normal" in="SourceGraphic" in2="effect1_dropShadow_313_839" result="shape"/>
</filter>
<filter id="filter1_d_313_839" x="67.5921" y="66.3787" width="51.5853" height="20.9784" filterUnits="userSpaceOnUse" color-interpolation-filters="sRGB">
<feFlood flood-opacity="0" result="BackgroundImageFix"/>
<feColorMatrix in="SourceAlpha" type="matrix" values="0 0 0 0 0 0 0 0 0 0 0 0 0 0 0 0 0 0 127 0" result="hardAlpha"/>
<feOffset dy="0.808263"/>
<feGaussianBlur stdDeviation="0.404131"/>
<feComposite in2="hardAlpha" operator="out"/>
<feColorMatrix type="matrix" values="0 0 0 0 0 0 0 0 0 0 0 0 0 0 0 0 0 0 0.25 0"/>
<feBlend mode="normal" in2="BackgroundImageFix" result="effect1_dropShadow_313_839"/>
<feBlend mode="normal" in="SourceGraphic" in2="effect1_dropShadow_313_839" result="shape"/>
</filter>
<filter id="filter2_d_313_839" x="33.707" y="92.8946" width="55.6951" height="46.058" filterUnits="userSpaceOnUse" color-interpolation-filters="sRGB">
<feFlood flood-opacity="0" result="BackgroundImageFix"/>
<feColorMatrix in="SourceAlpha" type="matrix" values="0 0 0 0 0 0 0 0 0 0 0 0 0 0 0 0 0 0 127 0" result="hardAlpha"/>
<feOffset dx="0.404131" dy="2.42479"/>
<feComposite in2="hardAlpha" operator="out"/>
<feColorMatrix type="matrix" values="0 0 0 0 0.639216 0 0 0 0 0.0666667 0 0 0 0 0.0745098 0 0 0 1 0"/>
<feBlend mode="normal" in2="BackgroundImageFix" result="effect1_dropShadow_313_839"/>
<feBlend mode="normal" in="SourceGraphic" in2="effect1_dropShadow_313_839" result="shape"/>
</filter>
<filter id="filter3_d_313_839" x="6.08984" y="123.422" width="25.9669" height="57.0621" filterUnits="userSpaceOnUse" color-interpolation-filters="sRGB">
<feFlood flood-opacity="0" result="BackgroundImageFix"/>
<feColorMatrix in="SourceAlpha" type="matrix" values="0 0 0 0 0 0 0 0 0 0 0 0 0 0 0 0 0 0 127 0" result="hardAlpha"/>
<feOffset dx="2.22272" dy="-1.01033"/>
<feComposite in2="hardAlpha" operator="out"/>
<feColorMatrix type="matrix" values="0 0 0 0 0.639216 0 0 0 0 0.0666667 0 0 0 0 0.0745098 0 0 0 1 0"/>
<feBlend mode="normal" in2="BackgroundImageFix" result="effect1_dropShadow_313_839"/>
<feBlend mode="normal" in="SourceGraphic" in2="effect1_dropShadow_313_839" result="shape"/>
</filter>
<filter id="filter4_dd_313_839" x="92.2332" y="141.12" width="52.3679" height="58.7122" filterUnits="userSpaceOnUse" color-interpolation-filters="sRGB">
<feFlood flood-opacity="0" result="BackgroundImageFix"/>
<feColorMatrix in="SourceAlpha" type="matrix" values="0 0 0 0 0 0 0 0 0 0 0 0 0 0 0 0 0 0 127 0" result="hardAlpha"/>
<feOffset dx="2.43711"/>
<feComposite in2="hardAlpha" operator="out"/>
<feColorMatrix type="matrix" values="0 0 0 0 0.639216 0 0 0 0 0.0666667 0 0 0 0 0.0745098 0 0 0 1 0"/>
<feBlend mode="normal" in2="BackgroundImageFix" result="effect1_dropShadow_313_839"/>
<feColorMatrix in="SourceAlpha" type="matrix" values="0 0 0 0 0 0 0 0 0 0 0 0 0 0 0 0 0 0 127 0" result="hardAlpha"/>
<feOffset dx="-2.68082" dy="-0.487422"/>
<feComposite in2="hardAlpha" operator="out"/>
<feColorMatrix type="matrix" values="0 0 0 0 0.639216 0 0 0 0 0.0666667 0 0 0 0 0.0745098 0 0 0 1 0"/>
<feBlend mode="normal" in2="effect1_dropShadow_313_839" result="effect2_dropShadow_313_839"/>
<feBlend mode="normal" in="SourceGraphic" in2="effect2_dropShadow_313_839" result="shape"/>
</filter>
<linearGradient id="paint0_linear_313_839" x1="103.458" y1="40.4297" x2="103.458" y2="74.8243" gradientUnits="userSpaceOnUse">
<stop stop-color="#9F1915"/>
<stop offset="1" stop-color="#D91517" stop-opacity="0"/>
</linearGradient>
<linearGradient id="paint1_linear_313_839" x1="65.8369" y1="113.203" x2="102.923" y2="120.81" gradientUnits="userSpaceOnUse">
<stop offset="0.182879" stop-color="#D91517"/>
<stop offset="0.49" stop-color="#ED7071"/>
<stop offset="0.833055" stop-color="#D91517"/>
</linearGradient>
<linearGradient id="paint2_linear_313_839" x1="65.8369" y1="113.203" x2="102.923" y2="120.81" gradientUnits="userSpaceOnUse">
<stop offset="0.182879" stop-color="#D91517"/>
<stop offset="0.49" stop-color="#ED7071"/>
<stop offset="0.833055" stop-color="#D91517"/>
</linearGradient>
<linearGradient id="paint3_linear_313_839" x1="65.8369" y1="113.203" x2="102.923" y2="120.81" gradientUnits="userSpaceOnUse">
<stop offset="0.182879" stop-color="#D91517"/>
<stop offset="0.49" stop-color="#ED7071"/>
<stop offset="0.833055" stop-color="#D91517"/>
</linearGradient>
<linearGradient id="paint4_linear_313_839" x1="65.8369" y1="113.203" x2="102.923" y2="120.81" gradientUnits="userSpaceOnUse">
<stop offset="0.182879" stop-color="#D91517"/>
<stop offset="0.49" stop-color="#ED7071"/>
<stop offset="0.833055" stop-color="#D91517"/>
</linearGradient>
<linearGradient id="paint5_linear_313_839" x1="65.8369" y1="113.203" x2="102.923" y2="120.81" gradientUnits="userSpaceOnUse">
<stop offset="0.182879" stop-color="#D91517"/>
<stop offset="0.49" stop-color="#ED7071"/>
<stop offset="0.833055" stop-color="#D91517"/>
</linearGradient>
<linearGradient id="paint6_linear_313_839" x1="92.3349" y1="79.7694" x2="66.7046" y2="194.115" gradientUnits="userSpaceOnUse">
<stop stop-color="#BDCCC6"/>
<stop offset="0.413964" stop-color="#BDCCC6" stop-opacity="0"/>
<stop offset="0.725954" stop-color="#BDCCC6"/>
</linearGradient>
<linearGradient id="paint7_linear_313_839" x1="72.1784" y1="67.9814" x2="117.459" y2="78.3492" gradientUnits="userSpaceOnUse">
<stop offset="0.135858" stop-color="#D91517" stop-opacity="0"/>
<stop offset="0.527451" stop-color="#9E1D18"/>
<stop offset="1" stop-color="#D91517" stop-opacity="0"/>
</linearGradient>
<radialGradient id="paint8_radial_313_839" cx="0" cy="0" r="1" gradientUnits="userSpaceOnUse" gradientTransform="translate(17.467 152.497) rotate(71.2274) scale(35.7869 10.7703)">
<stop offset="0.227783" stop-color="#D91517"/>
<stop offset="0.845172" stop-color="#B11B21"/>
</radialGradient>
<radialGradient id="paint9_radial_313_839" cx="0" cy="0" r="1" gradientUnits="userSpaceOnUse" gradientTransform="translate(118.595 170.7) rotate(94.9257) scale(35.4305 28.7683)">
<stop offset="0.227783" stop-color="#D91517"/>
<stop offset="1" stop-color="#B11B21"/>
</radialGradient>
</defs>
</svg>