<svg width="25" height="24" viewBox="0 0 25 24" fill="none" xmlns="http://www.w3.org/2000/svg">
<path d="M12.4335 0H12.3798C5.87648 0 0.604492 5.27354 0.604492 11.7788V11.8325C0.604492 18.3378 5.87648 23.6113 12.3798 23.6113H12.4335C18.9369 23.6113 24.2089 18.3378 24.2089 11.8325V11.7788C24.2089 5.27354 18.9369 0 12.4335 0Z" fill="white"/>
<path d="M19.4061 11.179C19.0885 7.59553 16.0709 4.77637 12.4074 4.77637C8.53216 4.77637 5.37891 7.93055 5.37891 11.8052C5.37891 13.2281 5.8048 14.5541 6.53502 15.6617L5.65925 17.6032C5.42853 18.1136 5.83953 18.6811 6.39608 18.6224L9.65685 18.2749C10.502 18.6356 11.4315 18.835 12.4074 18.835C12.6555 18.835 12.9019 18.8217 13.1434 18.7969C13.3667 18.7729 13.5858 18.739 13.8025 18.696C16.9987 18.0491 19.4152 15.225 19.4342 11.8458V11.8052C19.4342 11.5951 19.4251 11.3842 19.4061 11.179ZM16.3107 10.2228L14.8354 12.4993L14.0547 13.7037C13.8885 13.9602 13.5387 14.0214 13.2955 13.8361L12.0013 12.855L11.2033 12.2503C11.1388 12.2015 11.0486 12.2031 10.9858 12.2544L9.02752 13.8526C8.71244 14.1099 8.28159 13.7227 8.50239 13.3819L9.88427 11.251L10.6649 10.0457C10.8312 9.78931 11.1801 9.7281 11.4241 9.91257L12.6803 10.8655L13.4783 11.4694C13.5428 11.519 13.6329 11.5174 13.6958 11.4653L15.7847 9.75209C16.0998 9.494 16.5323 9.88113 16.3107 10.2228Z" fill="#D91517"/>
</svg>
