<svg width="24" height="24" viewBox="0 0 24 24" fill="none" xmlns="http://www.w3.org/2000/svg">
<path d="M23.5374 11.7722C23.5374 5.27057 18.2684 0 11.7687 0C5.26903 0 0 5.27057 0 11.7722C0 18.2737 5.26903 23.5443 11.7687 23.5443C18.2684 23.5443 23.5374 18.2737 23.5374 11.7722Z" fill="white"/>
<path d="M17.5989 8.21712C16.4291 12.8119 12.8119 16.4291 8.21711 17.5989C6.47767 18.0417 5 16.5449 5 14.75V13.9375C5 13.4888 5.36467 13.1293 5.81121 13.085C6.56565 13.0102 7.28975 12.8322 7.96918 12.5654L9.2036 13.7998C11.2113 12.839 12.839 11.2113 13.7998 9.2036L12.5654 7.96919C12.8322 7.28975 13.0102 6.56566 13.085 5.81121C13.1293 5.36467 13.4888 5 13.9375 5H14.75C16.5449 5 18.0417 6.47767 17.5989 8.21712Z" stroke="#D91517" stroke-width="1.625" stroke-linecap="round" stroke-linejoin="round"/>
</svg>
