<svg width="234" height="24" viewBox="0 0 234 24" fill="none" xmlns="http://www.w3.org/2000/svg">
<path d="M23.6035 11.8061C23.6035 17.7687 19.185 22.6981 13.445 23.498C12.9083 23.5724 12.3592 23.6113 11.8018 23.6113C11.1584 23.6113 10.5266 23.56 9.9113 23.4608C4.292 22.5558 0 17.6818 0 11.8061C0 5.28593 5.28437 0 11.8026 0C18.3208 0 23.6052 5.28593 23.6052 11.8061H23.6035Z" fill="white"/>
<path d="M13.4455 9.47984V12.0517H16.626L16.1224 15.5161H13.4455V23.4979C12.9088 23.5723 12.3596 23.6112 11.8023 23.6112C11.1589 23.6112 10.5271 23.5599 9.9118 23.4607V15.5161H6.97852V12.0517H9.9118V8.90492C9.9118 6.95269 11.4938 5.36938 13.4463 5.36938V5.37104C13.4521 5.37104 13.457 5.36938 13.4628 5.36938H16.6268V8.36558H14.5594C13.945 8.36558 13.4463 8.86439 13.4463 9.47901L13.4455 9.47984Z" fill="#D91517"/>
<path d="M64.4345 0H64.3808C57.8775 0 52.6055 5.27354 52.6055 11.7788V11.8325C52.6055 18.3378 57.8775 23.6113 64.3808 23.6113H64.4345C70.9378 23.6113 76.2098 18.3378 76.2098 11.8325V11.7788C76.2098 5.27354 70.9378 0 64.4345 0Z" fill="white"/>
<path d="M71.407 11.179C71.0895 7.59553 68.0718 4.77637 64.4083 4.77637C60.5331 4.77637 57.3799 7.93055 57.3799 11.8052C57.3799 13.2281 57.8058 14.5541 58.536 15.6617L57.6602 17.6032C57.4295 18.1136 57.8405 18.6811 58.3971 18.6224L61.6578 18.2749C62.503 18.6356 63.4325 18.835 64.4083 18.835C64.6564 18.835 64.9029 18.8217 65.1444 18.7969C65.3676 18.7729 65.5868 18.739 65.8035 18.696C68.9997 18.0491 71.4161 15.225 71.4352 11.8458V11.8052C71.4352 11.5951 71.4261 11.3842 71.407 11.179ZM68.3117 10.2228L66.8363 12.4993L66.0557 13.7037C65.8895 13.9602 65.5396 14.0214 65.2965 13.8361L64.0023 12.855L63.2043 12.2503C63.1398 12.2015 63.0496 12.2031 62.9868 12.2544L61.0285 13.8526C60.7134 14.1099 60.2826 13.7227 60.5034 13.3819L61.8852 11.251L62.6659 10.0457C62.8321 9.78931 63.1811 9.7281 63.4251 9.91257L64.6813 10.8655L65.4793 11.4694C65.5438 11.519 65.6339 11.5174 65.6968 11.4653L67.7857 9.75209C68.1008 9.494 68.5333 9.88113 68.3117 10.2228Z" fill="#D91517"/>
<path d="M117.039 0H116.985C110.482 0 105.21 5.27354 105.21 11.7788V11.8325C105.21 18.3378 110.482 23.6113 116.985 23.6113H117.039C123.542 23.6113 128.814 18.3378 128.814 11.8325V11.7788C128.814 5.27354 123.542 0 117.039 0Z" fill="white"/>
<path d="M120.663 4.80371H113.36C111.342 4.80371 109.7 6.44574 109.7 8.46416V15.1481C109.7 17.1665 111.342 18.8085 113.36 18.8085H120.663C122.681 18.8085 124.323 17.1665 124.323 15.1481V8.46416C124.323 6.44574 122.681 4.80371 120.663 4.80371ZM110.991 8.46416C110.991 7.15798 112.054 6.095 113.36 6.095H120.663C121.969 6.095 123.032 7.15798 123.032 8.46416V15.1481C123.032 16.4543 121.969 17.5172 120.663 17.5172H113.36C112.054 17.5172 110.991 16.4543 110.991 15.1481V8.46416Z" fill="#D91517"/>
<path d="M117.011 15.2101C118.888 15.2101 120.415 13.683 120.415 11.8052C120.415 9.92743 118.888 8.40039 117.011 8.40039C115.134 8.40039 113.607 9.92743 113.607 11.8052C113.607 13.683 115.134 15.2101 117.011 15.2101ZM117.011 9.69251C118.176 9.69251 119.124 10.6405 119.124 11.8061C119.124 12.9716 118.176 13.9196 117.011 13.9196C115.846 13.9196 114.898 12.9716 114.898 11.8061C114.898 10.6405 115.846 9.69251 117.011 9.69251Z" fill="#D91517"/>
<path d="M120.731 8.9505C121.236 8.9505 121.648 8.53937 121.648 8.03311C121.648 7.52685 121.237 7.11572 120.731 7.11572C120.224 7.11572 119.813 7.52685 119.813 8.03311C119.813 8.53937 120.224 8.9505 120.731 8.9505Z" fill="#D91517"/>
<path d="M169.643 0H169.589C163.085 0 157.813 5.27354 157.813 11.7788V11.8325C157.813 18.3378 163.085 23.6113 169.589 23.6113H169.643C176.146 23.6113 181.418 18.3378 181.418 11.8325V11.7788C181.418 5.27354 176.146 0 169.643 0Z" fill="white"/>
<path d="M175.321 8.54177V10.7711C174.932 10.7331 174.426 10.6446 173.866 10.4394C173.135 10.1714 172.591 9.80493 172.234 9.52119V14.0271L172.225 14.013C172.231 14.1023 172.234 14.1933 172.234 14.2852C172.234 16.5228 170.414 18.3443 168.176 18.3443C165.938 18.3443 164.118 16.5228 164.118 14.2852C164.118 12.0475 165.938 10.2252 168.176 10.2252C168.395 10.2252 168.61 10.2425 168.82 10.2764V12.4735C168.619 12.4016 168.402 12.3627 168.176 12.3627C167.117 12.3627 166.254 13.2247 166.254 14.2852C166.254 15.3456 167.117 16.2076 168.176 16.2076C169.235 16.2076 170.098 15.3448 170.098 14.2852C170.098 14.2454 170.097 14.2057 170.095 14.166V5.40991H172.322C172.33 5.59852 172.337 5.78878 172.346 5.97739C172.361 6.34881 172.493 6.70534 172.724 6.99735C172.994 7.34064 173.394 7.73936 173.954 8.05784C174.479 8.35481 174.972 8.48303 175.321 8.54342V8.54177Z" fill="#D91517"/>
<path d="M233.955 11.8057C233.955 5.30408 228.686 0.0335083 222.187 0.0335083C215.687 0.0335083 210.418 5.30408 210.418 11.8057C210.418 18.3072 215.687 23.5778 222.187 23.5778C228.686 23.5778 233.955 18.3072 233.955 11.8057Z" fill="white"/>
<path d="M229.598 9.36613C229.505 8.4719 229.306 7.48338 228.572 6.96389C228.004 6.56103 227.257 6.54614 226.56 6.54696C225.087 6.54696 223.612 6.54945 222.138 6.55028C220.721 6.55193 219.304 6.55276 217.886 6.55441C217.294 6.55441 216.718 6.50891 216.169 6.76535C215.696 6.98539 215.327 7.40397 215.104 7.86969C214.796 8.5174 214.731 9.25115 214.694 9.96752C214.625 11.272 214.633 12.5799 214.715 13.8836C214.775 14.8349 214.928 15.8863 215.663 16.4926C216.315 17.0295 217.235 17.056 218.08 17.0568C220.762 17.0593 223.446 17.0617 226.129 17.0634C226.474 17.0642 226.832 17.0576 227.183 17.0196C227.873 16.9451 228.53 16.7474 228.973 16.2362C229.421 15.7208 229.536 15.0036 229.604 14.3245C229.769 12.6767 229.767 11.0131 229.598 9.36613ZM220.587 14.1152V9.49517L224.586 11.8048L220.587 14.1152Z" fill="#D91517"/>
</svg>
