<svg width="25" height="24" viewBox="0 0 25 24" fill="none" xmlns="http://www.w3.org/2000/svg">
<path d="M12.6435 0H12.5898C6.08644 0 0.814453 5.27354 0.814453 11.7788V11.8325C0.814453 18.3378 6.08644 23.6113 12.5898 23.6113H12.6435C19.1468 23.6113 24.4188 18.3378 24.4188 11.8325V11.7788C24.4188 5.27354 19.1468 0 12.6435 0Z" fill="white"/>
<path d="M18.3222 8.54177V10.7711C17.9327 10.7331 17.4266 10.6446 16.8667 10.4394C16.1357 10.1714 15.5915 9.80493 15.2351 9.52119V14.0271L15.226 14.013C15.2318 14.1023 15.2351 14.1933 15.2351 14.2852C15.2351 16.5228 13.4149 18.3443 11.1771 18.3443C8.93931 18.3443 7.11914 16.5228 7.11914 14.2852C7.11914 12.0475 8.93931 10.2252 11.1771 10.2252C11.3963 10.2252 11.6113 10.2425 11.8213 10.2764V12.4735C11.6195 12.4016 11.4029 12.3627 11.1771 12.3627C10.1178 12.3627 9.25522 13.2247 9.25522 14.2852C9.25522 15.3456 10.1178 16.2076 11.1771 16.2076C12.2365 16.2076 13.099 15.3448 13.099 14.2852C13.099 14.2454 13.0982 14.2057 13.0957 14.166V5.40991H15.3227C15.331 5.59852 15.3385 5.78878 15.3467 5.97739C15.3616 6.34881 15.4939 6.70534 15.7246 6.99735C15.9951 7.34064 16.3945 7.73936 16.9552 8.05784C17.4803 8.35481 17.9732 8.48303 18.3222 8.54342V8.54177Z" fill="#D91517"/>
</svg>
