<svg width="24" height="24" viewBox="0 0 24 24" fill="none" xmlns="http://www.w3.org/2000/svg">
<path d="M23.9563 11.7722C23.9563 5.27057 18.6873 0 12.1876 0C5.68797 0 0.418945 5.27057 0.418945 11.7722C0.418945 18.2737 5.68797 23.5443 12.1876 23.5443C18.6873 23.5443 23.9563 18.2737 23.9563 11.7722Z" fill="white"/>
<path d="M19.5988 9.33262C19.5062 8.4384 19.3069 7.44987 18.5733 6.93038C18.0052 6.52752 17.2584 6.51263 16.5613 6.51346C15.0876 6.51346 13.6131 6.51594 12.1395 6.51677C10.722 6.51842 9.30459 6.51925 7.88716 6.5209C7.29504 6.5209 6.71947 6.4754 6.16953 6.73184C5.69732 6.95188 5.32767 7.37046 5.10521 7.83618C4.79675 8.4839 4.73225 9.21764 4.69503 9.93401C4.62639 11.2385 4.63384 12.5464 4.71571 13.8501C4.77608 14.8014 4.92907 15.8528 5.66425 16.4591C6.3159 16.996 7.2355 17.0225 8.08067 17.0233C10.7634 17.0258 13.4469 17.0282 16.1305 17.0299C16.4745 17.0307 16.8334 17.0241 17.184 16.9861C17.8737 16.9116 18.5312 16.7139 18.9744 16.2027C19.4218 15.6873 19.5368 14.9701 19.6046 14.291C19.77 12.6432 19.7683 10.9796 19.5988 9.33262ZM10.5881 14.0817V9.46167L14.5873 11.7713L10.5881 14.0817Z" fill="#D91517"/>
</svg>
