<svg width="60" height="65" viewBox="0 0 60 65" fill="none" xmlns="http://www.w3.org/2000/svg">
<path d="M36.2835 59.0886C34.8182 59.3764 33.6519 59.0838 32.7847 58.2105C31.9675 57.371 31.4068 56.1767 31.1025 54.6276C30.7736 52.9529 30.6072 51.442 30.6035 50.0948C30.6416 48.7394 30.7175 47.3548 30.8311 45.941C28.8125 46.5115 26.773 47.086 24.7126 47.6647C22.6439 48.2015 20.5712 48.7174 18.4943 49.2123C17.8558 49.9465 17.1508 50.5633 16.3793 51.0627C15.6077 51.5621 14.6777 51.9187 13.5892 52.1325C11.9983 52.445 10.6765 52.3568 9.62381 51.8679C8.57116 51.379 7.90092 50.4018 7.61307 48.9365C7.28411 47.2618 7.5439 45.9281 8.39244 44.9352C9.27462 43.8923 10.4783 43.0471 12.0034 42.3997C13.5951 39.4346 15.3751 36.4325 17.3436 33.3935C19.3121 30.3544 21.2637 27.3403 23.1985 24.3514C25.1333 21.3624 26.8252 18.4646 28.274 15.658C29.7565 12.8014 30.7699 10.1021 31.3142 7.56017C31.5863 6.28922 32.1167 5.33713 32.9055 4.70389C33.7278 4.02056 34.6624 3.57609 35.709 3.37049C37.1744 3.08265 38.2692 3.45458 38.9937 4.48629C39.76 5.50978 40.2994 6.81698 40.6119 8.40791C40.686 8.78471 40.7286 9.77643 40.7398 11.3831C40.7428 12.9478 40.7065 14.9769 40.6311 17.4702C40.5892 19.9134 40.5171 22.6452 40.4147 25.6656C40.3459 28.6358 40.2768 31.7149 40.2073 34.9028C42.9129 34.0669 45.2541 33.3679 47.2308 32.8056C49.1992 32.2016 50.4556 31.8461 50.9999 31.7391C52.214 31.5006 53.2225 31.433 54.0255 31.5361C54.8284 31.6393 55.3286 32.1933 55.526 33.1981C55.7069 34.1192 55.2729 35.0088 54.224 35.8671C53.2087 36.6753 52.0765 37.4412 50.8272 38.1649C49.5779 38.8886 48.0565 39.6658 46.263 40.4964C44.4695 41.327 42.3537 42.1774 39.9157 43.0477C39.8343 44.8465 39.7363 46.5615 39.622 48.1928C39.5076 49.8241 39.4594 51.6816 39.4773 53.7652C39.4474 55.1625 39.2217 56.3373 38.8 57.2898C38.4202 58.2341 37.5814 58.8337 36.2835 59.0886ZM31.7472 24.0418C30.1891 26.9568 28.5474 29.8882 26.8219 32.8361C25.1301 35.7338 23.4767 38.3849 21.8619 40.7892C23.3698 40.2756 24.9028 39.7788 26.4608 39.2988C28.0607 38.8106 29.6606 38.3224 31.2605 37.8342L31.7472 24.0418Z" fill="#D91517"/>
</svg>
