<svg width="51" height="63" viewBox="0 0 51 63" fill="none" xmlns="http://www.w3.org/2000/svg">
<path d="M41.6336 40.7962C41.1692 42.3496 40.0672 43.8014 38.3275 45.1517C36.6001 46.4612 34.5109 47.6402 32.0599 48.6887C29.6089 49.7373 26.9983 50.6491 24.2283 51.4242C21.5113 52.1706 18.8637 52.7596 16.2854 53.1912C13.7357 53.6759 11.5108 53.9682 9.61057 54.0681C7.69812 54.2089 6.35354 54.1632 5.57684 53.9311C4.10519 53.4911 2.97869 52.8649 2.19734 52.0524C1.41599 51.2399 1.22695 50.1591 1.63023 48.8101C1.93575 47.7881 2.41933 47.0643 3.08096 46.6387C3.7426 46.213 4.58419 45.9302 5.60574 45.7903C8.06563 45.4569 10.6052 45.0805 13.2244 44.6611C15.8435 44.2417 18.3666 43.7713 20.7936 43.25C23.2615 42.7408 25.478 42.1788 27.4432 41.5639C29.4492 40.9612 31.0894 40.316 32.3638 39.6282C33.6504 38.8995 34.4098 38.1468 34.642 37.3701C34.9108 36.4707 34.7589 35.7128 34.1861 35.0963C33.6543 34.4919 32.8548 33.9635 31.7877 33.5109C30.7329 33.0174 29.531 32.569 28.1819 32.1658C26.3424 31.6158 24.785 31.2393 23.5097 31.0362C22.2345 30.8331 21.1227 30.6789 20.1745 30.5735C19.2794 30.4396 18.4639 30.2626 17.7281 30.0426C16.5017 29.676 15.7022 29.1475 15.3297 28.4572C14.9693 27.726 14.9297 26.8903 15.2108 25.9501C15.443 25.1734 15.9674 24.4618 16.7842 23.8153C17.6009 23.1688 18.704 22.8306 20.0934 22.8007C23.0072 22.7365 25.6388 22.499 27.9883 22.0881C30.3909 21.6485 32.3539 20.9661 33.8773 20.041C35.4417 19.1282 36.4438 17.9359 36.8837 16.4643C37.0182 16.0146 36.885 15.6408 36.4842 15.3429C36.1243 15.0572 35.2903 14.7188 33.9821 14.3277C32.7966 13.9733 31.4253 13.7192 29.8681 13.5654C28.3518 13.4239 26.8376 13.3497 25.3255 13.343C23.8665 13.3076 22.6037 13.2864 21.537 13.2792C20.5113 13.2843 19.8758 13.2502 19.6305 13.1769C17.8318 12.6392 17.2013 11.471 17.739 9.67229C17.8612 9.2635 18.3634 8.70109 19.2454 7.98506C20.1274 7.26903 21.3222 6.62421 22.8296 6.05061C24.3493 5.43613 26.1123 5.05027 28.1188 4.89304C30.1661 4.74802 32.3957 5.03602 34.8075 5.75704C37.1785 6.46583 39.1024 7.55309 40.5791 9.01879C42.0967 10.4967 43.1017 12.1999 43.5939 14.1284C44.1393 16.0282 44.1065 18 43.4954 20.044C43.0311 21.5974 42.0761 23.0042 40.6306 24.2643C39.2383 25.4957 37.6495 26.4903 35.8643 27.2481C38.3588 28.8845 40.1242 30.9486 41.1606 33.4405C42.2092 35.8915 42.3668 38.3434 41.6336 40.7962Z" fill="#FDD059"/>
</svg>
