<svg width="54" height="63" viewBox="0 0 54 63" fill="none" xmlns="http://www.w3.org/2000/svg">
<path d="M6.23973 52.9262C4.19577 52.3152 2.89121 51.3908 2.32604 50.153C1.78954 48.9684 1.67404 47.8651 1.97956 46.8431C2.24841 45.9438 2.70333 45.1669 3.34431 44.5124C4.03839 43.8292 5.01063 43.4073 6.26101 43.2468C7.51139 43.0862 9.14634 43.3523 11.1659 44.0451C13.5275 43.5932 15.983 42.9022 18.5322 41.9721C21.1223 41.0541 23.6591 39.9421 26.1426 38.6361C28.6669 37.3422 30.9786 35.9403 33.0778 34.4303C35.23 32.8916 37.0225 31.2899 38.4553 29.6252C39.9413 27.9318 40.9409 26.2267 41.4541 24.5098C42.0041 22.6702 41.8472 21.1093 40.9837 19.8269C40.161 18.5567 38.7482 17.6222 36.7451 17.0234C35.0282 16.5101 33.3932 16.244 31.8403 16.2251C30.2995 16.1653 28.8978 16.2361 27.6352 16.4376C26.3726 16.639 25.2919 16.8281 24.3929 17.0047C23.5471 17.1526 22.8994 17.1594 22.4497 17.025C21.673 16.7928 21.0758 16.258 20.6582 15.4206C20.2528 14.5423 20.3377 13.588 20.9129 12.5576C21.2964 11.8707 22.0497 11.1384 23.1728 10.3608C24.2959 9.58328 25.7255 8.89737 27.4618 8.30311C29.1981 7.70885 31.1451 7.37799 33.3028 7.31051C35.5137 7.21438 37.8659 7.53904 40.3595 8.2845C44.3657 9.48212 47.2489 11.68 49.0093 14.8782C50.8106 18.0887 50.9597 22.2079 49.4565 27.2361C48.4667 30.5473 46.6162 33.5344 43.9052 36.1975C41.2351 38.8728 38.0415 41.2135 34.3245 43.2196C30.6076 45.2257 26.6982 46.9071 22.5964 48.2638C25.699 49.0577 28.1454 49.5886 29.9357 49.8566C31.7382 50.0837 33.1809 50.2478 34.264 50.349C35.388 50.4623 36.4405 50.6656 37.4216 50.9589C38.8115 51.3744 39.8092 51.9844 40.4148 52.7889C41.0205 53.5934 41.1644 54.5271 40.8467 55.5899C40.6145 56.3666 40.184 57.0618 39.5552 57.6754C38.9674 58.3013 38.0299 58.7558 36.7428 59.039C35.468 59.2814 33.7393 59.2544 31.5567 58.9582C29.3619 58.7029 26.568 58.0681 23.175 57.0537C21.172 56.4549 19.1137 55.8174 17.0002 55.141C14.9276 54.4769 12.9224 53.8106 10.9846 53.1423C9.7178 53.2089 8.73292 53.2262 8.02997 53.1942C7.3679 53.1744 6.77115 53.0851 6.23973 52.9262Z" fill="#9033BB"/>
</svg>
