<svg xmlns="http://www.w3.org/2000/svg" xmlns:xlink="http://www.w3.org/1999/xlink" width="500" zoomAndPan="magnify" viewBox="0 0 375 374.999991" height="500" preserveAspectRatio="xMidYMid meet" version="1.0"><defs><clipPath id="2ce0fa4cc5"><path d="M 112.5 117.863281 L 262.5 117.863281 L 262.5 257.320312 L 112.5 257.320312 Z M 112.5 117.863281 " clip-rule="nonzero"/></clipPath></defs><rect x="-37.5" width="450" fill="#ffffff" y="-37.499999" height="449.999989" fill-opacity="1"/><rect x="-37.5" width="450" fill="#008000" y="-37.499999" height="449.999989" fill-opacity="1"/><g clip-path="url(#2ce0fa4cc5)"><path fill="#ffffff" d="M 233.476562 204.78125 C 221.699219 209.402344 213.15625 201.378906 208.015625 189.363281 C 202.871094 177.351562 205.9375 164.769531 214.855469 161.269531 C 223.773438 157.769531 235.171875 164.671875 240.3125 176.6875 C 245.453125 188.703125 245.957031 199.882812 233.476562 204.78125 Z M 197.261719 211.136719 C 197.238281 211.164062 197.214844 211.191406 197.191406 211.21875 C 195.9375 212.621094 194.253906 212.527344 192.617188 211.820312 C 189.6875 210.566406 186.886719 207.367188 186.886719 207.367188 C 186.886719 207.367188 183.734375 211.027344 180.769531 212.015625 C 179.589844 212.410156 178.4375 212.382812 177.527344 211.523438 C 177.320312 211.328125 177.136719 211.125 176.972656 210.917969 C 172.011719 204.523438 187.972656 192.488281 187.972656 192.488281 C 187.972656 192.488281 201.515625 206.097656 197.261719 211.136719 Z M 169.644531 188.992188 C 164.503906 201.007812 155.960938 209.03125 144.183594 204.410156 C 131.703125 199.511719 132.207031 188.335938 137.347656 176.316406 C 142.488281 164.300781 153.890625 157.402344 162.808594 160.902344 C 171.726562 164.402344 174.789062 176.980469 169.644531 188.992188 Z M 187.5 117.863281 C 132.808594 117.863281 112.5 145.730469 112.5 180.105469 C 112.5 203.140625 127.582031 223.253906 149.996094 234.015625 L 149.996094 234.089844 C 149.996094 246.917969 152.242188 257.320312 159.902344 257.320312 C 164.585938 257.320312 167.363281 252.949219 168.738281 246.382812 C 170.015625 252.949219 172.707031 257.320312 177.671875 257.320312 C 182.359375 257.320312 185.136719 252.945312 186.507812 246.371094 C 187.78125 252.945312 190.476562 257.320312 195.441406 257.320312 C 200.125 257.320312 202.902344 252.949219 204.273438 246.375 C 205.554688 252.949219 208.246094 257.320312 213.210938 257.320312 C 220.285156 257.320312 223.007812 247.347656 223.117188 234.894531 C 246.570312 224.371094 262.503906 203.78125 262.503906 180.105469 C 262.503906 145.730469 245.472656 117.863281 187.5 117.863281 " fill-opacity="1" fill-rule="nonzero"/></g></svg>