<svg width="100" height="60" viewBox="0 0 100 60" fill="none" xmlns="http://www.w3.org/2000/svg">
  <rect width="100" height="60" rx="8" fill="#E9F7EF"/>
  <path d="M50 15C41.716 15 35 21.716 35 30C35 38.284 41.716 45 50 45C58.284 45 65 38.284 65 30C65 21.716 58.284 15 50 15ZM50 42C43.373 42 38 36.627 38 30C38 23.373 43.373 18 50 18C56.627 18 62 23.373 62 30C62 36.627 56.627 42 50 42Z" fill="#2ECC71"/>
  <path d="M50 22C49.448 22 49 22.448 49 23V25.184C46.839 25.598 45 27.477 45 29.75C45 32.373 47.239 34.5 50 34.5C51.657 34.5 53 35.843 53 37.5C53 39.157 51.657 40.5 50 40.5C48.343 40.5 47 39.157 47 37.5C47 36.948 46.552 36.5 46 36.5C45.448 36.5 45 36.948 45 37.5C45 39.773 46.839 41.652 49 42.066V44C49 44.552 49.448 45 50 45C50.552 45 51 44.552 51 44V42.066C53.161 41.652 55 39.773 55 37.5C55 34.877 52.761 32.75 50 32.75C48.343 32.75 47 31.407 47 29.75C47 28.093 48.343 26.75 50 26.75C51.657 26.75 53 28.093 53 29.75C53 30.302 53.448 30.75 54 30.75C54.552 30.75 55 30.302 55 29.75C55 27.477 53.161 25.598 51 25.184V23C51 22.448 50.552 22 50 22Z" fill="#2ECC71"/>
  <text x="50" y="55" font-family="Arial" font-size="10" text-anchor="middle" fill="#2ECC71">CASH</text>
</svg>