<svg width="30" height="30" viewBox="0 0 30 30" fill="none" xmlns="http://www.w3.org/2000/svg">
<path d="M29.979 14.9895C29.979 23.268 23.268 29.979 14.9895 29.979C6.71104 29.979 0 23.268 0 14.9895C0 6.71104 6.71104 0 14.9895 0C23.268 0 29.979 6.71104 29.979 14.9895ZM2.55486 14.9895C2.55486 21.857 8.12205 27.4242 14.9895 27.4242C21.857 27.4242 27.4242 21.857 27.4242 14.9895C27.4242 8.12205 21.857 2.55486 14.9895 2.55486C8.12205 2.55486 2.55486 8.12205 2.55486 14.9895Z" fill="#D91517"/>
<path d="M24.0943 20.0496C24.0943 22.8244 21.8448 25.0739 19.07 25.0739C16.2952 25.0739 14.0457 22.8244 14.0457 20.0496C14.0457 17.2748 16.2952 15.0253 19.07 15.0253C21.8448 15.0253 24.0943 17.2748 24.0943 20.0496ZM16.7456 20.0496C16.7456 21.3333 17.7863 22.3739 19.07 22.3739C20.3537 22.3739 21.3944 21.3333 21.3944 20.0496C21.3944 18.7659 20.3537 17.7252 19.07 17.7252C17.7863 17.7252 16.7456 18.7659 16.7456 20.0496Z" fill="#D91517"/>
<path d="M14.6009 13.1377C14.6009 12.3712 15.2223 11.7498 15.9888 11.7498H22.0957C22.8622 11.7498 23.4836 12.3712 23.4836 13.1377C23.4836 13.9043 22.8622 14.5257 22.0957 14.5257H15.9888C15.2223 14.5257 14.6009 13.9043 14.6009 13.1377Z" fill="#D91517"/>
<path d="M19.1099 8.22915L16.1375 11.2016C15.5955 11.7436 14.7167 11.7436 14.1747 11.2016C13.6327 10.6595 13.6327 9.78076 14.1747 9.23874L18.0851 5.32834C18.1467 5.26675 18.2126 5.21216 18.2819 5.16456C18.8257 4.75395 19.6028 4.79643 20.0983 5.29199L24.0087 9.20239C24.5508 9.7444 24.5508 10.6232 24.0087 11.1652C23.4667 11.7072 22.5879 11.7072 22.0459 11.1652L19.1099 8.22915Z" fill="#D91517"/>
<path fill-rule="evenodd" clip-rule="evenodd" d="M12.4187 19.2575C13.6437 18.3245 14.4344 16.8505 14.4344 15.1919C14.4344 12.3711 12.1476 10.0843 9.32681 10.0843C6.506 10.0843 4.21927 12.3711 4.21927 15.1919C4.21927 18.0127 6.506 20.2994 9.32681 20.2994C9.34534 20.2994 9.36385 20.2993 9.38233 20.2991V22.2425L12.4187 19.2575ZM9.32681 17.5548C8.02183 17.5548 6.96393 16.4969 6.96393 15.1919C6.96393 13.8869 8.02183 12.829 9.32681 12.829C10.6318 12.829 11.6897 13.8869 11.6897 15.1919C11.6897 16.4969 10.6318 17.5548 9.32681 17.5548Z" fill="#D91517"/>
</svg>
