<svg width="111" height="59" viewBox="0 0 111 59" fill="none" xmlns="http://www.w3.org/2000/svg">
<path d="M14.372 43.2829V56H10.9184V50.5318H3.47157V56H0V43.2289C0.0539623 42.3296 0.809434 41.6101 1.72679 41.6101C2.64415 41.6101 3.39962 42.3296 3.45359 43.2289H3.47157V47.0782H10.9184V43.2829C10.9543 42.3475 11.7098 41.6101 12.6452 41.6101C13.5805 41.6101 14.336 42.3475 14.372 43.2829ZM23.4622 41.664C27.4195 41.664 30.6392 44.8838 30.6392 48.859V56.036H27.1856V53.8235H22.8506C22.7967 53.8235 22.7427 53.8415 22.6888 53.8415C21.7354 53.8415 20.962 53.0501 20.962 52.0967C20.962 51.1794 21.6815 50.4239 22.5808 50.3699H27.1856V48.859C27.1856 46.8084 25.5128 45.1356 23.4622 45.1356C21.4116 45.1356 19.7388 46.8084 19.7388 48.859C19.7388 50.9635 19.7388 52.5824 19.7388 52.5824V56.018H16.2672V48.859C16.2672 44.8838 19.487 41.664 23.4622 41.664ZM35.9295 56H32.5478V43.3189C32.5478 42.6173 32.9616 41.9878 33.6271 41.736C34.2926 41.4841 35.0481 41.682 35.4978 42.2036L40.2285 47.5999L45.193 42.2396C45.6607 41.736 46.3982 41.5561 47.0457 41.8259C47.7112 42.0777 48.125 42.7073 48.125 43.3908V55.964H44.7433V47.7258L41.4336 51.2873C41.1099 51.647 40.6602 51.8269 40.1925 51.8269H40.1745C39.6889 51.8269 39.2392 51.6111 38.9154 51.2513L35.9295 47.8517V56ZM64.2372 43.3908C64.2372 43.4088 64.2372 43.4088 64.2372 43.4088V48.859C64.2372 52.7982 61.0174 56 57.0782 56C53.121 56 49.9192 52.7982 49.9192 48.859V47.0782V43.3908V43.3728V43.3548C49.9192 42.4015 50.6747 41.628 51.628 41.628C52.5813 41.628 53.3548 42.4015 53.3548 43.3548V43.3728V44.9557V45.1356C53.3548 45.1356 53.3548 46.7545 53.3548 48.859C53.3548 50.8916 55.0276 52.5644 57.0782 52.5644C59.1108 52.5644 60.7836 50.8916 60.7836 48.859V43.4088C60.7836 43.4088 60.7836 43.4088 60.7836 43.3908C60.7836 42.4375 61.5571 41.664 62.5104 41.664C63.4637 41.664 64.2372 42.4375 64.2372 43.3908ZM71.7381 41.628H72.7814H77.656C78.5913 41.628 79.3648 42.3835 79.3648 43.3368C79.3648 44.2722 78.5913 45.0277 77.656 45.0277H74.0045V55.9281H70.5329V45.0277H66.7196C65.7663 45.0277 65.0288 44.2722 65.0288 43.3368C65.0288 42.3835 65.7663 41.628 66.7196 41.628H71.7381ZM84.3159 52.5104H93.9212V55.982H80.5746V45.0457V41.5921H93.2917V44.8658H84.298L84.3159 47.0602H89.5503C90.4856 47.0962 91.2231 47.8517 91.2231 48.787C91.2231 49.7404 90.4856 50.4958 89.5503 50.5318H84.3159V52.5104ZM102.35 41.664C106.308 41.664 109.527 44.8838 109.527 48.859V56.036H106.074V53.8235H101.739C101.685 53.8235 101.631 53.8415 101.577 53.8415C100.624 53.8415 99.8502 53.0501 99.8502 52.0967C99.8502 51.1794 100.57 50.4239 101.469 50.3699H106.074V48.859C106.074 46.8084 104.401 45.1356 102.35 45.1356C100.3 45.1356 98.6271 46.8084 98.6271 48.859C98.6271 50.9635 98.6271 52.5824 98.6271 52.5824V56.018H95.1555V48.859C95.1555 44.8838 98.3752 41.664 102.35 41.664Z" fill="#D91517"/>
<path d="M70.979 14.9895C70.979 23.268 64.268 29.979 55.9895 29.979C47.711 29.979 41 23.268 41 14.9895C41 6.71104 47.711 0 55.9895 0C64.268 0 70.979 6.71104 70.979 14.9895ZM43.5549 14.9895C43.5549 21.857 49.122 27.4242 55.9895 27.4242C62.857 27.4242 68.4242 21.857 68.4242 14.9895C68.4242 8.12205 62.857 2.55486 55.9895 2.55486C49.122 2.55486 43.5549 8.12205 43.5549 14.9895Z" fill="#D91517"/>
<path d="M65.0943 20.0496C65.0943 22.8244 62.8448 25.0739 60.07 25.0739C57.2952 25.0739 55.0457 22.8244 55.0457 20.0496C55.0457 17.2748 57.2952 15.0253 60.07 15.0253C62.8448 15.0253 65.0943 17.2748 65.0943 20.0496ZM57.7456 20.0496C57.7456 21.3333 58.7863 22.3739 60.07 22.3739C61.3537 22.3739 62.3944 21.3333 62.3944 20.0496C62.3944 18.7659 61.3537 17.7252 60.07 17.7252C58.7863 17.7252 57.7456 18.7659 57.7456 20.0496Z" fill="#D91517"/>
<path d="M55.6009 13.1377C55.6009 12.3712 56.2223 11.7498 56.9888 11.7498H63.0957C63.8622 11.7498 64.4836 12.3712 64.4836 13.1377C64.4836 13.9043 63.8622 14.5257 63.0957 14.5257H56.9888C56.2223 14.5257 55.6009 13.9043 55.6009 13.1377Z" fill="#D91517"/>
<path d="M60.1099 8.22915L57.1375 11.2016C56.5955 11.7436 55.7167 11.7436 55.1747 11.2016C54.6327 10.6595 54.6327 9.78076 55.1747 9.23874L59.0851 5.32834C59.1467 5.26675 59.2126 5.21216 59.2819 5.16456C59.8257 4.75395 60.6028 4.79643 61.0983 5.29199L65.0087 9.20239C65.5508 9.7444 65.5508 10.6232 65.0087 11.1652C64.4667 11.7072 63.5879 11.7072 63.0459 11.1652L60.1099 8.22915Z" fill="#D91517"/>
<path fill-rule="evenodd" clip-rule="evenodd" d="M53.4187 19.2575C54.6437 18.3245 55.4344 16.8505 55.4344 15.1919C55.4344 12.3711 53.1476 10.0843 50.3268 10.0843C47.506 10.0843 45.2193 12.3711 45.2193 15.1919C45.2193 18.0127 47.506 20.2994 50.3268 20.2994C50.3453 20.2994 50.3638 20.2993 50.3823 20.2991V22.2425L53.4187 19.2575ZM50.3268 17.5548C49.0218 17.5548 47.9639 16.4969 47.9639 15.1919C47.9639 13.8869 49.0218 12.829 50.3268 12.829C51.6318 12.829 52.6897 13.8869 52.6897 15.1919C52.6897 16.4969 51.6318 17.5548 50.3268 17.5548Z" fill="#D91517"/>
</svg>
