<svg width="192" height="37" viewBox="0 0 192 37" fill="none" xmlns="http://www.w3.org/2000/svg">
<path d="M72.6849 12.1528V27.7297H68.4547V21.0319H59.3333V27.7297H55.0811V12.0867C55.1472 10.9851 56.0725 10.1038 57.1962 10.1038C58.3198 10.1038 59.2452 10.9851 59.3113 12.0867H59.3333V16.8017H68.4547V12.1528C68.4988 11.0071 69.4242 10.1038 70.5698 10.1038C71.7155 10.1038 72.6409 11.0071 72.6849 12.1528ZM83.8194 10.1699C88.6665 10.1699 92.6103 14.1137 92.6103 18.9829V27.7738H88.3801V25.0638H83.0703C83.0042 25.0638 82.9381 25.0858 82.872 25.0858C81.7043 25.0858 80.7569 24.1164 80.7569 22.9487C80.7569 21.8251 81.6382 20.8997 82.7398 20.8336H88.3801V18.9829C88.3801 16.4712 86.3311 14.4222 83.8194 14.4222C81.3077 14.4222 79.2587 16.4712 79.2587 18.9829C79.2587 21.5607 79.2587 23.5436 79.2587 23.5436V27.7518H75.0064V18.9829C75.0064 14.1137 78.9502 10.1699 83.8194 10.1699ZM99.0903 27.7297H94.9482V12.1969C94.9482 11.3376 95.4549 10.5665 96.2701 10.258C97.0853 9.94959 98.0107 10.1919 98.5615 10.8309L104.356 17.4406L110.437 10.8749C111.01 10.258 111.913 10.0377 112.706 10.3682C113.521 10.6767 114.028 11.4478 114.028 12.285V27.6857H109.886V17.5948L105.832 21.9572C105.436 22.3979 104.885 22.6182 104.312 22.6182H104.29C103.695 22.6182 103.144 22.3538 102.748 21.9132L99.0903 17.7491V27.7297ZM133.764 12.285C133.764 12.3071 133.764 12.3071 133.764 12.3071V18.9829C133.764 23.808 129.82 27.7297 124.995 27.7297C120.148 27.7297 116.226 23.808 116.226 18.9829V16.8017V12.285V12.263V12.241C116.226 11.0732 117.151 10.1258 118.319 10.1258C119.487 10.1258 120.434 11.0732 120.434 12.241V12.263V14.2018V14.4222C120.434 14.4222 120.434 16.4051 120.434 18.9829C120.434 21.4725 122.483 23.5215 124.995 23.5215C127.485 23.5215 129.534 21.4725 129.534 18.9829V12.3071C129.534 12.3071 129.534 12.3071 129.534 12.285C129.534 11.1173 130.481 10.1699 131.649 10.1699C132.816 10.1699 133.764 11.1173 133.764 12.285ZM142.951 10.1258H144.229H150.2C151.346 10.1258 152.293 11.0512 152.293 12.2189C152.293 13.3646 151.346 14.29 150.2 14.29H145.728V27.6416H141.475V14.29H136.804C135.637 14.29 134.733 13.3646 134.733 12.2189C134.733 11.0512 135.637 10.1258 136.804 10.1258H142.951ZM158.358 23.4554H170.123V27.7077H153.775V14.312V10.0818H169.352V14.0917H158.336L158.358 16.7796H164.769C165.915 16.8237 166.818 17.7491 166.818 18.8947C166.818 20.0625 165.915 20.9878 164.769 21.0319H158.358V23.4554ZM180.448 10.1699C185.295 10.1699 189.239 14.1137 189.239 18.9829V27.7738H185.009V25.0638H179.699C179.633 25.0638 179.567 25.0858 179.5 25.0858C178.333 25.0858 177.385 24.1164 177.385 22.9487C177.385 21.8251 178.267 20.8997 179.368 20.8336H185.009V18.9829C185.009 16.4712 182.96 14.4222 180.448 14.4222C177.936 14.4222 175.887 16.4712 175.887 18.9829C175.887 21.5607 175.887 23.5436 175.887 23.5436V27.7518H171.635V18.9829C171.635 14.1137 175.579 10.1699 180.448 10.1699Z" fill="white"/>
<path d="M36.7207 18.5C36.7207 28.6401 28.5005 36.8603 18.3603 36.8603C8.2202 36.8603 0 28.6401 0 18.5C0 8.35985 8.2202 0.139648 18.3603 0.139648C28.5005 0.139648 36.7207 8.35985 36.7207 18.5ZM3.12939 18.5C3.12939 26.9118 9.94851 33.7309 18.3603 33.7309C26.7722 33.7309 33.5913 26.9118 33.5913 18.5C33.5913 10.0882 26.7722 3.26904 18.3603 3.26904C9.94851 3.26904 3.12939 10.0882 3.12939 18.5Z" fill="white"/>
<path d="M29.5125 24.6979C29.5125 28.0968 26.7572 30.8521 23.3584 30.8521C19.9596 30.8521 17.2043 28.0968 17.2043 24.6979C17.2043 21.2991 19.9596 18.5438 23.3584 18.5438C26.7572 18.5438 29.5125 21.2991 29.5125 24.6979ZM20.5114 24.6979C20.5114 26.2703 21.786 27.545 23.3584 27.545C24.9308 27.545 26.2055 26.2703 26.2055 24.6979C26.2055 23.1256 24.9308 21.8509 23.3584 21.8509C21.786 21.8509 20.5114 23.1256 20.5114 24.6979Z" fill="white"/>
<path d="M17.8843 16.2318C17.8843 15.2929 18.6455 14.5318 19.5844 14.5318H27.0645C28.0034 14.5318 28.7645 15.2929 28.7645 16.2318C28.7645 17.1707 28.0034 17.9318 27.0645 17.9318H19.5844C18.6455 17.9318 17.8843 17.1707 17.8843 16.2318Z" fill="white"/>
<path d="M23.4073 10.2194L19.7664 13.8602C19.1025 14.5241 18.0261 14.5241 17.3622 13.8602C16.6983 13.1963 16.6983 12.1199 17.3622 11.456L22.152 6.66621C22.2274 6.59077 22.3082 6.5239 22.3931 6.46561C23.0592 5.96266 24.011 6.01468 24.618 6.62168L29.4078 11.4114C30.0717 12.0754 30.0717 13.1518 29.4078 13.8157C28.7439 14.4796 27.6675 14.4796 27.0036 13.8157L23.4073 10.2194Z" fill="white"/>
<path fill-rule="evenodd" clip-rule="evenodd" d="M15.2114 23.7278C16.7119 22.585 17.6803 20.7795 17.6803 18.7478C17.6803 15.2927 14.8794 12.4917 11.4242 12.4917C7.96905 12.4917 5.16809 15.2927 5.16809 18.7478C5.16809 22.203 7.96905 25.0039 11.4242 25.0039C11.4469 25.0039 11.4696 25.0038 11.4922 25.0036V27.384L15.2114 23.7278ZM11.4242 21.6421C9.82576 21.6421 8.52997 20.3463 8.52997 18.7478C8.52997 17.1494 9.82576 15.8536 11.4242 15.8536C13.0227 15.8536 14.3184 17.1494 14.3184 18.7478C14.3184 20.3463 13.0227 21.6421 11.4242 21.6421Z" fill="white"/>
</svg>
