<svg width="485" height="804" viewBox="0 0 485 804" fill="none" xmlns="http://www.w3.org/2000/svg">
<g filter="url(#filter0_d_817_866)">
<path d="M362 401.5C362 557.52 235.52 684 79.5 684C-76.5204 684 -203 557.52 -203 401.5C-203 245.479 -76.5204 119 79.5 119C235.52 119 362 245.479 362 401.5ZM-154.85 401.5C-154.85 530.928 -49.9279 635.85 79.5 635.85C208.928 635.85 313.85 530.928 313.85 401.5C313.85 272.072 208.928 167.15 79.5 167.15C-49.9279 167.15 -154.85 272.072 -154.85 401.5Z" fill="#CB1518" fill-opacity="0.07"/>
<path d="M251.053 496.853C251.053 549.149 208.659 591.543 156.364 591.543C104.068 591.543 61.6738 549.149 61.6738 496.853C61.6738 444.557 104.068 402.163 156.364 402.163C208.659 402.163 251.053 444.557 251.053 496.853ZM112.558 496.853C112.558 521.046 132.17 540.659 156.364 540.659C180.557 540.659 200.17 521.046 200.17 496.853C200.17 472.66 180.557 453.047 156.364 453.047C132.17 453.047 112.558 472.66 112.558 496.853Z" fill="#CB1518" fill-opacity="0.07"/>
<rect x="72.166" y="340.437" width="167.407" height="52.3148" rx="26.1574" fill="#CB1518" fill-opacity="0.07"/>
<path d="M141.648 216.233C151.891 208.594 166.455 209.425 175.757 218.727L249.454 292.424C259.669 302.639 259.669 319.201 249.454 329.416C239.239 339.631 222.677 339.631 212.462 329.416L157.121 274.075L101.099 330.098C90.8835 340.313 74.3216 340.313 64.1065 330.098C53.8917 319.883 53.8915 303.321 64.1065 293.106L137.804 219.408C139.004 218.208 140.293 217.151 141.648 216.233Z" fill="#CB1518" fill-opacity="0.07"/>
<path d="M-27.2129 309.055C25.9494 309.055 69.0456 352.152 69.0459 405.314C69.0459 436.529 54.1876 464.273 31.1582 481.861L-26.1494 538.198V501.567C-26.5035 501.571 -26.8579 501.574 -27.2129 501.574C-80.3754 501.574 -123.473 458.477 -123.473 405.314C-123.472 352.152 -80.3753 309.055 -27.2129 309.055ZM-27.2129 360.783C-51.8071 360.783 -71.7449 380.72 -71.7451 405.314C-71.7451 429.908 -51.8073 449.846 -27.2129 449.846C-2.61856 449.846 17.3193 429.908 17.3193 405.314C17.3191 380.72 -2.61872 360.783 -27.2129 360.783Z" fill="#CB1518" fill-opacity="0.07"/>
<path d="M319.905 252.761C308.357 240.329 301.042 236.294 286.881 232.97L284.87 242.137L261.542 242.623C232.779 230.173 220.396 252.545 232.689 270.723C220.909 280.775 216.676 288.43 212.165 304.654C150.737 339 131.774 355.859 127.294 375.178C99.7729 381.503 99.062 389.762 116.105 410.356C102.462 416.994 110.492 426.206 135.422 433.012C146.903 432.291 153.352 430.551 164.892 423.997C162.45 431.687 161.692 435.268 161.26 440.549C151.62 445.302 147.129 449.018 140.492 457.345C110.916 532.528 196.28 572.879 219.665 508.882L223.484 509.72L208.153 550.396C208.565 577.71 284.346 598.366 288.621 568.053C328.775 516.47 340.406 474.195 351.566 387.023C351.566 387.023 358.15 395.941 411.597 365.231C465.045 334.521 457.207 260.021 413.129 249.996C397.714 243.267 386.054 246.761 358.941 268.266C351.321 277.612 351.209 282.252 359.676 289.246C353.983 291.284 351.395 293.818 347.46 299.911C346.717 294.396 346.13 291.314 344.652 285.949C356.68 257.894 331.656 247.866 319.905 252.761Z" fill="#D91517"/>
<path d="M327.035 279.084C319.884 279.512 301.494 283.219 293.25 276.409C290.655 280.805 266.542 271.27 264.098 269.264C254.889 261.71 240.958 286.213 250.198 303.627C259.438 321.04 312.13 330.615 326.054 315.452C339.979 300.29 334.186 278.655 327.035 279.084Z" fill="url(#paint0_radial_817_866)"/>
<path d="M322.659 281.559C327.195 280.456 326.144 283.361 325.726 283.983C325.307 284.605 322.637 286.963 321.682 286.502C320.728 286.041 319.47 285.533 318.069 285.698C299.172 286.498 288.507 284.824 269.382 278.057C266.664 276.186 264.814 276.791 264.107 277.038C263.399 277.284 261.287 275.322 260.547 273.199C259.808 271.076 261.343 270.191 263.507 271.216C286.808 280.88 299.564 283.182 322.659 281.559Z" fill="url(#paint1_linear_817_866)"/>
<path d="M306.72 269.6C306.044 272.216 302.122 274.321 296.469 275.71C292.508 272.507 289.715 270.445 289.394 267.7C289.072 264.955 291.614 263.047 298.422 265.825C303.837 265.145 307.396 266.984 306.72 269.6Z" fill="#4F070B"/>
<g filter="url(#filter1_d_817_866)">
<path d="M393.24 285.642C391.741 303.866 397.445 329.933 416.673 331.514C429.875 332.6 442.454 310.651 443.952 292.427C445.451 274.203 433.6 255.477 420.398 254.392C407.196 253.306 394.738 267.417 393.24 285.642Z" fill="#D91517"/>
</g>
<g filter="url(#filter2_dd_817_866)">
<path d="M144.742 504.266C151.064 523.353 167.255 537.766 181.752 532.965C196.248 528.163 203.561 505.966 197.238 486.879C190.916 467.792 174.031 452.197 159.534 456.998C145.038 461.8 138.42 485.179 144.742 504.266Z" fill="url(#paint2_radial_817_866)"/>
</g>
<path d="M254.102 514.295C240.043 517.98 214.588 511.915 216.134 504.869C230.357 511.38 241.253 513.447 254.102 514.295Z" fill="#A31113"/>
<path d="M202.133 321.37C193.257 337.336 173.628 385.06 159.895 441.256L163.225 440.679C175.114 394.649 182.492 368.394 202.133 321.37Z" fill="#A31113"/>
<path d="M216.603 361.643C214.041 373.316 221.428 384.855 233.101 387.416C244.773 389.978 256.313 382.591 258.874 370.918C261.435 359.246 254.049 347.706 242.376 345.145C230.703 342.584 219.164 349.97 216.603 361.643ZM255.272 370.128C253.147 379.811 243.574 385.939 233.891 383.814C224.208 381.689 218.08 372.117 220.205 362.433C222.33 352.75 231.902 346.623 241.586 348.747C251.269 350.872 257.396 360.445 255.272 370.128Z" fill="#FF7A31"/>
<path d="M223.339 370.598C222.481 374.511 224.957 378.379 228.869 379.237C232.782 380.096 236.649 377.62 237.508 373.707C238.367 369.795 235.891 365.927 231.978 365.068C228.066 364.21 224.198 366.686 223.339 370.598ZM233.701 372.872C233.304 374.682 231.515 375.827 229.704 375.43C227.894 375.033 226.749 373.244 227.146 371.434C227.543 369.624 229.333 368.478 231.143 368.875C232.953 369.273 234.098 371.062 233.701 372.872Z" fill="#FF7A31"/>
<rect width="12.8228" height="4.00712" rx="2.00356" transform="matrix(-0.976761 -0.214332 -0.214332 0.976761 239.291 361.833)" fill="#FF7A31"/>
<path d="M236.099 351.366C235.454 350.655 234.373 350.491 233.537 351.026L226.814 355.33C225.882 355.926 225.61 357.166 226.207 358.098C226.803 359.03 228.042 359.301 228.974 358.705L234.024 355.472L237.296 360.584C237.892 361.516 239.131 361.788 240.063 361.191C240.995 360.595 241.266 359.356 240.67 358.424L236.367 351.7C236.288 351.577 236.198 351.466 236.099 351.366Z" fill="#FF7A31"/>
<path d="M247.24 361.116C243.262 360.243 239.33 362.76 238.458 366.737C237.946 369.068 238.601 371.381 240.029 373.074L243.399 378.243L244.001 375.499C244.027 375.505 244.053 375.514 244.079 375.519C248.057 376.392 251.988 373.875 252.861 369.898C253.734 365.921 251.217 361.989 247.24 361.116ZM246.391 364.986C248.231 365.39 249.395 367.209 248.991 369.049C248.588 370.889 246.768 372.053 244.928 371.65C243.088 371.246 241.924 369.427 242.328 367.587C242.731 365.747 244.551 364.582 246.391 364.986Z" fill="#FF7A31"/>
</g>
<defs>
<filter id="filter0_d_817_866" x="-219" y="113.452" width="667.973" height="570.548" filterUnits="userSpaceOnUse" color-interpolation-filters="sRGB">
<feFlood flood-opacity="0" result="BackgroundImageFix"/>
<feColorMatrix in="SourceAlpha" type="matrix" values="0 0 0 0 0 0 0 0 0 0 0 0 0 0 0 0 0 0 127 0" result="hardAlpha"/>
<feOffset dx="-16" dy="-5.54837"/>
<feComposite in2="hardAlpha" operator="out"/>
<feColorMatrix type="matrix" values="0 0 0 0 1 0 0 0 0 1 0 0 0 0 1 0 0 0 1 0"/>
<feBlend mode="normal" in2="BackgroundImageFix" result="effect1_dropShadow_817_866"/>
<feBlend mode="normal" in="SourceGraphic" in2="effect1_dropShadow_817_866" result="shape"/>
</filter>
<filter id="filter1_d_817_866" x="393.012" y="254.333" width="52.1112" height="81.9126" filterUnits="userSpaceOnUse" color-interpolation-filters="sRGB">
<feFlood flood-opacity="0" result="BackgroundImageFix"/>
<feColorMatrix in="SourceAlpha" type="matrix" values="0 0 0 0 0 0 0 0 0 0 0 0 0 0 0 0 0 0 127 0" result="hardAlpha"/>
<feOffset dx="1.04282" dy="4.69267"/>
<feComposite in2="hardAlpha" operator="out"/>
<feColorMatrix type="matrix" values="0 0 0 0 0.611765 0 0 0 0 0.0784314 0 0 0 0 0.0980392 0 0 0 1 0"/>
<feBlend mode="normal" in2="BackgroundImageFix" result="effect1_dropShadow_817_866"/>
<feBlend mode="normal" in="SourceGraphic" in2="effect1_dropShadow_817_866" result="shape"/>
</filter>
<filter id="filter2_dd_817_866" x="142.346" y="455.457" width="60.4974" height="78.4382" filterUnits="userSpaceOnUse" color-interpolation-filters="sRGB">
<feFlood flood-opacity="0" result="BackgroundImageFix"/>
<feColorMatrix in="SourceAlpha" type="matrix" values="0 0 0 0 0 0 0 0 0 0 0 0 0 0 0 0 0 0 127 0" result="hardAlpha"/>
<feOffset dx="3.31773"/>
<feComposite in2="hardAlpha" operator="out"/>
<feColorMatrix type="matrix" values="0 0 0 0 0.639216 0 0 0 0 0.0666667 0 0 0 0 0.0745098 0 0 0 1 0"/>
<feBlend mode="normal" in2="BackgroundImageFix" result="effect1_dropShadow_817_866"/>
<feColorMatrix in="SourceAlpha" type="matrix" values="0 0 0 0 0 0 0 0 0 0 0 0 0 0 0 0 0 0 127 0" result="hardAlpha"/>
<feOffset dx="3.12845" dy="-0.663547"/>
<feComposite in2="hardAlpha" operator="out"/>
<feColorMatrix type="matrix" values="0 0 0 0 0.639216 0 0 0 0 0.0666667 0 0 0 0 0.0745098 0 0 0 1 0"/>
<feBlend mode="normal" in2="effect1_dropShadow_817_866" result="effect2_dropShadow_817_866"/>
<feBlend mode="normal" in="SourceGraphic" in2="effect2_dropShadow_817_866" result="shape"/>
</filter>
<radialGradient id="paint0_radial_817_866" cx="0" cy="0" r="1" gradientUnits="userSpaceOnUse" gradientTransform="translate(291.289 290.655) rotate(97.36) scale(46.584 81.2019)">
<stop stop-color="#D01C1E"/>
<stop offset="0.715495" stop-color="#911118"/>
</radialGradient>
<linearGradient id="paint1_linear_817_866" x1="342.143" y1="286.748" x2="242.891" y2="272.914" gradientUnits="userSpaceOnUse">
<stop offset="0.052154" stop-color="#9E9E9C"/>
<stop offset="0.265591" stop-color="#F3F3F3"/>
<stop offset="0.488471" stop-color="#FBFBFB"/>
<stop offset="0.66837" stop-color="#FBFBFB"/>
<stop offset="0.904057" stop-color="#8D8C8B"/>
</linearGradient>
<radialGradient id="paint2_radial_817_866" cx="0" cy="0" r="1" gradientUnits="userSpaceOnUse" gradientTransform="translate(170.779 494.936) rotate(73.472) scale(48.2247 33.7271)">
<stop offset="0.227783" stop-color="#D91517"/>
<stop offset="1" stop-color="#B11B21"/>
</radialGradient>
</defs>
</svg>
