<svg width="270" height="270" viewBox="0 0 270 270" fill="none" xmlns="http://www.w3.org/2000/svg">
  <path d="M270 135C270 209.558 209.558 270 135 270C60.4416 270 0 209.558 0 135C0 60.4416 60.4416 0 135 0C209.558 0 270 60.4416 270 135ZM23.0098 135C23.0098 196.85 73.1495 246.99 135 246.99C196.85 246.99 246.99 196.85 246.99 135C246.99 73.1495 196.85 23.0098 135 23.0098C73.1495 23.0098 23.0098 73.1495 23.0098 135Z" fill="white"/>
  <path d="M217 180.572C217 205.563 196.741 225.822 171.75 225.822C146.759 225.822 126.5 205.563 126.5 180.572C126.5 155.582 146.759 135.322 171.75 135.322C196.741 135.322 217 155.582 217 180.572ZM150.816 180.572C150.816 192.134 160.189 201.506 171.75 201.506C183.311 201.506 192.684 192.134 192.684 180.572C192.684 169.011 183.311 159.639 171.75 159.639C160.189 159.639 150.816 169.011 150.816 180.572Z" fill="white"/>
  <path d="M131.5 118.322C131.5 111.419 137.096 105.822 144 105.822H199C205.904 105.822 211.5 111.419 211.5 118.322C211.5 125.226 205.904 130.822 199 130.822H144C137.096 130.822 131.5 125.226 131.5 118.322Z" fill="white"/>
  <path d="M172.109 74.1141L145.339 100.884C140.457 105.766 132.543 105.766 127.661 100.884C122.78 96.0029 122.78 88.0883 127.661 83.2068L162.879 47.9886C163.434 47.4339 164.028 46.9422 164.652 46.5136C169.55 42.8155 176.548 43.198 181.012 47.6612L216.23 82.8794C221.111 87.7609 221.111 95.6755 216.23 100.557C211.348 105.439 203.434 105.439 198.552 100.557L172.109 74.1141Z" fill="white"/>
  <path fill-rule="evenodd" clip-rule="evenodd" d="M111.847 173.439C122.879 165.036 130 151.761 130 136.822C130 111.417 109.405 90.8224 84 90.8224C58.5949 90.8224 38 111.417 38 136.822C38 162.227 58.5949 182.822 84 182.822C84.1669 182.822 84.3335 182.822 84.5 182.82V200.322L111.847 173.439ZM84 158.103C72.2469 158.103 62.7192 148.575 62.7192 136.822C62.7192 125.069 72.2469 115.542 84 115.542C95.7531 115.542 105.281 125.069 105.281 136.822C105.281 148.575 95.7531 158.103 84 158.103Z" fill="white"/>
</svg>