<svg width="453" height="65" viewBox="0 0 453 65" fill="none" xmlns="http://www.w3.org/2000/svg">
<path d="M1.58593 62.0965C1.20669 62.0965 0.96535 61.8483 0.96535 61.4553L0.96535 52.6913C0.96535 52.2982 1.20669 52.05 1.58593 52.05H4.51646C6.3851 52.05 7.70211 53.3601 7.70211 55.2426C7.70211 57.1319 6.37131 58.4489 4.50267 58.4489H2.20651L2.20651 61.4553C2.20651 61.8483 1.96518 62.0965 1.58593 62.0965ZM2.20651 57.3456H4.19238C5.61282 57.3456 6.42647 56.5665 6.42647 55.2426C6.42647 53.9255 5.61972 53.1533 4.19238 53.1533H2.20651V57.3456ZM9.54317 62.1241C9.19151 62.1241 8.94328 61.8621 8.94328 61.4828V55.3115C8.94328 54.9529 9.17772 54.7047 9.5087 54.7047C9.83967 54.7047 10.0741 54.9529 10.0741 55.3115V56.001H10.1017C10.3086 55.2563 11.0119 54.7047 11.729 54.7047C11.991 54.7047 12.1772 54.7668 12.2944 54.8771C12.3979 54.9736 12.4461 55.1115 12.4461 55.277C12.4461 55.4632 12.3841 55.6011 12.2599 55.6976C12.1358 55.8011 11.9497 55.8493 11.6876 55.8493C10.6051 55.8493 10.1431 56.6285 10.1431 57.5456V61.4828C10.1431 61.8621 9.89484 62.1241 9.54317 62.1241ZM15.9283 62.1241C13.9424 62.1241 12.6047 60.6968 12.6047 58.4144C12.6047 56.1252 13.9424 54.7047 15.9283 54.7047C17.9072 54.7047 19.2449 56.1252 19.2449 58.4144C19.2449 60.6968 17.9072 62.1241 15.9283 62.1241ZM15.9283 61.0691C17.197 61.0691 18.0245 60.1038 18.0245 58.4144C18.0245 56.7251 17.197 55.7597 15.9283 55.7597C14.6595 55.7597 13.8252 56.7251 13.8252 58.4144C13.8252 60.1038 14.6595 61.0691 15.9283 61.0691ZM23.4166 62.1241C21.4308 62.1241 20.1069 60.6968 20.1069 58.4282C20.1069 56.1734 21.417 54.7047 23.4028 54.7047C24.7543 54.7047 25.9334 55.4701 26.2093 56.463C26.2368 56.5527 26.2506 56.6423 26.2506 56.7182C26.2506 57.0353 26.0507 57.2422 25.7404 57.2422C25.4783 57.2422 25.3335 57.1319 25.1681 56.8216C24.7888 56.1114 24.2441 55.7597 23.4166 55.7597C22.1686 55.7597 21.3273 56.8078 21.3273 58.4144C21.3273 60.0624 22.1824 61.0691 23.4166 61.0691C24.2786 61.0691 24.8026 60.6968 25.1749 60.0072C25.3473 59.6832 25.4783 59.5866 25.7404 59.5866C26.0507 59.5866 26.2575 59.8004 26.2575 60.1107C26.2575 60.2003 26.2368 60.3037 26.2024 60.4141C25.8576 61.407 24.7199 62.1241 23.4166 62.1241ZM30.5395 62.1241C28.4227 62.1241 27.1815 60.7588 27.1815 58.442C27.1815 56.1803 28.4571 54.7047 30.4361 54.7047C32.2703 54.7047 33.5597 56.0769 33.5597 58.0421C33.5597 58.4765 33.3115 58.7385 32.8977 58.7385H28.4158C28.4158 60.1865 29.2087 61.0829 30.4913 61.0829C31.3463 61.0829 31.8703 60.7795 32.4289 59.9659C32.553 59.7935 32.6909 59.7245 32.8771 59.7245C33.1942 59.7245 33.408 59.9314 33.408 60.2486C33.408 60.3451 33.3735 60.4692 33.3184 60.6002C32.8564 61.5725 31.8497 62.1241 30.5395 62.1241ZM28.4227 57.8007H32.3185C32.291 56.5596 31.5256 55.7459 30.4154 55.7459C29.2984 55.7459 28.4985 56.5665 28.4227 57.8007ZM37.2625 62.1241C35.9869 62.1241 34.987 61.5518 34.6423 60.6554C34.6009 60.552 34.5871 60.4623 34.5871 60.3727C34.5871 60.0555 34.8216 59.8762 35.1318 59.8762C35.3456 59.8762 35.518 59.9866 35.6559 60.2348C36.0144 60.8623 36.442 61.145 37.359 61.145C38.2761 61.145 38.8967 60.745 38.8967 60.0762C38.8967 59.559 38.6002 59.2832 37.7935 59.0833L36.6971 58.8074C35.3111 58.4627 34.6423 57.8076 34.6423 56.8009C34.6423 55.5528 35.7386 54.7047 37.359 54.7047C38.5382 54.7047 39.5862 55.3667 39.7724 56.2286C39.7862 56.2975 39.7931 56.3527 39.7931 56.4079C39.7931 56.6906 39.6138 56.8767 39.3242 56.8767C39.0898 56.8767 38.9243 56.8009 38.7933 56.5527C38.483 55.9528 38.021 55.6907 37.2901 55.6907C36.4282 55.6907 35.8283 56.1252 35.8283 56.7388C35.8283 57.2353 36.2144 57.5801 37.0005 57.7731L38.0693 58.0352C39.5656 58.4006 40.1172 58.9247 40.1172 59.9797C40.1172 61.2622 38.9657 62.1241 37.2625 62.1241ZM43.8407 62.1241C42.565 62.1241 41.5652 61.5518 41.2204 60.6554C41.1791 60.552 41.1653 60.4623 41.1653 60.3727C41.1653 60.0555 41.3997 59.8762 41.71 59.8762C41.9238 59.8762 42.0962 59.9866 42.2341 60.2348C42.5926 60.8623 43.0201 61.145 43.9372 61.145C44.8543 61.145 45.4749 60.745 45.4749 60.0762C45.4749 59.559 45.1784 59.2832 44.3716 59.0833L43.2753 58.8074C41.8893 58.4627 41.2204 57.8076 41.2204 56.8009C41.2204 55.5528 42.3168 54.7047 43.9372 54.7047C45.1163 54.7047 46.1644 55.3667 46.3506 56.2286C46.3644 56.2975 46.3713 56.3527 46.3713 56.4079C46.3713 56.6906 46.192 56.8767 45.9024 56.8767C45.6679 56.8767 45.5025 56.8009 45.3714 56.5527C45.0612 55.9528 44.5992 55.6907 43.8683 55.6907C43.0063 55.6907 42.4064 56.1252 42.4064 56.7388C42.4064 57.2353 42.7926 57.5801 43.5787 57.7731L44.6474 58.0352C46.1437 58.4006 46.6954 58.9247 46.6954 59.9797C46.6954 61.2622 45.5438 62.1241 43.8407 62.1241ZM48.5916 53.6221C48.1848 53.6221 47.8469 53.2843 47.8469 52.8774C47.8469 52.4637 48.1848 52.1327 48.5916 52.1327C49.0053 52.1327 49.3432 52.4637 49.3432 52.8774C49.3432 53.2843 49.0053 53.6221 48.5916 53.6221ZM48.5916 62.1241C48.2399 62.1241 47.9917 61.8621 47.9917 61.4828V55.346C47.9917 54.9667 48.2399 54.7047 48.5916 54.7047C48.9432 54.7047 49.1915 54.9667 49.1915 55.346V61.4828C49.1915 61.8621 48.9432 62.1241 48.5916 62.1241ZM51.4118 62.1241C51.0601 62.1241 50.8119 61.8621 50.8119 61.4828V55.3115C50.8119 54.9529 51.0463 54.7047 51.3773 54.7047C51.7083 54.7047 51.9427 54.9529 51.9427 55.3115V55.9735H51.9703C52.3702 55.2012 53.1356 54.7047 54.2458 54.7047C55.8179 54.7047 56.7281 55.7183 56.7281 57.3456V61.4828C56.7281 61.8621 56.4799 62.1241 56.1282 62.1241C55.7765 62.1241 55.5283 61.8621 55.5283 61.4828V57.5594C55.5283 56.401 54.9836 55.7666 53.8803 55.7666C52.7495 55.7666 52.0117 56.5665 52.0117 57.78V61.4828C52.0117 61.8621 51.7634 62.1241 51.4118 62.1241ZM61.1549 64.703C59.9551 64.6892 58.9553 64.2134 58.4519 63.4204C58.3554 63.2687 58.314 63.1308 58.314 62.9722C58.314 62.6688 58.5347 62.4551 58.8519 62.4551C59.0518 62.4551 59.1691 62.524 59.3552 62.7309C59.9689 63.4067 60.4723 63.6687 61.2032 63.6825C62.4857 63.7032 63.2649 62.9653 63.2649 61.8966V60.7657H63.2373C62.796 61.5449 61.941 62.0552 60.9343 62.0552C59.107 62.0552 57.9072 60.614 57.9072 58.3868C57.9072 56.1389 59.107 54.7047 60.9618 54.7047C61.9755 54.7047 62.7684 55.2012 63.2442 56.0079H63.2649V55.3253C63.2649 54.9529 63.52 54.7047 63.8648 54.7047C64.2096 54.7047 64.4647 54.9529 64.4647 55.3253V61.8552C64.4647 63.5652 63.1959 64.7237 61.1549 64.703ZM61.1756 61.0002C62.4237 61.0002 63.2649 59.9659 63.2649 58.3868C63.2649 56.8078 62.4237 55.7597 61.1756 55.7597C59.9413 55.7597 59.1346 56.7802 59.1346 58.3868C59.1346 59.9935 59.9413 61.0002 61.1756 61.0002Z" fill="#3E3E3E"/>
<path d="M127.586 62.0965C127.207 62.0965 126.965 61.8483 126.965 61.4553V52.6913C126.965 52.2982 127.207 52.05 127.586 52.05H130.516C132.385 52.05 133.702 53.3601 133.702 55.2426C133.702 57.1319 132.371 58.4489 130.503 58.4489H128.207V61.4553C128.207 61.8483 127.965 62.0965 127.586 62.0965ZM128.207 57.3456H130.192C131.613 57.3456 132.426 56.5665 132.426 55.2426C132.426 53.9255 131.62 53.1533 130.192 53.1533H128.207V57.3456ZM135.543 62.1241C135.192 62.1241 134.943 61.8621 134.943 61.4828V55.3115C134.943 54.9529 135.178 54.7047 135.509 54.7047C135.84 54.7047 136.074 54.9529 136.074 55.3115V56.001H136.102C136.309 55.2563 137.012 54.7047 137.729 54.7047C137.991 54.7047 138.177 54.7668 138.294 54.8771C138.398 54.9736 138.446 55.1115 138.446 55.277C138.446 55.4632 138.384 55.6011 138.26 55.6976C138.136 55.8011 137.95 55.8493 137.688 55.8493C136.605 55.8493 136.143 56.6285 136.143 57.5456V61.4828C136.143 61.8621 135.895 62.1241 135.543 62.1241ZM141.963 62.1241C139.846 62.1241 138.605 60.7588 138.605 58.442C138.605 56.1803 139.88 54.7047 141.859 54.7047C143.693 54.7047 144.983 56.0769 144.983 58.0421C144.983 58.4765 144.735 58.7385 144.321 58.7385H139.839C139.839 60.1865 140.632 61.0829 141.914 61.0829C142.77 61.0829 143.294 60.7795 143.852 59.9659C143.976 59.7935 144.114 59.7245 144.3 59.7245C144.617 59.7245 144.831 59.9314 144.831 60.2486C144.831 60.3451 144.797 60.4692 144.742 60.6002C144.28 61.5725 143.273 62.1241 141.963 62.1241ZM139.846 57.8007H143.742C143.714 56.5596 142.949 55.7459 141.839 55.7459C140.722 55.7459 139.922 56.5665 139.846 57.8007ZM146.796 64.5306C146.445 64.5306 146.196 64.2686 146.196 63.8893V55.3115C146.196 54.9529 146.431 54.7047 146.769 54.7047C147.1 54.7047 147.334 54.9529 147.334 55.3115V56.0424H147.362C147.803 55.2357 148.637 54.7047 149.679 54.7047C151.506 54.7047 152.747 56.1665 152.747 58.4144C152.747 60.6623 151.513 62.1241 149.706 62.1241C148.679 62.1241 147.851 61.6208 147.424 60.8347H147.396V63.8893C147.396 64.2686 147.148 64.5306 146.796 64.5306ZM149.444 61.0691C150.72 61.0691 151.52 60.0417 151.52 58.4144C151.52 56.794 150.72 55.7597 149.444 55.7597C148.217 55.7597 147.389 56.8216 147.389 58.4144C147.389 60.0141 148.217 61.0691 149.444 61.0691ZM156.05 62.1241C154.623 62.1241 153.664 61.2622 153.664 59.9728C153.664 58.7454 154.609 57.9731 156.264 57.8766L158.325 57.7594V57.1595C158.325 56.2837 157.746 55.7597 156.753 55.7597C155.974 55.7597 155.443 56.0424 155.043 56.7526C154.933 56.9526 154.774 57.0422 154.547 57.0422C154.236 57.0422 154.016 56.8285 154.016 56.5044C154.016 56.3527 154.064 56.1803 154.161 56.0079C154.567 55.2219 155.616 54.7047 156.781 54.7047C158.463 54.7047 159.525 55.6149 159.525 57.0422V61.5173C159.525 61.8759 159.291 62.1241 158.96 62.1241C158.622 62.1241 158.387 61.8759 158.387 61.5173V60.7657H158.36C157.932 61.5863 157.015 62.1241 156.05 62.1241ZM156.319 61.1036C157.45 61.1036 158.325 60.3106 158.325 59.2763V58.6902L156.402 58.8074C155.436 58.8695 154.885 59.297 154.885 59.9728C154.885 60.6554 155.457 61.1036 156.319 61.1036ZM161.649 62.1241C161.297 62.1241 161.049 61.8621 161.049 61.4828V55.3115C161.049 54.9529 161.284 54.7047 161.615 54.7047C161.945 54.7047 162.18 54.9529 162.18 55.3115V56.001H162.208C162.414 55.2563 163.118 54.7047 163.835 54.7047C164.097 54.7047 164.283 54.7668 164.4 54.8771C164.504 54.9736 164.552 55.1115 164.552 55.277C164.552 55.4632 164.49 55.6011 164.366 55.6976C164.242 55.8011 164.055 55.8493 163.793 55.8493C162.711 55.8493 162.249 56.6285 162.249 57.5456V61.4828C162.249 61.8621 162.001 62.1241 161.649 62.1241ZM166.069 53.6221C165.662 53.6221 165.324 53.2843 165.324 52.8774C165.324 52.4637 165.662 52.1327 166.069 52.1327C166.483 52.1327 166.821 52.4637 166.821 52.8774C166.821 53.2843 166.483 53.6221 166.069 53.6221ZM166.069 62.1241C165.717 62.1241 165.469 61.8621 165.469 61.4828V55.346C165.469 54.9667 165.717 54.7047 166.069 54.7047C166.421 54.7047 166.669 54.9667 166.669 55.346V61.4828C166.669 61.8621 166.421 62.1241 166.069 62.1241ZM168.889 62.1241C168.537 62.1241 168.289 61.8621 168.289 61.4828V55.3115C168.289 54.9529 168.524 54.7047 168.855 54.7047C169.186 54.7047 169.42 54.9529 169.42 55.3115V55.9735H169.448C169.848 55.2012 170.613 54.7047 171.723 54.7047C173.295 54.7047 174.205 55.7183 174.205 57.3456V61.4828C174.205 61.8621 173.957 62.1241 173.606 62.1241C173.254 62.1241 173.006 61.8621 173.006 61.4828V57.5594C173.006 56.401 172.461 55.7666 171.358 55.7666C170.227 55.7666 169.489 56.5665 169.489 57.78V61.4828C169.489 61.8621 169.241 62.1241 168.889 62.1241ZM178.632 64.703C177.432 64.6892 176.433 64.2134 175.929 63.4204C175.833 63.2687 175.791 63.1308 175.791 62.9722C175.791 62.6688 176.012 62.4551 176.329 62.4551C176.529 62.4551 176.646 62.524 176.833 62.7309C177.446 63.4067 177.95 63.6687 178.681 63.6825C179.963 63.7032 180.742 62.9653 180.742 61.8966V60.7657H180.715C180.273 61.5449 179.418 62.0552 178.412 62.0552C176.584 62.0552 175.385 60.614 175.385 58.3868C175.385 56.1389 176.584 54.7047 178.439 54.7047C179.453 54.7047 180.246 55.2012 180.722 56.0079H180.742V55.3253C180.742 54.9529 180.997 54.7047 181.342 54.7047C181.687 54.7047 181.942 54.9529 181.942 55.3253V61.8552C181.942 63.5652 180.673 64.7237 178.632 64.703ZM178.653 61.0002C179.901 61.0002 180.742 59.9659 180.742 58.3868C180.742 56.8078 179.901 55.7597 178.653 55.7597C177.419 55.7597 176.612 56.7802 176.612 58.3868C176.612 59.9935 177.419 61.0002 178.653 61.0002Z" fill="#3E3E3E"/>
<path d="M239 62.0965C238.641 62.0965 238.379 61.869 238.379 61.5518C238.379 61.4622 238.4 61.3587 238.455 61.207L241.655 52.5534C241.806 52.1465 242.061 51.9535 242.468 51.9535C242.847 51.9535 243.096 52.1396 243.247 52.5465L246.454 61.207C246.509 61.3587 246.53 61.4622 246.53 61.5518C246.53 61.869 246.268 62.0965 245.909 62.0965C245.599 62.0965 245.419 61.9517 245.302 61.6208L244.42 59.1522H240.482L239.607 61.6208C239.489 61.9517 239.31 62.0965 239 62.0965ZM240.841 58.0972H244.068L242.475 53.5601H242.434L240.841 58.0972ZM248.35 62.1241C247.998 62.1241 247.75 61.8621 247.75 61.4828V52.5672C247.75 52.1879 247.998 51.9259 248.35 51.9259C248.702 51.9259 248.95 52.1879 248.95 52.5672V61.4828C248.95 61.8621 248.702 62.1241 248.35 62.1241ZM251.17 62.1241C250.805 62.1241 250.57 61.8483 250.57 61.4828V55.3115C250.57 54.9529 250.805 54.7047 251.136 54.7047C251.467 54.7047 251.701 54.9529 251.701 55.3115V55.9735H251.729C252.067 55.215 252.797 54.7047 253.763 54.7047C254.742 54.7047 255.466 55.2012 255.776 56.07H255.804C256.204 55.215 257.045 54.7047 258.052 54.7047C259.472 54.7047 260.389 55.6287 260.389 57.0491V61.4828C260.389 61.8483 260.155 62.1241 259.789 62.1241C259.424 62.1241 259.189 61.8483 259.189 61.4828V57.3249C259.189 56.3458 258.645 55.7666 257.7 55.7666C256.748 55.7666 256.08 56.4699 256.08 57.4422V61.4828C256.08 61.8483 255.845 62.1241 255.48 62.1241C255.114 62.1241 254.88 61.8483 254.88 61.4828V57.1939C254.88 56.332 254.301 55.7666 253.411 55.7666C252.46 55.7666 251.77 56.5113 251.77 57.5042V61.4828C251.77 61.8483 251.536 62.1241 251.17 62.1241ZM264.892 62.1241C262.906 62.1241 261.568 60.6968 261.568 58.4144C261.568 56.1252 262.906 54.7047 264.892 54.7047C266.871 54.7047 268.209 56.1252 268.209 58.4144C268.209 60.6968 266.871 62.1241 264.892 62.1241ZM264.892 61.0691C266.161 61.0691 266.988 60.1038 266.988 58.4144C266.988 56.7251 266.161 55.7597 264.892 55.7597C263.623 55.7597 262.789 56.7251 262.789 58.4144C262.789 60.1038 263.623 61.0691 264.892 61.0691ZM271.911 62.1241C270.636 62.1241 269.636 61.5518 269.291 60.6554C269.25 60.552 269.236 60.4623 269.236 60.3727C269.236 60.0555 269.47 59.8762 269.781 59.8762C269.994 59.8762 270.167 59.9866 270.305 60.2348C270.663 60.8623 271.091 61.145 272.008 61.145C272.925 61.145 273.546 60.745 273.546 60.0762C273.546 59.559 273.249 59.2832 272.442 59.0833L271.346 58.8074C269.96 58.4627 269.291 57.8076 269.291 56.8009C269.291 55.5528 270.387 54.7047 272.008 54.7047C273.187 54.7047 274.235 55.3667 274.421 56.2286C274.435 56.2975 274.442 56.3527 274.442 56.4079C274.442 56.6906 274.263 56.8767 273.973 56.8767C273.739 56.8767 273.573 56.8009 273.442 56.5527C273.132 55.9528 272.67 55.6907 271.939 55.6907C271.077 55.6907 270.477 56.1252 270.477 56.7388C270.477 57.2353 270.863 57.5801 271.649 57.7731L272.718 58.0352C274.214 58.4006 274.766 58.9247 274.766 59.9797C274.766 61.2622 273.615 62.1241 271.911 62.1241ZM276.386 60.3451V55.8149H275.787C275.442 55.8149 275.249 55.6356 275.249 55.3184C275.249 55.0081 275.442 54.8288 275.787 54.8288H276.386V53.6015C276.386 53.2222 276.635 52.9602 276.986 52.9602C277.338 52.9602 277.586 53.2222 277.586 53.6015V54.8288H278.51C278.855 54.8288 279.048 55.0081 279.048 55.3184C279.048 55.6356 278.855 55.8149 278.51 55.8149H277.586V60.0831C277.586 60.6899 277.8 60.9795 278.4 61.0209L278.503 61.0278C278.896 61.0553 279.076 61.2139 279.076 61.4966C279.076 61.8621 278.869 62.0552 278.2 62.0552H278.124C276.966 62.0552 276.386 61.4897 276.386 60.3451ZM283.964 62C283.585 62 283.344 61.7518 283.344 61.3587V52.6913C283.344 52.2982 283.585 52.05 283.964 52.05H286.688C289.639 52.05 291.384 53.8911 291.384 57.0216C291.384 60.1589 289.646 62 286.688 62H283.964ZM284.585 60.883H286.605C288.86 60.883 290.115 59.5039 290.115 57.0353C290.115 54.5461 288.867 53.167 286.605 53.167H284.585V60.883ZM295.714 62.1241C293.728 62.1241 292.391 60.6968 292.391 58.4144C292.391 56.1252 293.728 54.7047 295.714 54.7047C297.693 54.7047 299.031 56.1252 299.031 58.4144C299.031 60.6968 297.693 62.1241 295.714 62.1241ZM295.714 61.0691C296.983 61.0691 297.81 60.1038 297.81 58.4144C297.81 56.7251 296.983 55.7597 295.714 55.7597C294.445 55.7597 293.611 56.7251 293.611 58.4144C293.611 60.1038 294.445 61.0691 295.714 61.0691ZM300.844 62.1241C300.493 62.1241 300.244 61.8621 300.244 61.4828V55.3115C300.244 54.9529 300.479 54.7047 300.81 54.7047C301.141 54.7047 301.375 54.9529 301.375 55.3115V55.9735H301.403C301.803 55.2012 302.568 54.7047 303.678 54.7047C305.25 54.7047 306.161 55.7183 306.161 57.3456V61.4828C306.161 61.8621 305.912 62.1241 305.561 62.1241C305.209 62.1241 304.961 61.8621 304.961 61.4828V57.5594C304.961 56.401 304.416 55.7666 303.313 55.7666C302.182 55.7666 301.444 56.5665 301.444 57.78V61.4828C301.444 61.8621 301.196 62.1241 300.844 62.1241ZM310.698 62.1241C308.581 62.1241 307.34 60.7588 307.34 58.442C307.34 56.1803 308.615 54.7047 310.594 54.7047C312.428 54.7047 313.718 56.0769 313.718 58.0421C313.718 58.4765 313.47 58.7385 313.056 58.7385H308.574C308.574 60.1865 309.367 61.0829 310.649 61.0829C311.505 61.0829 312.029 60.7795 312.587 59.9659C312.711 59.7935 312.849 59.7245 313.035 59.7245C313.352 59.7245 313.566 59.9314 313.566 60.2486C313.566 60.3451 313.532 60.4692 313.477 60.6002C313.015 61.5725 312.008 62.1241 310.698 62.1241ZM308.581 57.8007H312.477C312.449 56.5596 311.684 55.7459 310.574 55.7459C309.457 55.7459 308.657 56.5665 308.581 57.8007Z" fill="#3E3E3E"/>
<path d="M348.586 59.1241C348.214 59.1241 347.965 58.869 347.965 58.4828V49.6913C347.965 49.2982 348.207 49.05 348.586 49.05H351.696C353.613 49.05 354.868 50.2222 354.868 52.015C354.868 53.401 354.116 54.4766 352.868 54.8697L354.688 58.1174C354.785 58.2898 354.819 58.4139 354.819 58.5518C354.819 58.8759 354.544 59.1241 354.185 59.1241C353.902 59.1241 353.737 59.0207 353.578 58.7242L351.585 55.0628H349.207V58.4828C349.207 58.869 348.958 59.1241 348.586 59.1241ZM349.207 53.9664H351.585C352.861 53.9664 353.585 53.2769 353.585 52.0564C353.585 50.8635 352.813 50.1533 351.53 50.1533H349.207V53.9664ZM359.253 59.1241C357.136 59.1241 355.895 57.7588 355.895 55.442C355.895 53.1803 357.171 51.7047 359.15 51.7047C360.984 51.7047 362.273 53.0769 362.273 55.0421C362.273 55.4765 362.025 55.7385 361.611 55.7385H357.129C357.129 57.1865 357.922 58.0829 359.205 58.0829C360.06 58.0829 360.584 57.7795 361.142 56.9659C361.266 56.7935 361.404 56.7245 361.591 56.7245C361.908 56.7245 362.122 56.9314 362.122 57.2486C362.122 57.3451 362.087 57.4692 362.032 57.6002C361.57 58.5725 360.563 59.1241 359.253 59.1241ZM357.136 54.8007H361.032C361.004 53.5596 360.239 52.7459 359.129 52.7459C358.012 52.7459 357.212 53.5665 357.136 54.8007ZM365.576 59.1241C364.149 59.1241 363.19 58.2622 363.19 56.9728C363.19 55.7454 364.135 54.9731 365.79 54.8766L367.852 54.7594V54.1595C367.852 53.2837 367.272 52.7597 366.279 52.7597C365.5 52.7597 364.969 53.0424 364.569 53.7526C364.459 53.9526 364.3 54.0422 364.073 54.0422C363.763 54.0422 363.542 53.8285 363.542 53.5044C363.542 53.3527 363.59 53.1803 363.687 53.0079C364.094 52.2219 365.142 51.7047 366.307 51.7047C367.989 51.7047 369.051 52.6149 369.051 54.0422V58.5173C369.051 58.8759 368.817 59.1241 368.486 59.1241C368.148 59.1241 367.914 58.8759 367.914 58.5173V57.7657H367.886C367.459 58.5863 366.541 59.1241 365.576 59.1241ZM365.845 58.1036C366.976 58.1036 367.852 57.3106 367.852 56.2763V55.6902L365.928 55.8074C364.962 55.8695 364.411 56.297 364.411 56.9728C364.411 57.6554 364.983 58.1036 365.845 58.1036ZM373.292 59.1241C371.465 59.1241 370.224 57.6623 370.224 55.4144C370.224 53.1665 371.458 51.7047 373.264 51.7047C374.292 51.7047 375.119 52.2081 375.547 52.9941H375.574V49.5672C375.574 49.1879 375.823 48.9259 376.174 48.9259C376.526 48.9259 376.774 49.1879 376.774 49.5672V58.538C376.774 58.8828 376.533 59.1241 376.188 59.1241C375.85 59.1241 375.574 58.8897 375.574 58.538V57.7175H375.554C375.161 58.5725 374.416 59.1241 373.292 59.1241ZM373.52 58.0691C374.754 58.0691 375.581 57.021 375.581 55.4144C375.581 53.8147 374.754 52.7597 373.52 52.7597C372.251 52.7597 371.451 53.794 371.451 55.4144C371.451 57.0417 372.251 58.0691 373.52 58.0691ZM379.098 61.6823C378.519 61.6823 378.195 61.4685 378.195 61.0893C378.195 60.8273 378.374 60.648 378.677 60.648C378.85 60.648 378.898 60.6549 379.084 60.6549C379.539 60.6549 379.974 60.3791 380.256 59.5103L380.422 59.0069L377.953 52.5735C377.912 52.4563 377.891 52.346 377.891 52.2563C377.891 51.9254 378.146 51.7047 378.491 51.7047C378.774 51.7047 378.953 51.8288 379.063 52.146L381.042 57.8002H381.063L383.049 52.146C383.159 51.8288 383.318 51.7047 383.614 51.7047C383.959 51.7047 384.2 51.9323 384.2 52.2563C384.2 52.346 384.18 52.4563 384.138 52.5735L381.491 59.5034C380.87 61.1514 380.284 61.6823 379.098 61.6823ZM391.482 59.0965C391.103 59.0965 390.861 58.8483 390.861 58.4553V50.167H388.214C387.862 50.167 387.621 49.9395 387.621 49.6085C387.621 49.2775 387.862 49.05 388.214 49.05H394.75C395.102 49.05 395.343 49.2775 395.343 49.6085C395.343 49.9395 395.102 50.167 394.75 50.167H392.103V58.4553C392.103 58.8483 391.861 59.0965 391.482 59.0965ZM397.474 59.1241C395.488 59.1241 394.15 57.6968 394.15 55.4144C394.15 53.1252 395.488 51.7047 397.474 51.7047C399.453 51.7047 400.791 53.1252 400.791 55.4144C400.791 57.6968 399.453 59.1241 397.474 59.1241ZM397.474 58.0691C398.743 58.0691 399.57 57.1038 399.57 55.4144C399.57 53.7251 398.743 52.7597 397.474 52.7597C396.205 52.7597 395.371 53.7251 395.371 55.4144C395.371 57.1038 396.205 58.0691 397.474 58.0691ZM405.707 59.0965C405.328 59.0965 405.086 58.8483 405.086 58.4553V49.6913C405.086 49.2982 405.328 49.05 405.707 49.05H408.638C410.506 49.05 411.823 50.3601 411.823 52.2426C411.823 54.1319 410.492 55.4489 408.624 55.4489H406.328V58.4553C406.328 58.8483 406.086 59.0965 405.707 59.0965ZM406.328 54.3456H408.314C409.734 54.3456 410.548 53.5665 410.548 52.2426C410.548 50.9255 409.741 50.1533 408.314 50.1533H406.328V54.3456ZM413.726 50.6221C413.32 50.6221 412.982 50.2843 412.982 49.8774C412.982 49.4637 413.32 49.1327 413.726 49.1327C414.14 49.1327 414.478 49.4637 414.478 49.8774C414.478 50.2843 414.14 50.6221 413.726 50.6221ZM413.726 59.1241C413.375 59.1241 413.126 58.8621 413.126 58.4828V52.346C413.126 51.9667 413.375 51.7047 413.726 51.7047C414.078 51.7047 414.326 51.9667 414.326 52.346V58.4828C414.326 58.8621 414.078 59.1241 413.726 59.1241ZM418.905 59.1241C416.919 59.1241 415.595 57.6968 415.595 55.4282C415.595 53.1734 416.905 51.7047 418.891 51.7047C420.242 51.7047 421.422 52.4701 421.697 53.463C421.725 53.5527 421.739 53.6423 421.739 53.7182C421.739 54.0353 421.539 54.2422 421.229 54.2422C420.966 54.2422 420.822 54.1319 420.656 53.8216C420.277 53.1114 419.732 52.7597 418.905 52.7597C417.657 52.7597 416.815 53.8078 416.815 55.4144C416.815 57.0624 417.671 58.0691 418.905 58.0691C419.767 58.0691 420.291 57.6968 420.663 57.0072C420.835 56.6832 420.966 56.5866 421.229 56.5866C421.539 56.5866 421.746 56.8004 421.746 57.1107C421.746 57.2003 421.725 57.3037 421.691 57.4141C421.346 58.407 420.208 59.1241 418.905 59.1241ZM423.683 59.1241C423.332 59.1241 423.083 58.8621 423.083 58.4828V49.5672C423.083 49.1879 423.332 48.9259 423.683 48.9259C424.035 48.9259 424.283 49.1879 424.283 49.5672V55.0145L427.49 51.9047C427.634 51.7599 427.752 51.7047 427.924 51.7047C428.207 51.7047 428.434 51.9323 428.434 52.2012C428.434 52.3667 428.386 52.4701 428.241 52.608L425.8 54.9248L428.496 58.207C428.613 58.3518 428.648 58.4622 428.648 58.6139C428.648 58.9035 428.407 59.1241 428.096 59.1241C427.91 59.1241 427.786 59.069 427.648 58.9035L424.952 55.6626L424.283 56.297V58.4828C424.283 58.8621 424.035 59.1241 423.683 59.1241ZM430.006 55.5247C429.668 55.5247 429.413 55.3041 429.413 54.9662C429.413 54.6283 429.668 54.4077 430.006 54.4077H433.551C433.888 54.4077 434.144 54.6283 434.144 54.9662C434.144 55.3041 433.888 55.5247 433.551 55.5247H430.006ZM439.722 59.1655C437.253 59.1655 435.771 57.6347 435.771 55.5109V49.5947C435.771 49.2017 436.012 48.9535 436.391 48.9535C436.771 48.9535 437.012 49.2017 437.012 49.5947V55.4282C437.012 56.9314 437.998 58.0209 439.722 58.0209C441.446 58.0209 442.432 56.9314 442.432 55.4282V49.5947C442.432 49.2017 442.673 48.9535 443.052 48.9535C443.432 48.9535 443.673 49.2017 443.673 49.5947V55.5109C443.673 57.6347 442.19 59.1655 439.722 59.1655ZM446.017 61.5306C445.666 61.5306 445.417 61.2686 445.417 60.8893V52.3115C445.417 51.9529 445.652 51.7047 445.99 51.7047C446.321 51.7047 446.555 51.9529 446.555 52.3115V53.0424H446.583C447.024 52.2357 447.858 51.7047 448.9 51.7047C450.727 51.7047 451.968 53.1665 451.968 55.4144C451.968 57.6623 450.734 59.1241 448.927 59.1241C447.9 59.1241 447.072 58.6208 446.645 57.8347H446.617V60.8893C446.617 61.2686 446.369 61.5306 446.017 61.5306ZM448.665 58.0691C449.941 58.0691 450.741 57.0417 450.741 55.4144C450.741 53.794 449.941 52.7597 448.665 52.7597C447.438 52.7597 446.61 53.8216 446.61 55.4144C446.61 57.0141 447.438 58.0691 448.665 58.0691Z" fill="#3E3E3E"/>
<circle cx="32.9161" cy="12.9161" r="12.0253" fill="#D91517" stroke="#D91517" stroke-width="1.78153"/>
<circle opacity="0.25" cx="154.951" cy="12.9161" r="12.0253" stroke="#D91517" stroke-width="1.78153"/>
<circle opacity="0.25" cx="277.432" cy="12.9161" r="12.0253" stroke="#D91517" stroke-width="1.78153"/>
<circle opacity="0.25" cx="400.084" cy="12.9161" r="12.0253" stroke="#D91517" stroke-width="1.78153"/>
<line x1="48.5039" y1="12.0253" x2="138.917" y2="12.0253" stroke="#D91517" stroke-width="1.78153"/>
<line opacity="0.25" x1="170.984" y1="12.0253" x2="261.397" y2="12.0253" stroke="#D91517" stroke-width="1.78153"/>
<line opacity="0.25" x1="293.637" y1="12.0253" x2="384.049" y2="12.0253" stroke="#D91517" stroke-width="1.78153"/>
<path d="M28.0898 12.8868L31.4827 16.2797L38.2677 9.4939" stroke="white" stroke-width="1.59942" stroke-linecap="round" stroke-linejoin="round"/>
</svg>
