<svg width="494" height="565" viewBox="0 0 494 565" fill="none" xmlns="http://www.w3.org/2000/svg">
<path d="M747 282.5C747 438.52 620.52 565 464.5 565C308.48 565 182 438.52 182 282.5C182 126.48 308.48 0 464.5 0C620.52 0 747 126.48 747 282.5ZM230.15 282.5C230.15 411.928 335.072 516.85 464.5 516.85C593.928 516.85 698.85 411.928 698.85 282.5C698.85 153.072 593.928 48.1501 464.5 48.1501C335.072 48.1501 230.15 153.072 230.15 282.5Z" fill="#CB1518" fill-opacity="0.07"/>
<path d="M636.053 377.853C636.053 430.149 593.659 472.543 541.364 472.543C489.068 472.543 446.674 430.149 446.674 377.853C446.674 325.558 489.068 283.163 541.364 283.163C593.659 283.163 636.053 325.558 636.053 377.853ZM497.558 377.853C497.558 402.047 517.17 421.659 541.364 421.659C565.557 421.659 585.17 402.047 585.17 377.853C585.17 353.66 565.557 334.047 541.364 334.047C517.17 334.047 497.558 353.66 497.558 377.853Z" fill="#CB1518" fill-opacity="0.07"/>
<rect x="457.166" y="221.437" width="167.407" height="52.3148" rx="26.1574" fill="#CB1518" fill-opacity="0.07"/>
<path d="M526.654 97.2285C536.897 89.5945 551.457 90.4266 560.757 99.7266L634.454 173.424C644.669 183.639 644.669 200.201 634.454 210.416C624.239 220.631 607.677 220.631 597.462 210.416L542.121 155.075L486.099 211.099C475.884 221.314 459.322 221.314 449.107 211.099C438.892 200.884 438.892 184.322 449.107 174.106L522.804 100.409C524.006 99.2071 525.297 98.1477 526.654 97.2285Z" fill="#CB1518" fill-opacity="0.07"/>
<path d="M357.787 190.055C410.949 190.055 454.046 233.152 454.046 286.314C454.046 317.529 439.188 345.273 416.158 362.861L358.851 419.198V382.567C358.497 382.571 358.142 382.574 357.787 382.574C304.625 382.574 261.527 339.477 261.527 286.314C261.528 233.152 304.625 190.055 357.787 190.055ZM357.787 241.783C333.193 241.783 313.255 261.72 313.255 286.314C313.255 310.909 333.193 330.846 357.787 330.846C382.381 330.846 402.319 310.909 402.319 286.314C402.319 261.72 382.381 241.783 357.787 241.783Z" fill="#CB1518" fill-opacity="0.07"/>
<g filter="url(#filter0_d_1685_750)">
<path d="M140.118 116.761C151.667 104.329 158.981 100.294 173.142 96.9698L175.154 106.137L198.481 106.623C227.244 94.173 239.627 116.545 227.334 134.723C239.114 144.775 243.347 152.43 247.859 168.654C309.287 203 328.249 219.859 332.729 239.178C360.251 245.503 360.961 253.762 343.918 274.356C357.561 280.994 349.532 290.206 324.601 297.012C313.121 296.291 306.671 294.551 295.132 287.998C297.574 295.687 298.332 299.268 298.764 304.549C308.403 309.302 312.894 313.018 319.531 321.345C349.107 396.528 263.743 436.879 240.359 372.882L236.539 373.72L251.87 414.396C251.458 441.71 175.678 462.366 171.402 432.053C131.248 380.47 119.618 338.195 108.458 251.023C108.458 251.023 101.874 259.941 48.4261 229.231C-5.02146 198.521 2.8167 124.022 46.8947 113.996C62.3092 107.267 73.9699 110.761 101.082 132.266C108.702 141.612 108.815 146.252 100.348 153.246C106.04 155.284 108.629 157.818 112.564 163.911C113.307 158.396 113.894 155.314 115.372 149.949C103.344 121.894 128.368 111.866 140.118 116.761Z" fill="#D91517"/>
<path d="M132.989 143.084C140.14 143.512 158.529 147.219 166.774 140.409C169.369 144.805 193.481 135.27 195.926 133.265C205.134 125.71 219.065 150.213 209.825 167.627C200.585 185.041 147.894 194.615 133.969 179.453C120.044 164.29 125.837 142.655 132.989 143.084Z" fill="url(#paint0_radial_1685_750)"/>
<path d="M137.365 145.56C132.828 144.456 133.88 147.361 134.298 147.983C134.716 148.605 137.387 150.963 138.341 150.502C139.295 150.041 140.553 149.533 141.954 149.698C160.851 150.498 171.516 148.824 190.642 142.057C193.36 140.186 195.209 140.791 195.917 141.038C196.624 141.284 198.736 139.322 199.476 137.199C200.216 135.076 198.681 134.192 196.517 135.216C173.216 144.88 160.459 147.182 137.365 145.56Z" fill="url(#paint1_linear_1685_750)"/>
<path d="M153.303 133.6C153.979 136.216 157.902 138.321 163.554 139.711C167.515 136.507 170.309 134.445 170.63 131.7C170.951 128.955 168.409 127.047 161.602 129.825C156.186 129.145 152.628 130.984 153.303 133.6Z" fill="#4F070B"/>
<g filter="url(#filter1_d_1685_750)">
<path d="M66.7837 149.642C68.2822 167.866 62.578 193.934 43.3507 195.514C30.1488 196.6 17.5696 174.652 16.0712 156.427C14.5728 138.203 26.4236 119.477 39.6254 118.392C52.8273 117.307 65.2853 131.417 66.7837 149.642Z" fill="#D91517"/>
</g>
<g filter="url(#filter2_dd_1685_750)">
<path d="M315.281 368.266C308.959 387.353 292.768 401.767 278.272 396.965C263.775 392.163 256.463 369.966 262.785 350.879C269.107 331.792 285.993 316.197 300.489 320.998C314.986 325.8 321.604 349.179 315.281 368.266Z" fill="url(#paint2_radial_1685_750)"/>
</g>
<path d="M205.922 378.295C219.981 381.98 245.436 375.916 243.889 368.869C229.667 375.38 218.77 377.447 205.922 378.295Z" fill="#A31113"/>
<path d="M257.89 185.37C266.766 201.336 286.396 249.06 300.128 305.257L296.798 304.679C284.909 258.649 277.531 232.394 257.89 185.37Z" fill="#A31113"/>
<path d="M243.421 225.643C245.982 237.316 238.596 248.855 226.923 251.416C215.25 253.978 203.711 246.591 201.15 234.919C198.588 223.246 205.974 211.707 217.647 209.145C229.32 206.584 240.859 213.97 243.421 225.643ZM204.752 234.128C206.877 243.811 216.449 249.939 226.132 247.814C235.816 245.689 241.943 236.117 239.818 226.433C237.693 216.75 228.121 210.623 218.438 212.748C208.754 214.872 202.627 224.445 204.752 234.128Z" fill="#FF7A31"/>
<path d="M236.686 234.598C237.545 238.511 235.069 242.379 231.156 243.237C227.244 244.096 223.376 241.62 222.517 237.708C221.659 233.795 224.135 229.927 228.047 229.069C231.96 228.21 235.828 230.686 236.686 234.598ZM226.324 236.872C226.722 238.682 228.511 239.828 230.321 239.43C232.131 239.033 233.276 237.244 232.879 235.434C232.482 233.624 230.693 232.478 228.883 232.876C227.073 233.273 225.927 235.062 226.324 236.872Z" fill="#FF7A31"/>
<rect x="220.732" y="225.833" width="12.8228" height="4.00712" rx="2.00356" transform="rotate(-12.3763 220.732 225.833)" fill="#FF7A31"/>
<path d="M223.925 215.366C224.57 214.656 225.651 214.492 226.486 215.026L233.21 219.33C234.142 219.926 234.414 221.166 233.818 222.098C233.221 223.03 231.981 223.302 231.05 222.705L226 219.472L222.729 224.584C222.132 225.516 220.892 225.788 219.96 225.192C219.029 224.595 218.757 223.356 219.353 222.424L223.658 215.7C223.736 215.577 223.826 215.466 223.925 215.366Z" fill="#FF7A31"/>
<path d="M212.782 225.116C216.759 224.244 220.691 226.76 221.564 230.738C222.075 233.068 221.421 235.381 219.993 237.074L216.623 242.243L216.021 239.499C215.995 239.506 215.969 239.514 215.942 239.52C211.965 240.392 208.033 237.876 207.16 233.898C206.288 229.921 208.804 225.989 212.782 225.116ZM213.631 228.986C211.791 229.39 210.626 231.209 211.03 233.049C211.434 234.889 213.253 236.054 215.093 235.65C216.933 235.246 218.098 233.427 217.694 231.587C217.29 229.747 215.471 228.583 213.631 228.986Z" fill="#FF7A31"/>
</g>
<defs>
<filter id="filter0_d_1685_750" x="11.0508" y="91.4215" width="352.916" height="355.629" filterUnits="userSpaceOnUse" color-interpolation-filters="sRGB">
<feFlood flood-opacity="0" result="BackgroundImageFix"/>
<feColorMatrix in="SourceAlpha" type="matrix" values="0 0 0 0 0 0 0 0 0 0 0 0 0 0 0 0 0 0 127 0" result="hardAlpha"/>
<feOffset dx="8.63079" dy="-5.54837"/>
<feComposite in2="hardAlpha" operator="out"/>
<feColorMatrix type="matrix" values="0 0 0 0 1 0 0 0 0 1 0 0 0 0 1 0 0 0 1 0"/>
<feBlend mode="normal" in2="BackgroundImageFix" result="effect1_dropShadow_1685_750"/>
<feBlend mode="normal" in="SourceGraphic" in2="effect1_dropShadow_1685_750" result="shape"/>
</filter>
<filter id="filter1_d_1685_750" x="15.9434" y="118.333" width="52.1112" height="81.9126" filterUnits="userSpaceOnUse" color-interpolation-filters="sRGB">
<feFlood flood-opacity="0" result="BackgroundImageFix"/>
<feColorMatrix in="SourceAlpha" type="matrix" values="0 0 0 0 0 0 0 0 0 0 0 0 0 0 0 0 0 0 127 0" result="hardAlpha"/>
<feOffset dx="1.04282" dy="4.69267"/>
<feComposite in2="hardAlpha" operator="out"/>
<feColorMatrix type="matrix" values="0 0 0 0 0.611765 0 0 0 0 0.0784314 0 0 0 0 0.0980392 0 0 0 1 0"/>
<feBlend mode="normal" in2="BackgroundImageFix" result="effect1_dropShadow_1685_750"/>
<feBlend mode="normal" in="SourceGraphic" in2="effect1_dropShadow_1685_750" result="shape"/>
</filter>
<filter id="filter2_dd_1685_750" x="260.498" y="319.457" width="60.4974" height="78.4382" filterUnits="userSpaceOnUse" color-interpolation-filters="sRGB">
<feFlood flood-opacity="0" result="BackgroundImageFix"/>
<feColorMatrix in="SourceAlpha" type="matrix" values="0 0 0 0 0 0 0 0 0 0 0 0 0 0 0 0 0 0 127 0" result="hardAlpha"/>
<feOffset dx="3.31773"/>
<feComposite in2="hardAlpha" operator="out"/>
<feColorMatrix type="matrix" values="0 0 0 0 0.639216 0 0 0 0 0.0666667 0 0 0 0 0.0745098 0 0 0 1 0"/>
<feBlend mode="normal" in2="BackgroundImageFix" result="effect1_dropShadow_1685_750"/>
<feColorMatrix in="SourceAlpha" type="matrix" values="0 0 0 0 0 0 0 0 0 0 0 0 0 0 0 0 0 0 127 0" result="hardAlpha"/>
<feOffset dx="3.12845" dy="-0.663547"/>
<feComposite in2="hardAlpha" operator="out"/>
<feColorMatrix type="matrix" values="0 0 0 0 0.639216 0 0 0 0 0.0666667 0 0 0 0 0.0745098 0 0 0 1 0"/>
<feBlend mode="normal" in2="effect1_dropShadow_1685_750" result="effect2_dropShadow_1685_750"/>
<feBlend mode="normal" in="SourceGraphic" in2="effect2_dropShadow_1685_750" result="shape"/>
</filter>
<radialGradient id="paint0_radial_1685_750" cx="0" cy="0" r="1" gradientUnits="userSpaceOnUse" gradientTransform="translate(168.735 154.655) rotate(82.64) scale(46.584 81.2019)">
<stop stop-color="#D01C1E"/>
<stop offset="0.715495" stop-color="#911118"/>
</radialGradient>
<linearGradient id="paint1_linear_1685_750" x1="117.881" y1="150.748" x2="217.132" y2="136.915" gradientUnits="userSpaceOnUse">
<stop offset="0.052154" stop-color="#9E9E9C"/>
<stop offset="0.265591" stop-color="#F3F3F3"/>
<stop offset="0.488471" stop-color="#FBFBFB"/>
<stop offset="0.66837" stop-color="#FBFBFB"/>
<stop offset="0.904057" stop-color="#8D8C8B"/>
</linearGradient>
<radialGradient id="paint2_radial_1685_750" cx="0" cy="0" r="1" gradientUnits="userSpaceOnUse" gradientTransform="translate(289.244 358.936) rotate(106.528) scale(48.2247 33.7271)">
<stop offset="0.227783" stop-color="#D91517"/>
<stop offset="1" stop-color="#B11B21"/>
</radialGradient>
</defs>
</svg>
