<svg xmlns="http://www.w3.org/2000/svg" xmlns:xlink="http://www.w3.org/1999/xlink" width="500" zoomAndPan="magnify" viewBox="0 0 375 374.999991" height="500" preserveAspectRatio="xMidYMid meet" version="1.0"><defs><g/></defs><rect x="-37.5" width="450" fill="#ffffff" y="-37.499999" height="449.999989" fill-opacity="1"/><rect x="-37.5" width="450" fill="#1b1821" y="-37.499999" height="449.999989" fill-opacity="1"/><g fill="#ffffff" fill-opacity="1"><g transform="translate(86.249999, 202.499987)"><g><path d="M 22.148438 -17.8125 L 22.148438 -28.554688 L 27.773438 -28.554688 L 27.773438 0 L 22.148438 0 L 22.148438 -13.007812 L 9.355469 -13.007812 L 9.355469 0 L 3.710938 0 L 3.710938 -28.554688 L 9.355469 -28.554688 L 9.355469 -17.8125 Z M 22.148438 -17.8125 "/></g></g></g><g fill="#ffffff" fill-opacity="1"><g transform="translate(117.750832, 202.499987)"><g><path d="M 27.402344 0 L 21.464844 0 L 19.316406 -6.582031 L 8.378906 -6.582031 L 6.230469 0 L 0.429688 0 L 10.292969 -28.554688 L 17.539062 -28.554688 Z M 13.574219 -22.597656 L 9.902344 -11.328125 L 17.753906 -11.328125 L 14.0625 -22.597656 Z M 13.574219 -22.597656 "/></g></g></g><g fill="#ffffff" fill-opacity="1"><g transform="translate(145.58015, 202.499987)"><g><path d="M 8.886719 0 L 3.710938 0 L 3.710938 -28.554688 L 11.09375 -28.554688 L 18.320312 -7.558594 L 18.730469 -7.558594 L 25.917969 -28.554688 L 33.121094 -28.554688 L 33.121094 0 L 27.773438 0 L 27.773438 -18.867188 L 27.285156 -18.945312 L 20.683594 0 L 15.976562 0 L 9.375 -18.945312 L 8.886719 -18.867188 Z M 8.886719 0 "/></g></g></g><g fill="#ffffff" fill-opacity="1"><g transform="translate(182.432023, 202.499987)"><g><path d="M 15.136719 0.410156 C 11.203125 0.410156 8.289062 -0.523438 6.386719 -2.390625 C 4.484375 -4.261719 3.535156 -7.03125 3.535156 -10.703125 L 3.535156 -28.554688 L 9.0625 -28.554688 L 9.0625 -10.742188 C 9.0625 -8.660156 9.5625 -7.097656 10.566406 -6.054688 C 11.566406 -5.011719 13.089844 -4.492188 15.136719 -4.492188 C 19.183594 -4.492188 21.210938 -6.574219 21.210938 -10.742188 L 21.210938 -28.554688 L 26.738281 -28.554688 L 26.738281 -10.703125 C 26.738281 -7.03125 25.785156 -4.261719 23.886719 -2.390625 C 21.984375 -0.523438 19.066406 0.410156 15.136719 0.410156 Z M 15.136719 0.410156 "/></g></g></g><g fill="#ffffff" fill-opacity="1"><g transform="translate(212.702502, 202.499987)"><g><path d="M 22.890625 -28.554688 L 22.890625 -23.808594 L 14.648438 -23.808594 L 14.648438 0 L 9.023438 0 L 9.023438 -23.808594 L 0.78125 -23.808594 L 0.78125 -28.554688 Z M 22.890625 -28.554688 "/></g></g></g><g fill="#ffffff" fill-opacity="1"><g transform="translate(236.372063, 202.499987)"><g><path d="M 9.355469 -12.539062 L 9.355469 -4.726562 L 22.988281 -4.726562 L 22.988281 0 L 3.710938 0 L 3.710938 -28.554688 L 22.675781 -28.554688 L 22.675781 -23.828125 L 9.355469 -23.828125 L 9.355469 -17.148438 L 20.996094 -17.148438 L 20.996094 -12.539062 Z M 9.355469 -12.539062 "/></g></g></g><g fill="#ffffff" fill-opacity="1"><g transform="translate(260.920451, 202.499987)"><g><path d="M 27.402344 0 L 21.464844 0 L 19.316406 -6.582031 L 8.378906 -6.582031 L 6.230469 0 L 0.429688 0 L 10.292969 -28.554688 L 17.539062 -28.554688 Z M 13.574219 -22.597656 L 9.902344 -11.328125 L 17.753906 -11.328125 L 14.0625 -22.597656 Z M 13.574219 -22.597656 "/></g></g></g></svg>