<svg width="1224" height="303" viewBox="0 0 1224 303" fill="none" xmlns="http://www.w3.org/2000/svg">
<path opacity="0.31" fill-rule="evenodd" clip-rule="evenodd" d="M271.103 -66.4766C252.002 -63.6286 232.289 -52.2434 221.636 -37.9044C215.377 -29.481 213.556 -25.6282 205.75 -4.28486C202.035 5.86888 197.176 19.1161 194.95 25.1535C175.319 78.412 166.941 101.673 166.941 102.914C166.941 104.739 220.093 105.089 222.514 103.281C223.462 102.572 226.562 95.9303 229.402 88.5208C240.72 58.9876 245.926 45.1236 254.066 22.8423C264.06 -4.51641 264.451 -5.33366 269.262 -8.97304L272.956 -11.7692L308.108 -12.0556L343.259 -12.342L347.64 -9.79627C350.049 -8.3962 352.804 -5.93737 353.76 -4.33273C354.716 -2.7271 359.643 9.95229 364.709 23.8452L373.919 49.1033L321.505 49.6023L269.09 50.1012L263.192 52.9733C253.812 57.5397 248.669 65.993 248.546 77.0448C248.428 87.5838 254.243 96.6787 264.247 101.603L269.09 103.988L360.421 104.264C412.365 104.421 451.752 104.161 451.752 103.663C451.752 100.427 406.092 -22.1375 402.12 -29.5609C393.274 -46.0973 377.172 -58.3546 355.641 -64.9438C351.542 -66.1992 343.521 -66.5255 312.366 -66.7052C291.332 -66.8269 272.764 -66.7241 271.103 -66.4766ZM760.184 -66.1134C745.973 -64.2702 731.878 -57.271 721.763 -47.0314C712.022 -37.172 709.054 -32.5526 704.071 -19.495C701.956 -13.9506 701.868 -12.0676 701.361 38.6253L700.837 91.0156L691.779 91.0346L682.721 91.0525V117.978V144.903L692.031 145.19L701.34 145.476V195.125C701.34 250.78 701.301 250.403 708.546 265.151C714.44 277.151 726.468 289.078 738.577 294.934C754.595 302.678 753.562 302.573 813.05 302.573C871.92 302.573 872.668 302.502 886.993 295.596C900.765 288.957 911.27 278.533 918.176 264.652C925.206 250.521 925.141 251.122 925.525 195.583L925.87 145.473L935.631 145.188L945.392 144.903L945.66 118.209L945.929 91.5145L937.357 91.3898C932.643 91.3209 928.221 91.2092 927.529 91.1403C926.548 91.0435 926.147 79.8789 925.712 40.6211C925.086 -15.8706 925.201 -14.8806 917.473 -30.2056C914.27 -36.5543 911.325 -40.5339 905.649 -46.1721C893.473 -58.2698 881.073 -64.2174 863.874 -66.2062C854.274 -67.3169 768.876 -67.24 760.184 -66.1134ZM1293.33 -64.0437C1290.97 -62.8822 1287.67 -60.3006 1286.01 -58.3058C1282.98 -54.6774 1280.02 -46.8757 1280.02 -42.5228V-40.2096H1243.84C1221.6 -40.2096 1205.69 -39.7914 1202.56 -39.1258C1195.65 -37.6559 1188.63 -32.7553 1184.96 -26.8347C1182.46 -22.8081 1181.85 -20.6356 1181.54 -14.5494C1180.92 -2.27908 1185.52 6.06643 1195.9 11.4961L1201.02 14.1765L1240.52 14.4788L1280.02 14.7823V28.699V42.6169H1242.46C1198.16 42.6169 1197.21 42.7646 1188.99 50.9325C1182.78 57.1036 1180.98 62.2708 1181.55 72.3107C1181.87 77.9479 1182.52 80.0476 1185.22 84.2258C1188.63 89.4908 1193.53 93.3307 1199.41 95.3365C1201.94 96.2017 1232.77 96.5041 1318.41 96.5041H1434V69.5605V42.6169H1384.69H1335.37V28.6462V14.6754H1384.69H1434V-12.7671V-40.2096H1384.78H1335.55L1334.9 -44.4507C1333.45 -53.8551 1329.35 -60.0241 1322.07 -63.7343C1318 -65.812 1315.93 -66.1553 1307.48 -66.1543C1299.48 -66.1543 1296.83 -65.7572 1293.33 -64.0437ZM73.3455 -59.5332C55.0199 -57.4366 38.3529 -50.0122 25.9027 -38.3985C12.7199 -26.1022 4.77028 -12.1983 1.37468 4.50375C0.00798554 11.2217 -0.151038 26.2622 0.0975427 124.945L0.381361 237.708L3.55554 246.971C12.9362 274.338 35.7403 294.876 63.1426 300.635C73.1573 302.739 89.5364 302.479 99.0993 300.062C132.46 291.631 156.001 264.77 159.867 230.723C161.234 218.673 161.238 24.2703 159.87 12.1807C156.44 -18.1418 137.469 -43.0038 109.247 -54.1625C99.1345 -58.1611 82.7614 -60.6099 73.3455 -59.5332ZM528.733 -57.3088C521.899 -54.2303 515.156 -45.0445 515.156 -38.8125C515.156 -36.3547 514.746 -36.0952 508.782 -34.774C504.09 -33.7352 498.24 -29.488 495.293 -24.9835C492.81 -21.1884 492.487 -19.6806 492.171 -10.413C491.907 -2.65826 492.222 0.971077 493.431 4.1115C495.804 10.2716 501.676 15.4588 508.723 17.6203L514.652 19.4395L514.897 87.6596C515.161 161.267 515.507 166.983 520.802 185.102C524.865 199.007 533.55 217.791 540.964 228.714C542.822 231.451 544.341 234 544.341 234.379C544.341 235.569 529.161 240.877 519.236 243.158C514.007 244.361 508.465 245.992 506.921 246.783C491.094 254.899 487 275.362 498.501 288.871C502.567 293.647 509.205 297.134 515.45 297.774C528.408 299.1 564.094 287.856 582.126 276.768L586.195 274.265L594.706 278.956C619.117 292.412 642.01 299.1 667.625 300.258L674.67 300.577L674.938 273.528L675.206 246.479L666.321 245.814C654.164 244.904 631.898 238.824 631.898 236.414C631.898 235.992 634.778 231.772 638.298 227.037C650.619 210.459 661.746 188.067 666.964 169.352C673.561 145.685 674.403 133.968 673.952 72.0553C673.538 15.4808 673.602 16.0785 666.46 1.92809C657.216 -16.3866 639.095 -30.2724 619.318 -34.1982C616.551 -34.747 604.237 -35.4965 591.956 -35.8628L569.625 -36.5293L568.968 -40.3893C567.946 -46.3798 562.587 -53.2483 556.456 -56.4247C551.787 -58.8436 550.063 -59.167 541.962 -59.148C535.255 -59.132 531.677 -58.6351 528.733 -57.3088ZM1089.99 -56.5754C1084.17 -53.6994 1079.67 -48.1819 1077.85 -41.6875C1077.15 -39.1668 1076.74 -25.9495 1076.73 -5.53225L1076.73 26.6504H1068.58C1053.19 26.6504 1050.04 23.2305 1049.31 5.69327C1048.91 -4.07428 1048.45 -6.53608 1046.25 -10.8361C1040.91 -21.2882 1030.25 -27.117 1018.64 -25.9285C1008.55 -24.8967 998.648 -16.7688 995.769 -7.1569C993.789 -0.547737 993.721 14.9977 995.628 24.879C1000.25 48.8379 1016.7 68.3311 1039.27 76.6008C1047.22 79.5147 1049.39 79.8609 1062.4 80.303L1076.75 80.79L1076.49 119.195L1076.22 157.599L1072.7 158.946C1068.39 160.596 1038.81 171.108 1016.38 178.961C997.134 185.7 993.022 188.344 988.678 196.768C981.73 210.241 986.89 225.873 1000.61 232.905C1002.33 233.792 1006.7 234.713 1010.3 234.951C1016.25 235.345 1018.27 234.885 1032.45 229.903C1041.03 226.887 1054.5 222.152 1062.39 219.381L1076.73 214.343V258.208V302.074H1104.4H1132.08V248.321V194.57L1150.45 188.076L1168.81 181.583L1169.08 153.514C1169.26 134.919 1169 125.443 1168.32 125.443C1167.76 125.443 1162.2 127.276 1155.98 129.515C1149.75 131.754 1142.27 134.449 1139.34 135.502C1136.41 136.556 1133.57 137.418 1133.03 137.418C1132.41 137.418 1132.15 127.115 1132.32 109.227L1132.58 81.0365L1150.95 80.7641L1169.32 80.4926V53.571V26.6504H1150.75H1132.18L1131.88 -7.52807C1131.55 -45.309 1131.56 -45.2421 1124.74 -52.1936C1119.54 -57.4945 1114.76 -59.123 1104.35 -59.148C1096.53 -59.167 1094.49 -58.8027 1089.99 -56.5754ZM762.072 -10.2185C755.23 -5.87158 755.633 -14.3847 755.925 119.366L756.189 240.17C756.189 240.17 758.499 242.461 759.979 243.928C761.459 245.396 763.769 247.687 763.769 247.687L812.147 247.965C859.959 248.239 860.566 248.217 863.985 246.123C870.545 242.102 870.415 243.196 870.415 191.896V145.486L829.404 145.194L788.394 144.903L783.362 142.251C773.615 137.116 768.517 128.774 768.517 117.959C768.517 110.247 771.168 104.054 776.781 98.6536C784.125 91.5864 784.457 91.5405 829.656 91.2631L869.912 91.0156L870.174 44.3333C870.463 -7.28261 870.562 -6.39149 864.076 -10.3123C861 -12.1734 858.705 -12.2602 813.05 -12.2472C766.815 -12.2352 765.142 -12.1684 762.072 -10.2185ZM68.7261 -2.25615C61.8312 1.2535 58.5383 4.98279 56.0605 12.0899C54.4151 16.81 54.2872 24.5298 54.257 121.021C54.2198 236.674 53.929 231.57 61.005 239.337C66.5593 245.432 71.5359 247.624 79.8871 247.652C85.8047 247.671 87.7783 247.21 92.2195 244.776C95.128 243.181 98.6554 240.385 100.058 238.562C105.777 231.127 105.55 235.962 105.55 121.504C105.55 2.52588 106.031 9.99129 97.8493 2.10581C89.6723 -5.77369 78.8293 -7.39838 68.7261 -2.25615ZM804.339 11.6727C794.538 13.7124 784.547 22.2875 781.441 31.3245C779.334 37.4567 779.398 46.886 781.59 53.095C784.028 59.9995 792.639 68.4458 799.777 70.9346C806.986 73.4483 819.735 72.8576 825.854 69.7272C836.304 64.3793 842.163 55.517 842.976 43.8255C844.396 23.4112 825.098 7.35174 804.339 11.6727ZM569.74 88.2713C570.054 157.277 570.077 157.946 572.361 166.085C573.629 170.602 575.772 177.096 577.125 180.519C579.77 187.212 587.56 201.285 588.621 201.285C590.015 201.285 599.844 187.079 604.583 178.214C607.336 173.066 610.936 164.811 612.582 159.871C618.376 142.493 618.799 137.119 618.842 80.303C618.886 23.2116 619.06 24.8212 612.43 20.7597C609.267 18.8208 607.564 18.6671 589.22 18.6671H569.424L569.74 88.2713ZM1350.47 115.464V125.443H1275.81C1201.56 125.443 1201.13 125.455 1196.7 127.581C1186.63 132.414 1181.44 140.666 1181.43 151.888C1181.41 160.692 1184.37 167.45 1190.52 172.673C1198.53 179.47 1196.7 179.331 1277.69 179.331H1350.47V208.621C1350.47 237.412 1350.43 237.97 1348.18 241.303C1344.2 247.215 1340.83 248.183 1324.23 248.184C1307.23 248.186 1301.55 249.443 1295.57 254.522C1289.18 259.942 1286.56 266.112 1286.59 275.629C1286.62 284.927 1288.65 289.764 1294.75 295.077C1302.51 301.833 1304.8 302.284 1329.17 301.868C1348.73 301.535 1351.65 301.261 1357.51 299.215C1375.07 293.092 1389.96 280.355 1397.59 264.925C1404.49 250.989 1404.81 248.594 1404.81 211.868V179.331H1419.41H1434V152.414V125.498L1419.66 125.221L1405.32 124.945L1405.03 115.215L1404.74 105.485H1377.61H1350.47V115.464ZM185.056 183.634C185.056 220.394 185.445 242.95 186.146 246.755C188.654 260.372 196.406 274.444 206.547 283.787C218.02 294.357 229.747 299.77 246.072 302.034C255.901 303.397 363.551 303.286 373.756 301.902C389.284 299.797 401.873 293.599 412.98 282.591C421.21 274.435 426.553 265.862 430.382 254.673L433.115 246.69L433.124 186.815L433.134 126.94L309.095 126.687L185.056 126.433V183.634ZM800.301 169.143C790.687 172.548 783.285 180.349 780.71 189.794C779.087 195.738 780.113 206.969 782.741 212.053C792.244 230.438 817.609 234.907 832.935 220.899C835.383 218.662 838.583 214.569 840.047 211.803C842.316 207.519 842.713 205.515 842.725 198.291C842.737 191.213 842.323 188.988 840.223 184.853C837.096 178.694 831.479 173.157 825.393 170.236C818.943 167.139 807.38 166.636 800.301 169.143ZM239.609 209.517C239.936 240.69 240.134 241.759 246.344 245.904L249.764 248.186H309.125C367.641 248.186 368.535 248.156 371.9 246.094C378.126 242.279 378.285 241.378 378.285 209.817V181.326H308.799H239.313L239.609 209.517ZM1219.86 198.868C1210.7 203.394 1205.59 211.58 1205.59 221.742C1205.59 225.466 1206.3 229.287 1207.48 231.85C1210.57 238.593 1234.58 273.335 1238.91 277.315C1251.22 288.648 1271.34 284.876 1279.19 269.763C1282.01 264.337 1282.66 256.43 1280.74 250.846C1279.16 246.259 1254.77 209.09 1250.01 204.022C1242.71 196.254 1229.66 194.023 1219.86 198.868Z" fill="url(#paint0_linear_97_812)"/>
<defs>
<linearGradient id="paint0_linear_97_812" x1="717" y1="-67" x2="717" y2="303" gradientUnits="userSpaceOnUse">
<stop stop-color="#FFE398"/>
<stop offset="1" stop-color="#F45556"/>
</linearGradient>
</defs>
</svg>
