<svg width="37" height="37" viewBox="0 0 37 37" fill="none" xmlns="http://www.w3.org/2000/svg">
<path d="M36.7207 18.5C36.7207 28.6401 28.5005 36.8603 18.3603 36.8603C8.2202 36.8603 0 28.6401 0 18.5C0 8.35985 8.2202 0.139648 18.3603 0.139648C28.5005 0.139648 36.7207 8.35985 36.7207 18.5ZM3.12939 18.5C3.12939 26.9118 9.94851 33.7309 18.3603 33.7309C26.7722 33.7309 33.5913 26.9118 33.5913 18.5C33.5913 10.0882 26.7722 3.26904 18.3603 3.26904C9.94851 3.26904 3.12939 10.0882 3.12939 18.5Z" fill="white"/>
<path d="M29.5125 24.6979C29.5125 28.0968 26.7572 30.8521 23.3584 30.8521C19.9596 30.8521 17.2043 28.0968 17.2043 24.6979C17.2043 21.2991 19.9596 18.5438 23.3584 18.5438C26.7572 18.5438 29.5125 21.2991 29.5125 24.6979ZM20.5114 24.6979C20.5114 26.2703 21.786 27.545 23.3584 27.545C24.9308 27.545 26.2055 26.2703 26.2055 24.6979C26.2055 23.1256 24.9308 21.8509 23.3584 21.8509C21.786 21.8509 20.5114 23.1256 20.5114 24.6979Z" fill="white"/>
<path d="M17.8843 16.2318C17.8843 15.2929 18.6455 14.5318 19.5844 14.5318H27.0645C28.0034 14.5318 28.7645 15.2929 28.7645 16.2318C28.7645 17.1707 28.0034 17.9318 27.0645 17.9318H19.5844C18.6455 17.9318 17.8843 17.1707 17.8843 16.2318Z" fill="white"/>
<path d="M23.4073 10.2194L19.7664 13.8602C19.1025 14.5241 18.0261 14.5241 17.3622 13.8602C16.6983 13.1963 16.6983 12.1199 17.3622 11.456L22.152 6.66621C22.2274 6.59077 22.3082 6.5239 22.3931 6.46561C23.0592 5.96266 24.011 6.01468 24.618 6.62168L29.4078 11.4114C30.0717 12.0754 30.0717 13.1518 29.4078 13.8157C28.7439 14.4796 27.6675 14.4796 27.0036 13.8157L23.4073 10.2194Z" fill="white"/>
<path fill-rule="evenodd" clip-rule="evenodd" d="M15.2114 23.7278C16.7119 22.585 17.6803 20.7795 17.6803 18.7478C17.6803 15.2927 14.8794 12.4917 11.4242 12.4917C7.96905 12.4917 5.16809 15.2927 5.16809 18.7478C5.16809 22.203 7.96905 25.0039 11.4242 25.0039C11.4469 25.0039 11.4696 25.0038 11.4922 25.0036V27.384L15.2114 23.7278ZM11.4242 21.6421C9.82576 21.6421 8.52997 20.3463 8.52997 18.7478C8.52997 17.1494 9.82576 15.8536 11.4242 15.8536C13.0227 15.8536 14.3184 17.1494 14.3184 18.7478C14.3184 20.3463 13.0227 21.6421 11.4242 21.6421Z" fill="white"/>
</svg>
