<svg width="181" height="128" viewBox="0 0 181 128" fill="none" xmlns="http://www.w3.org/2000/svg">
<path d="M128.813 38.214C128.813 59.319 111.704 76.4279 90.5987 76.4279C69.4937 76.4279 52.3848 59.319 52.3848 38.214C52.3848 17.109 69.4937 0 90.5987 0C111.704 0 128.813 17.109 128.813 38.214ZM58.8981 38.214C58.8981 55.7218 73.0909 69.9146 90.5987 69.9146C108.107 69.9146 122.299 55.7218 122.299 38.214C122.299 20.7062 108.107 6.5133 90.5987 6.5133C73.0909 6.5133 58.8981 20.7062 58.8981 38.214Z" fill="white"/>
<path d="M113.81 51.114C113.81 58.1881 108.076 63.9227 101.001 63.9227C93.9274 63.9227 88.1927 58.1881 88.1927 51.114C88.1927 44.0399 93.9274 38.3052 101.001 38.3052C108.076 38.3052 113.81 44.0399 113.81 51.114ZM95.0758 51.114C95.0758 54.3866 97.7288 57.0397 101.001 57.0397C104.274 57.0397 106.927 54.3866 106.927 51.114C106.927 47.8413 104.274 45.1883 101.001 45.1883C97.7288 45.1883 95.0758 47.8413 95.0758 51.114Z" fill="white"/>
<path d="M89.608 33.4931C89.608 31.5389 91.1922 29.9548 93.1463 29.9548H108.715C110.669 29.9548 112.253 31.5389 112.253 33.4931C112.253 35.4473 110.669 37.0314 108.715 37.0314H93.1463C91.1922 37.0314 89.608 35.4473 89.608 33.4931Z" fill="white"/>
<path d="M101.103 20.9792L93.5253 28.557C92.1435 29.9388 89.9032 29.9388 88.5214 28.557C87.1396 27.1752 87.1396 24.9349 88.5214 23.553L98.4905 13.584C98.6475 13.4269 98.8156 13.2878 98.9922 13.1664C100.379 12.1196 102.36 12.2279 103.623 13.4913L113.592 23.4604C114.974 24.8422 114.974 27.0825 113.592 28.4643C112.21 29.8461 109.97 29.8461 108.588 28.4643L101.103 20.9792Z" fill="white"/>
<path fill-rule="evenodd" clip-rule="evenodd" d="M84.0449 49.0948C87.1678 46.7162 89.1834 42.9584 89.1834 38.7298C89.1834 31.5385 83.3537 25.7088 76.1623 25.7088C68.971 25.7088 63.1413 31.5385 63.1413 38.7298C63.1413 45.9212 68.971 51.7509 76.1623 51.7509C76.2096 51.7509 76.2568 51.7506 76.3039 51.7501V56.7046L84.0449 49.0948ZM76.1623 44.7537C72.8355 44.7537 70.1385 42.0567 70.1385 38.7298C70.1385 35.4029 72.8355 32.706 76.1623 32.706C79.4892 32.706 82.1862 35.4029 82.1862 38.7298C82.1862 42.0567 79.4892 44.7537 76.1623 44.7537Z" fill="white"/>
<path d="M23.5253 103.184V124H17.8721V115.049H5.68258V124H0V103.095C0.0883302 101.623 1.32495 100.445 2.82657 100.445C4.32818 100.445 5.5648 101.623 5.65313 103.095H5.68258V109.396H17.8721V103.184C17.931 101.652 19.1676 100.445 20.6987 100.445C22.2298 100.445 23.4664 101.652 23.5253 103.184ZM38.405 100.534C44.8825 100.534 50.1529 105.804 50.1529 112.311V124.059H44.4998V120.437H37.4039C37.3156 120.437 37.2273 120.467 37.1389 120.467C35.5784 120.467 34.3124 119.171 34.3124 117.611C34.3124 116.109 35.4901 114.873 36.9623 114.784H44.4998V112.311C44.4998 108.954 41.7615 106.216 38.405 106.216C35.0484 106.216 32.3102 108.954 32.3102 112.311C32.3102 115.756 32.3102 118.406 32.3102 118.406V124.029H26.6276V112.311C26.6276 105.804 31.898 100.534 38.405 100.534ZM58.8125 124H53.2771V103.242C53.2771 102.094 53.9543 101.064 55.0437 100.651C56.1331 100.239 57.3698 100.563 58.1058 101.417L65.8495 110.25L73.9758 101.476C74.7414 100.651 75.9485 100.357 77.0085 100.799C78.0979 101.211 78.7751 102.241 78.7751 103.36V123.941H73.2398V110.456L67.8222 116.286C67.2922 116.875 66.5561 117.169 65.7906 117.169H65.7611C64.9662 117.169 64.2301 116.816 63.7001 116.227L58.8125 110.662V124ZM105.149 103.36C105.149 103.39 105.149 103.39 105.149 103.39V112.311C105.149 118.759 99.8787 124 93.4306 124C86.953 124 81.7121 118.759 81.7121 112.311V109.396V103.36V103.331V103.301C81.7121 101.741 82.9487 100.475 84.5092 100.475C86.0697 100.475 87.3358 101.741 87.3358 103.301V103.331V105.922V106.216C87.3358 106.216 87.3358 108.866 87.3358 112.311C87.3358 115.638 90.074 118.376 93.4306 118.376C96.7577 118.376 99.4959 115.638 99.4959 112.311V103.39C99.4959 103.39 99.4959 103.39 99.4959 103.36C99.4959 101.8 100.762 100.534 102.322 100.534C103.883 100.534 105.149 101.8 105.149 103.36ZM117.427 100.475H119.135H127.114C128.645 100.475 129.911 101.711 129.911 103.272C129.911 104.803 128.645 106.04 127.114 106.04H121.137V123.882H115.454V106.04H109.212C107.652 106.04 106.445 104.803 106.445 103.272C106.445 101.711 107.652 100.475 109.212 100.475H117.427ZM138.016 118.288H153.738V123.971H131.891V106.069V100.416H152.708V105.775H137.986L138.016 109.367H146.584C148.115 109.426 149.322 110.662 149.322 112.193C149.322 113.754 148.115 114.99 146.584 115.049H138.016V118.288ZM167.536 100.534C174.014 100.534 179.284 105.804 179.284 112.311V124.059H173.631V120.437H166.535C166.447 120.437 166.358 120.467 166.27 120.467C164.71 120.467 163.443 119.171 163.443 117.611C163.443 116.109 164.621 114.873 166.093 114.784H173.631V112.311C173.631 108.954 170.893 106.216 167.536 106.216C164.18 106.216 161.441 108.954 161.441 112.311C161.441 115.756 161.441 118.406 161.441 118.406V124.029H155.759V112.311C155.759 105.804 161.029 100.534 167.536 100.534Z" fill="white"/>
</svg>
