<svg width="151" height="151" viewBox="0 0 151 151" fill="none" xmlns="http://www.w3.org/2000/svg">
<mask id="mask0_97_742" style="mask-type:alpha" maskUnits="userSpaceOnUse" x="0" y="0" width="151" height="151">
<circle cx="75.5" cy="75.5" r="75.5" fill="#D9D9D9"/>
</mask>
<g mask="url(#mask0_97_742)">
<circle cx="75.5" cy="75.5001" r="75" fill="#74B4FF" stroke="#E0DEDE"/>
<path d="M62.346 31.4264C74.8943 22.727 82.1015 20.5911 95.1893 20.4004V28.8459L115.599 33.7724C143.281 28.3767 149.85 50.4286 135.54 64.0351C143.954 75.142 146.198 82.6871 147.035 97.8165C194.402 139.852 207.818 158.327 208.029 176.171C230.999 187.039 230.031 194.435 211.079 209.249C221.79 217.715 212.956 224.263 189.731 225.436C179.779 222.589 174.446 219.815 165.568 211.83C166.231 219.06 166.207 222.353 165.568 227.078C173.124 233.115 176.354 237.247 180.582 245.846C192.077 317.632 109.265 336.634 101.054 275.874H97.5352L103.165 314.582C97.5352 338.511 26.9451 342.05 29.0335 314.582C3.68932 261.5 1.6203 222.1 8.62375 143.328C8.62375 143.328 1.11683 149.897 -39.9374 112.596C-80.9917 75.2959 -59.734 11.3272 -19.0585 11.0166C-4.21228 8.07508 5.3628 13.3953 25.0454 37.5259C29.9405 47.2101 29.1444 51.3095 20.3535 55.8243C24.9634 58.7137 26.7502 61.4395 29.0335 67.554C30.7503 62.8503 31.8608 60.2544 34.1946 55.8243C29.0335 28.8459 52.9622 24.8577 62.346 31.4264Z" fill="#D91517"/>
<path d="M51.0011 53.1871C57.204 54.9428 72.6523 61.7476 81.2119 57.3525C82.6452 61.7165 105.677 57.9864 108.213 56.6952C117.764 51.8314 125.282 76.0547 113.802 89.5783C102.323 103.102 54.1633 101.354 44.8485 85.3422C35.5337 69.33 44.7983 51.4315 51.0011 53.1871Z" fill="url(#paint0_radial_97_742)"/>
<path d="M54.3688 56.2072C50.5945 54.3622 50.958 57.1187 51.2057 57.7459C51.4534 58.3731 53.3461 60.9612 54.2736 60.7398C55.2012 60.5184 56.405 60.3147 57.6047 60.7295C74.0597 65.078 83.7561 65.6634 101.872 63.4041C104.621 62.2838 106.13 63.1725 106.705 63.5256C107.279 63.8787 109.514 62.5612 110.573 60.8378C111.633 59.1145 110.455 58.0412 108.355 58.524C86.0105 62.5247 74.3546 62.0875 54.3688 56.2072Z" fill="url(#paint1_linear_97_742)"/>
<path d="M70.687 48.7702C70.7765 51.1999 73.8182 53.8063 78.5186 56.1177C82.6178 54.0661 85.4706 52.7924 86.2824 50.4418C87.0942 48.0911 85.2283 45.9234 78.7089 47.0525C74.0798 45.4105 70.5976 46.3404 70.687 48.7702Z" fill="#4F070B"/>
<path d="M-32.1163 -4.71198L29.9292 4.35149L-1.63123 169.301C-20.6795 173.166 -30.648 171.786 -47.0376 163.587L-32.1163 -4.71198Z" fill="#FEFFFF"/>
<path d="M17.5131 58.3165C15.5224 73.1721 1.86585 83.6012 -12.9897 81.6105C-27.8453 79.6198 -38.2743 65.9632 -36.2837 51.1076C-34.293 36.2521 -20.6364 25.823 -5.78081 27.8137C9.07477 29.8044 19.5038 43.461 17.5131 58.3165ZM-31.699 51.722C-33.3504 64.0455 -24.6989 75.3744 -12.3754 77.0258C-0.0518212 78.6772 11.2771 70.0257 12.9285 57.7022C14.5799 45.3786 5.92839 34.0497 -6.39516 32.3983C-18.7187 30.7469 -30.0476 39.3984 -31.699 51.722Z" fill="url(#paint2_linear_97_742)"/>
<path d="M5.73625 65.9816C5.069 70.961 0.491514 74.4567 -4.48785 73.7894C-9.46722 73.1222 -12.9629 68.5447 -12.2956 63.5653C-11.6284 58.5859 -7.0509 55.0903 -2.07153 55.7575C2.90784 56.4248 6.4035 61.0023 5.73625 65.9816ZM-7.4507 64.2145C-7.75939 66.5181 -6.14221 68.6358 -3.83862 68.9445C-1.53503 69.2532 0.582632 67.636 0.891319 65.3324C1.20001 63.0288 -0.41718 60.9112 -2.72077 60.6025C-5.02435 60.2938 -7.14202 61.911 -7.4507 64.2145Z" fill="url(#paint3_linear_97_742)"/>
<path d="M-9.63734 51.2957C-9.45302 49.9201 -8.18852 48.9545 -6.813 49.1388L4.1456 50.6073C5.52112 50.7916 6.48677 52.0561 6.30245 53.4316C6.11812 54.8072 4.85362 55.7728 3.47811 55.5885L-7.4805 54.12C-8.85601 53.9357 -9.82166 52.6712 -9.63734 51.2957Z" fill="url(#paint4_linear_97_742)"/>
<path d="M-0.365732 43.5715L-6.4144 48.1907C-7.51738 49.033 -9.09433 48.8217 -9.93663 47.7187C-10.7789 46.6157 -10.5676 45.0388 -9.46464 44.1965L-1.50719 38.1197C-1.38186 38.0239 -1.25041 37.9418 -1.11461 37.8731C-0.0400054 37.267 1.34422 37.5301 2.11433 38.5385L8.19115 46.496C9.03345 47.599 8.82213 49.1759 7.71916 50.0182C6.61618 50.8605 5.03923 50.6492 4.19693 49.5462L-0.365732 43.5715Z" fill="url(#paint5_linear_97_742)"/>
<path fill-rule="evenodd" clip-rule="evenodd" d="M-15.0248 61.7528C-12.6022 60.3731 -10.829 57.9181 -10.4302 54.9417C-9.75185 49.8798 -13.3055 45.2264 -18.3674 44.5481C-23.4292 43.8698 -28.0826 47.4234 -28.7609 52.4853C-29.4392 57.5472 -25.8856 62.2006 -20.8237 62.8789C-20.7905 62.8833 -20.7572 62.8876 -20.724 62.8917L-21.1913 66.3791L-15.0248 61.7528ZM-20.1637 57.9536C-22.5055 57.6398 -24.1495 55.4871 -23.8357 53.1453C-23.5219 50.8035 -21.3691 49.1596 -19.0273 49.4734C-16.6856 49.7872 -15.0416 51.9399 -15.3554 54.2817C-15.6692 56.6235 -17.822 58.2674 -20.1637 57.9536Z" fill="url(#paint6_linear_97_742)"/>
<path d="M-31.5746 -3.43627L28.121 5.21333L-2.43179 166.276C-4.58385 167.182 -4.60833 168.926 -14.7936 168.615C20.9382 26.172 27.2983 11.1463 -31.5746 -3.43627Z" fill="url(#paint7_linear_97_742)"/>
<g filter="url(#filter0_d_97_742)">
<path d="M-27.7245 -16.7768C-5.05396 -14.4291 7.6621 -12.3521 30.2548 -7.72299C35.2376 -2.52214 36.2798 0.646594 35.8313 6.64932C5.83554 2.83368 -10.0354 0.359167 -36.4648 -4.71987C-35.9526 -10.7662 -34.1163 -13.4377 -27.7245 -16.7768Z" fill="#6F0400"/>
</g>
<path d="M152.628 114.444C157.35 130.189 165.399 175.921 166.63 227.963L163.815 226.813C162.242 184.063 160.822 159.563 152.628 114.444Z" fill="#A31113"/>
</g>
<defs>
<filter id="filter0_d_97_742" x="-37.6236" y="-16.7768" width="74.7077" height="25.7437" filterUnits="userSpaceOnUse" color-interpolation-filters="sRGB">
<feFlood flood-opacity="0" result="BackgroundImageFix"/>
<feColorMatrix in="SourceAlpha" type="matrix" values="0 0 0 0 0 0 0 0 0 0 0 0 0 0 0 0 0 0 127 0" result="hardAlpha"/>
<feOffset dy="1.1588"/>
<feGaussianBlur stdDeviation="0.579399"/>
<feComposite in2="hardAlpha" operator="out"/>
<feColorMatrix type="matrix" values="0 0 0 0 0 0 0 0 0 0 0 0 0 0 0 0 0 0 0.25 0"/>
<feBlend mode="normal" in2="BackgroundImageFix" result="effect1_dropShadow_97_742"/>
<feBlend mode="normal" in="SourceGraphic" in2="effect1_dropShadow_97_742" result="shape"/>
</filter>
<radialGradient id="paint0_radial_97_742" cx="0" cy="0" r="1" gradientUnits="userSpaceOnUse" gradientTransform="translate(80.1882 70.2523) rotate(95.0163) scale(41.9187 73.0696)">
<stop stop-color="#D01C1E"/>
<stop offset="0.715495" stop-color="#911118"/>
</radialGradient>
<linearGradient id="paint1_linear_97_742" x1="36.2427" y1="57.0101" x2="126.147" y2="63.9932" gradientUnits="userSpaceOnUse">
<stop offset="0.052154" stop-color="#9E9E9C"/>
<stop offset="0.265591" stop-color="#F3F3F3"/>
<stop offset="0.488471" stop-color="#FBFBFB"/>
<stop offset="0.66837" stop-color="#FBFBFB"/>
<stop offset="0.904057" stop-color="#8D8C8B"/>
</linearGradient>
<linearGradient id="paint2_linear_97_742" x1="-36.2837" y1="51.1076" x2="17.5131" y2="58.3165" gradientUnits="userSpaceOnUse">
<stop offset="0.182879" stop-color="#D91517"/>
<stop offset="0.49" stop-color="#ED7071"/>
<stop offset="0.833055" stop-color="#D91517"/>
</linearGradient>
<linearGradient id="paint3_linear_97_742" x1="-36.2837" y1="51.1076" x2="17.5131" y2="58.3165" gradientUnits="userSpaceOnUse">
<stop offset="0.182879" stop-color="#D91517"/>
<stop offset="0.49" stop-color="#ED7071"/>
<stop offset="0.833055" stop-color="#D91517"/>
</linearGradient>
<linearGradient id="paint4_linear_97_742" x1="-36.2837" y1="51.1076" x2="17.5131" y2="58.3165" gradientUnits="userSpaceOnUse">
<stop offset="0.182879" stop-color="#D91517"/>
<stop offset="0.49" stop-color="#ED7071"/>
<stop offset="0.833055" stop-color="#D91517"/>
</linearGradient>
<linearGradient id="paint5_linear_97_742" x1="-36.2837" y1="51.1076" x2="17.5131" y2="58.3165" gradientUnits="userSpaceOnUse">
<stop offset="0.182879" stop-color="#D91517"/>
<stop offset="0.49" stop-color="#ED7071"/>
<stop offset="0.833055" stop-color="#D91517"/>
</linearGradient>
<linearGradient id="paint6_linear_97_742" x1="-36.2837" y1="51.1076" x2="17.5131" y2="58.3165" gradientUnits="userSpaceOnUse">
<stop offset="0.182879" stop-color="#D91517"/>
<stop offset="0.49" stop-color="#ED7071"/>
<stop offset="0.833055" stop-color="#D91517"/>
</linearGradient>
<linearGradient id="paint7_linear_97_742" x1="-1.69269" y1="0.664951" x2="-27.0303" y2="166.748" gradientUnits="userSpaceOnUse">
<stop stop-color="#BDCCC6"/>
<stop offset="0.413964" stop-color="#BDCCC6" stop-opacity="0"/>
<stop offset="0.725954" stop-color="#BDCCC6"/>
</linearGradient>
</defs>
</svg>
