<svg width="1600" height="76" viewBox="0 0 1600 76" fill="none" xmlns="http://www.w3.org/2000/svg">
<g opacity="0.41">
<path d="M590.978 38.383C590.978 59.0465 574.227 75.7976 553.563 75.7976C532.9 75.7976 516.148 59.0465 516.148 38.383C516.148 17.7194 532.9 0.968323 553.563 0.968323C574.227 0.968323 590.978 17.7194 590.978 38.383ZM522.525 38.383C522.525 55.5245 536.421 69.4205 553.563 69.4205C570.705 69.4205 584.601 55.5245 584.601 38.383C584.601 21.2414 570.705 7.34538 553.563 7.34538C536.421 7.34538 522.525 21.2414 522.525 38.383Z" fill="#D91517"/>
<path d="M576.289 51.0131C576.289 57.9393 570.674 63.554 563.748 63.554C556.822 63.554 551.207 57.9393 551.207 51.0131C551.207 44.087 556.822 38.4723 563.748 38.4723C570.674 38.4723 576.289 44.087 576.289 51.0131ZM557.946 51.0131C557.946 54.2173 560.544 56.8149 563.748 56.8149C566.952 56.8149 569.55 54.2173 569.55 51.0131C569.55 47.8089 566.952 45.2114 563.748 45.2114C560.544 45.2114 557.946 47.8089 557.946 51.0131Z" fill="#D91517"/>
<path d="M552.593 33.7608C552.593 31.8475 554.144 30.2965 556.057 30.2965H571.3C573.214 30.2965 574.765 31.8475 574.765 33.7608C574.765 35.6741 573.214 37.2252 571.3 37.2252H556.057C554.144 37.2252 552.593 35.6741 552.593 33.7608Z" fill="#D91517"/>
<path d="M563.848 21.5087L556.428 28.928C555.076 30.2809 552.882 30.2809 551.529 28.928C550.176 27.5751 550.176 25.3816 551.529 24.0287L561.29 14.2681C561.443 14.1144 561.608 13.9781 561.781 13.8593C563.138 12.8344 565.078 12.9405 566.315 14.1774L576.076 23.938C577.428 25.2909 577.428 27.4844 576.076 28.8372C574.723 30.1902 572.529 30.1902 571.176 28.8372L563.848 21.5087Z" fill="#D91517"/>
<path fill-rule="evenodd" clip-rule="evenodd" d="M547.146 49.0362C550.204 46.7073 552.177 43.0281 552.177 38.888C552.177 31.8471 546.47 26.1393 539.429 26.1393C532.388 26.1393 526.68 31.8471 526.68 38.888C526.68 45.9289 532.388 51.6367 539.429 51.6367C539.475 51.6367 539.521 51.6365 539.567 51.636V56.4868L547.146 49.0362ZM539.429 44.7859C536.171 44.7859 533.531 42.1453 533.531 38.888C533.531 35.6307 536.171 32.9902 539.429 32.9902C542.686 32.9902 545.327 35.6307 545.327 38.888C545.327 42.1453 542.686 44.7859 539.429 44.7859Z" fill="#D91517"/>
<path d="M1338.12 38.383C1338.12 59.0465 1321.37 75.7976 1300.71 75.7976C1280.05 75.7976 1263.29 59.0465 1263.29 38.383C1263.29 17.7194 1280.05 0.968323 1300.71 0.968323C1321.37 0.968323 1338.12 17.7194 1338.12 38.383ZM1269.67 38.383C1269.67 55.5245 1283.57 69.4205 1300.71 69.4205C1317.85 69.4205 1331.75 55.5245 1331.75 38.383C1331.75 21.2414 1317.85 7.34538 1300.71 7.34538C1283.57 7.34538 1269.67 21.2414 1269.67 38.383Z" fill="#D91517"/>
<path d="M1323.44 51.0131C1323.44 57.9393 1317.82 63.554 1310.89 63.554C1303.97 63.554 1298.35 57.9393 1298.35 51.0131C1298.35 44.087 1303.97 38.4723 1310.89 38.4723C1317.82 38.4723 1323.44 44.087 1323.44 51.0131ZM1305.09 51.0131C1305.09 54.2173 1307.69 56.8149 1310.89 56.8149C1314.1 56.8149 1316.7 54.2173 1316.7 51.0131C1316.7 47.8089 1314.1 45.2114 1310.89 45.2114C1307.69 45.2114 1305.09 47.8089 1305.09 51.0131Z" fill="#D91517"/>
<path d="M1299.74 33.7608C1299.74 31.8475 1301.29 30.2965 1303.2 30.2965H1318.45C1320.36 30.2965 1321.91 31.8475 1321.91 33.7608C1321.91 35.6741 1320.36 37.2252 1318.45 37.2252H1303.2C1301.29 37.2252 1299.74 35.6741 1299.74 33.7608Z" fill="#D91517"/>
<path d="M1310.99 21.5087L1303.57 28.928C1302.22 30.2809 1300.03 30.2809 1298.68 28.928C1297.32 27.5751 1297.32 25.3816 1298.68 24.0287L1308.44 14.2681C1308.59 14.1144 1308.75 13.9781 1308.93 13.8593C1310.28 12.8344 1312.22 12.9405 1313.46 14.1774L1323.22 23.938C1324.57 25.2909 1324.57 27.4844 1323.22 28.8372C1321.87 30.1902 1319.68 30.1902 1318.32 28.8372L1310.99 21.5087Z" fill="#D91517"/>
<path fill-rule="evenodd" clip-rule="evenodd" d="M1294.29 49.0362C1297.35 46.7073 1299.32 43.0281 1299.32 38.888C1299.32 31.8471 1293.62 26.1393 1286.58 26.1393C1279.53 26.1393 1273.83 31.8471 1273.83 38.888C1273.83 45.9289 1279.53 51.6367 1286.58 51.6367C1286.62 51.6367 1286.67 51.6365 1286.71 51.636V56.4868L1294.29 49.0362ZM1286.58 44.7859C1283.32 44.7859 1280.68 42.1453 1280.68 38.888C1280.68 35.6307 1283.32 32.9902 1286.58 32.9902C1289.83 32.9902 1292.47 35.6307 1292.47 38.888C1292.47 42.1453 1289.83 44.7859 1286.58 44.7859Z" fill="#D91517"/>
<path d="M217.403 37.4146C217.403 58.0782 200.652 74.8293 179.989 74.8293C159.325 74.8293 142.574 58.0782 142.574 37.4146C142.574 16.7511 159.325 0 179.989 0C200.652 0 217.403 16.7511 217.403 37.4146ZM148.951 37.4146C148.951 54.5562 162.847 68.4522 179.989 68.4522C197.13 68.4522 211.026 54.5562 211.026 37.4146C211.026 20.2731 197.13 6.37706 179.989 6.37706C162.847 6.37706 148.951 20.2731 148.951 37.4146Z" fill="#FF7A31"/>
<path d="M202.715 50.0448C202.715 56.9709 197.1 62.5857 190.174 62.5857C183.248 62.5857 177.633 56.9709 177.633 50.0448C177.633 43.1187 183.248 37.504 190.174 37.504C197.1 37.504 202.715 43.1187 202.715 50.0448ZM184.372 50.0448C184.372 53.249 186.97 55.8465 190.174 55.8465C193.378 55.8465 195.976 53.249 195.976 50.0448C195.976 46.8406 193.378 44.2431 190.174 44.2431C186.97 44.2431 184.372 46.8406 184.372 50.0448Z" fill="#FF7A31"/>
<path d="M179.019 32.7925C179.019 30.8792 180.57 29.3282 182.483 29.3282H197.726C199.639 29.3282 201.19 30.8792 201.19 32.7925C201.19 34.7058 199.639 36.2568 197.726 36.2568H182.483C180.57 36.2568 179.019 34.7058 179.019 32.7925Z" fill="#FF7A31"/>
<path d="M190.273 20.5404L182.854 27.9597C181.501 29.3126 179.308 29.3126 177.955 27.9597C176.602 26.6068 176.602 24.4133 177.955 23.0604L187.715 13.2998C187.869 13.1461 188.034 13.0098 188.207 12.891C189.564 11.8661 191.504 11.9721 192.741 13.2091L202.501 22.9696C203.854 24.3225 203.854 26.516 202.501 27.8689C201.148 29.2218 198.955 29.2218 197.602 27.8689L190.273 20.5404Z" fill="#FF7A31"/>
<path fill-rule="evenodd" clip-rule="evenodd" d="M173.572 48.0678C176.63 45.739 178.603 42.0598 178.603 37.9197C178.603 30.8788 172.895 25.171 165.854 25.171C158.814 25.171 153.106 30.8788 153.106 37.9197C153.106 44.9606 158.814 50.6684 165.854 50.6684C165.901 50.6684 165.947 50.6682 165.993 50.6677V55.5184L173.572 48.0678ZM165.854 43.8176C162.597 43.8176 159.957 41.177 159.957 37.9197C159.957 34.6624 162.597 32.0218 165.854 32.0218C169.112 32.0218 171.752 34.6624 171.752 37.9197C171.752 41.177 169.112 43.8176 165.854 43.8176Z" fill="#FF7A31"/>
<path d="M964.552 38.1881C964.552 58.8516 947.801 75.6027 927.137 75.6027C906.474 75.6027 889.723 58.8516 889.723 38.1881C889.723 17.5246 906.474 0.773453 927.137 0.773453C947.801 0.773453 964.552 17.5246 964.552 38.1881ZM896.1 38.1881C896.1 55.3297 909.996 69.2257 927.137 69.2257C944.279 69.2257 958.175 55.3297 958.175 38.1881C958.175 21.0465 944.279 7.15051 927.137 7.15051C909.996 7.15051 896.1 21.0465 896.1 38.1881Z" fill="#FF7A31"/>
<path d="M949.863 50.8183C949.863 57.7444 944.249 63.3591 937.322 63.3591C930.396 63.3591 924.782 57.7444 924.782 50.8183C924.782 43.8922 930.396 38.2774 937.322 38.2774C944.249 38.2774 949.863 43.8922 949.863 50.8183ZM931.521 50.8183C931.521 54.0225 934.118 56.62 937.322 56.62C940.527 56.62 943.124 54.0225 943.124 50.8183C943.124 47.6141 940.527 45.0166 937.322 45.0166C934.118 45.0166 931.521 47.6141 931.521 50.8183Z" fill="#FF7A31"/>
<path d="M926.167 33.566C926.167 31.6527 927.718 30.1016 929.632 30.1016H944.875C946.788 30.1016 948.339 31.6527 948.339 33.566C948.339 35.4793 946.788 37.0303 944.875 37.0303H929.632C927.718 37.0303 926.167 35.4793 926.167 33.566Z" fill="#FF7A31"/>
<path d="M937.422 21.3138L930.003 28.7331C928.65 30.086 926.456 30.086 925.103 28.7331C923.75 27.3802 923.75 25.1867 925.103 23.8338L934.864 14.0733C935.018 13.9195 935.182 13.7833 935.355 13.6645C936.713 12.6396 938.652 12.7456 939.889 13.9825L949.65 23.7431C951.003 25.096 951.003 27.2895 949.65 28.6424C948.297 29.9953 946.103 29.9953 944.75 28.6424L937.422 21.3138Z" fill="#FF7A31"/>
<path fill-rule="evenodd" clip-rule="evenodd" d="M920.721 48.8413C923.778 46.5124 925.752 42.8333 925.752 38.6932C925.752 31.6523 920.044 25.9445 913.003 25.9445C905.962 25.9445 900.254 31.6523 900.254 38.6932C900.254 45.7341 905.962 51.4418 913.003 51.4418C913.049 51.4418 913.095 51.4416 913.141 51.4411V56.2919L920.721 48.8413ZM913.003 44.591C909.746 44.591 907.105 41.9505 907.105 38.6932C907.105 35.4358 909.746 32.7953 913.003 32.7953C916.26 32.7953 918.901 35.4358 918.901 38.6932C918.901 41.9505 916.26 44.591 913.003 44.591Z" fill="#FF7A31"/>
<path d="M715.501 38.383C715.501 59.0465 698.75 75.7976 678.087 75.7976C657.423 75.7976 640.672 59.0465 640.672 38.383C640.672 17.7194 657.423 0.968323 678.087 0.968323C698.75 0.968323 715.501 17.7194 715.501 38.383ZM647.049 38.383C647.049 55.5245 660.945 69.4205 678.087 69.4205C695.228 69.4205 709.124 55.5245 709.124 38.383C709.124 21.2414 695.228 7.34538 678.087 7.34538C660.945 7.34538 647.049 21.2414 647.049 38.383Z" fill="#FF7A31"/>
<path d="M700.812 51.0131C700.812 57.9393 695.198 63.554 688.272 63.554C681.346 63.554 675.731 57.9393 675.731 51.0131C675.731 44.087 681.346 38.4723 688.272 38.4723C695.198 38.4723 700.812 44.087 700.812 51.0131ZM682.47 51.0131C682.47 54.2173 685.067 56.8149 688.272 56.8149C691.476 56.8149 694.073 54.2173 694.073 51.0131C694.073 47.8089 691.476 45.2114 688.272 45.2114C685.067 45.2114 682.47 47.8089 682.47 51.0131Z" fill="#FF7A31"/>
<path d="M677.117 33.7608C677.117 31.8475 678.668 30.2965 680.581 30.2965H695.824C697.737 30.2965 699.288 31.8475 699.288 33.7608C699.288 35.6741 697.737 37.2252 695.824 37.2252H680.581C678.668 37.2252 677.117 35.6741 677.117 33.7608Z" fill="#FF7A31"/>
<path d="M688.371 21.5087L680.952 28.928C679.599 30.2809 677.405 30.2809 676.053 28.928C674.7 27.5751 674.7 25.3816 676.053 24.0287L685.813 14.2681C685.967 14.1144 686.131 13.9781 686.304 13.8593C687.662 12.8344 689.601 12.9405 690.838 14.1774L700.599 23.938C701.952 25.2909 701.952 27.4844 700.599 28.8372C699.246 30.1902 697.053 30.1902 695.7 28.8372L688.371 21.5087Z" fill="#FF7A31"/>
<path fill-rule="evenodd" clip-rule="evenodd" d="M671.67 49.0362C674.727 46.7073 676.701 43.0281 676.701 38.888C676.701 31.8471 670.993 26.1393 663.952 26.1393C656.911 26.1393 651.203 31.8471 651.203 38.888C651.203 45.9289 656.911 51.6367 663.952 51.6367C663.998 51.6367 664.045 51.6365 664.091 51.636V56.4868L671.67 49.0362ZM663.952 44.7859C660.695 44.7859 658.054 42.1453 658.054 38.888C658.054 35.6307 660.695 32.9902 663.952 32.9902C667.209 32.9902 669.85 35.6307 669.85 38.888C669.85 42.1453 667.209 44.7859 663.952 44.7859Z" fill="#FF7A31"/>
<path d="M1462.65 38.383C1462.65 59.0465 1445.9 75.7976 1425.23 75.7976C1404.57 75.7976 1387.82 59.0465 1387.82 38.383C1387.82 17.7194 1404.57 0.968323 1425.23 0.968323C1445.9 0.968323 1462.65 17.7194 1462.65 38.383ZM1394.2 38.383C1394.2 55.5245 1408.09 69.4205 1425.23 69.4205C1442.38 69.4205 1456.27 55.5245 1456.27 38.383C1456.27 21.2414 1442.38 7.34538 1425.23 7.34538C1408.09 7.34538 1394.2 21.2414 1394.2 38.383Z" fill="#FF7A31"/>
<path d="M1447.96 51.0131C1447.96 57.9393 1442.35 63.554 1435.42 63.554C1428.49 63.554 1422.88 57.9393 1422.88 51.0131C1422.88 44.087 1428.49 38.4723 1435.42 38.4723C1442.35 38.4723 1447.96 44.087 1447.96 51.0131ZM1429.62 51.0131C1429.62 54.2173 1432.22 56.8149 1435.42 56.8149C1438.62 56.8149 1441.22 54.2173 1441.22 51.0131C1441.22 47.8089 1438.62 45.2114 1435.42 45.2114C1432.22 45.2114 1429.62 47.8089 1429.62 51.0131Z" fill="#FF7A31"/>
<path d="M1424.26 33.7608C1424.26 31.8475 1425.82 30.2965 1427.73 30.2965H1442.97C1444.89 30.2965 1446.44 31.8475 1446.44 33.7608C1446.44 35.6741 1444.89 37.2252 1442.97 37.2252H1427.73C1425.82 37.2252 1424.26 35.6741 1424.26 33.7608Z" fill="#FF7A31"/>
<path d="M1435.52 21.5087L1428.1 28.928C1426.75 30.2809 1424.55 30.2809 1423.2 28.928C1421.85 27.5751 1421.85 25.3816 1423.2 24.0287L1432.96 14.2681C1433.12 14.1144 1433.28 13.9781 1433.45 13.8593C1434.81 12.8344 1436.75 12.9405 1437.99 14.1774L1447.75 23.938C1449.1 25.2909 1449.1 27.4844 1447.75 28.8372C1446.39 30.1902 1444.2 30.1902 1442.85 28.8372L1435.52 21.5087Z" fill="#FF7A31"/>
<path fill-rule="evenodd" clip-rule="evenodd" d="M1418.82 49.0362C1421.88 46.7073 1423.85 43.0281 1423.85 38.888C1423.85 31.8471 1418.14 26.1393 1411.1 26.1393C1404.06 26.1393 1398.35 31.8471 1398.35 38.888C1398.35 45.9289 1404.06 51.6367 1411.1 51.6367C1411.15 51.6367 1411.19 51.6365 1411.24 51.636V56.4868L1418.82 49.0362ZM1411.1 44.7859C1407.84 44.7859 1405.2 42.1453 1405.2 38.888C1405.2 35.6307 1407.84 32.9902 1411.1 32.9902C1414.36 32.9902 1417 35.6307 1417 38.888C1417 42.1453 1414.36 44.7859 1411.1 44.7859Z" fill="#FF7A31"/>
<path d="M341.927 37.4146C341.927 58.0782 325.176 74.8293 304.512 74.8293C283.849 74.8293 267.098 58.0782 267.098 37.4146C267.098 16.7511 283.849 0 304.512 0C325.176 0 341.927 16.7511 341.927 37.4146ZM273.475 37.4146C273.475 54.5562 287.371 68.4522 304.512 68.4522C321.654 68.4522 335.55 54.5562 335.55 37.4146C335.55 20.2731 321.654 6.37706 304.512 6.37706C287.371 6.37706 273.475 20.2731 273.475 37.4146Z" fill="#D91517"/>
<path d="M327.238 50.0448C327.238 56.9709 321.624 62.5857 314.697 62.5857C307.771 62.5857 302.157 56.9709 302.157 50.0448C302.157 43.1187 307.771 37.504 314.697 37.504C321.624 37.504 327.238 43.1187 327.238 50.0448ZM308.896 50.0448C308.896 53.249 311.493 55.8465 314.697 55.8465C317.902 55.8465 320.499 53.249 320.499 50.0448C320.499 46.8406 317.902 44.2431 314.697 44.2431C311.493 44.2431 308.896 46.8406 308.896 50.0448Z" fill="#D91517"/>
<path d="M303.542 32.7925C303.542 30.8792 305.093 29.3282 307.007 29.3282H322.25C324.163 29.3282 325.714 30.8792 325.714 32.7925C325.714 34.7058 324.163 36.2568 322.25 36.2568H307.007C305.093 36.2568 303.542 34.7058 303.542 32.7925Z" fill="#D91517"/>
<path d="M314.797 20.5404L307.378 27.9597C306.025 29.3126 303.831 29.3126 302.478 27.9597C301.125 26.6068 301.125 24.4133 302.478 23.0604L312.239 13.2998C312.393 13.1461 312.557 13.0098 312.73 12.891C314.088 11.8661 316.027 11.9721 317.264 13.2091L327.025 22.9696C328.378 24.3225 328.378 26.516 327.025 27.8689C325.672 29.2218 323.478 29.2218 322.125 27.8689L314.797 20.5404Z" fill="#D91517"/>
<path fill-rule="evenodd" clip-rule="evenodd" d="M298.096 48.0678C301.153 45.739 303.127 42.0598 303.127 37.9197C303.127 30.8788 297.419 25.171 290.378 25.171C283.337 25.171 277.629 30.8788 277.629 37.9197C277.629 44.9606 283.337 50.6684 290.378 50.6684C290.424 50.6684 290.47 50.6682 290.516 50.6677V55.5184L298.096 48.0678ZM290.378 43.8176C287.121 43.8176 284.48 41.177 284.48 37.9197C284.48 34.6624 287.121 32.0218 290.378 32.0218C293.635 32.0218 296.276 34.6624 296.276 37.9197C296.276 41.177 293.635 43.8176 290.378 43.8176Z" fill="#D91517"/>
<path d="M1089.08 38.1881C1089.08 58.8516 1072.32 75.6027 1051.66 75.6027C1031 75.6027 1014.25 58.8516 1014.25 38.1881C1014.25 17.5246 1031 0.773453 1051.66 0.773453C1072.32 0.773453 1089.08 17.5246 1089.08 38.1881ZM1020.62 38.1881C1020.62 55.3297 1034.52 69.2257 1051.66 69.2257C1068.8 69.2257 1082.7 55.3297 1082.7 38.1881C1082.7 21.0465 1068.8 7.15051 1051.66 7.15051C1034.52 7.15051 1020.62 21.0465 1020.62 38.1881Z" fill="#D91517"/>
<path d="M1074.39 50.8183C1074.39 57.7444 1068.77 63.3591 1061.85 63.3591C1054.92 63.3591 1049.3 57.7444 1049.3 50.8183C1049.3 43.8922 1054.92 38.2774 1061.85 38.2774C1068.77 38.2774 1074.39 43.8922 1074.39 50.8183ZM1056.04 50.8183C1056.04 54.0225 1058.64 56.62 1061.85 56.62C1065.05 56.62 1067.65 54.0225 1067.65 50.8183C1067.65 47.6141 1065.05 45.0166 1061.85 45.0166C1058.64 45.0166 1056.04 47.6141 1056.04 50.8183Z" fill="#D91517"/>
<path d="M1050.69 33.566C1050.69 31.6527 1052.24 30.1016 1054.16 30.1016H1069.4C1071.31 30.1016 1072.86 31.6527 1072.86 33.566C1072.86 35.4793 1071.31 37.0303 1069.4 37.0303H1054.16C1052.24 37.0303 1050.69 35.4793 1050.69 33.566Z" fill="#D91517"/>
<path d="M1061.95 21.3138L1054.53 28.7331C1053.17 30.086 1050.98 30.086 1049.63 28.7331C1048.27 27.3802 1048.27 25.1867 1049.63 23.8338L1059.39 14.0733C1059.54 13.9195 1059.71 13.7833 1059.88 13.6645C1061.24 12.6396 1063.18 12.7456 1064.41 13.9825L1074.17 23.7431C1075.53 25.096 1075.53 27.2895 1074.17 28.6424C1072.82 29.9953 1070.63 29.9953 1069.27 28.6424L1061.95 21.3138Z" fill="#D91517"/>
<path fill-rule="evenodd" clip-rule="evenodd" d="M1045.24 48.8413C1048.3 46.5124 1050.28 42.8333 1050.28 38.6932C1050.28 31.6523 1044.57 25.9445 1037.53 25.9445C1030.49 25.9445 1024.78 31.6523 1024.78 38.6932C1024.78 45.7341 1030.49 51.4418 1037.53 51.4418C1037.57 51.4418 1037.62 51.4416 1037.66 51.4411V56.2919L1045.24 48.8413ZM1037.53 44.591C1034.27 44.591 1031.63 41.9505 1031.63 38.6932C1031.63 35.4358 1034.27 32.7953 1037.53 32.7953C1040.78 32.7953 1043.42 35.4358 1043.42 38.6932C1043.42 41.9505 1040.78 44.591 1037.53 44.591Z" fill="#D91517"/>
<path d="M92.8781 37.6095C92.8781 58.273 76.127 75.0241 55.4635 75.0241C34.7999 75.0241 18.0488 58.273 18.0488 37.6095C18.0488 16.946 34.7999 0.19487 55.4635 0.19487C76.127 0.19487 92.8781 16.946 92.8781 37.6095ZM24.4259 37.6095C24.4259 54.7511 38.3219 68.6471 55.4635 68.6471C72.605 68.6471 86.501 54.7511 86.501 37.6095C86.501 20.4679 72.605 6.57193 55.4635 6.57193C38.3219 6.57193 24.4259 20.4679 24.4259 37.6095Z" fill="#D91517"/>
<path d="M78.1894 50.2397C78.1894 57.1658 72.5747 62.7805 65.6486 62.7805C58.7225 62.7805 53.1077 57.1658 53.1077 50.2397C53.1077 43.3136 58.7225 37.6989 65.6486 37.6989C72.5747 37.6989 78.1894 43.3136 78.1894 50.2397ZM59.8468 50.2397C59.8468 53.4439 62.4444 56.0414 65.6486 56.0414C68.8528 56.0414 71.4503 53.4439 71.4503 50.2397C71.4503 47.0355 68.8528 44.438 65.6486 44.438C62.4444 44.438 59.8468 47.0355 59.8468 50.2397Z" fill="#D91517"/>
<path d="M54.4935 32.9874C54.4935 31.0741 56.0445 29.5231 57.9578 29.5231H73.2008C75.1141 29.5231 76.6651 31.0741 76.6651 32.9874C76.6651 34.9007 75.1141 36.4517 73.2008 36.4517H57.9578C56.0445 36.4517 54.4935 34.9007 54.4935 32.9874Z" fill="#D91517"/>
<path d="M65.7481 20.7353L58.3288 28.1545C56.9759 29.5074 54.7824 29.5074 53.4295 28.1545C52.0766 26.8016 52.0766 24.6081 53.4295 23.2552L63.1901 13.4947C63.3438 13.3409 63.5084 13.2047 63.6814 13.0859C65.0388 12.061 66.9784 12.167 68.2153 13.4039L77.9759 23.1645C79.3288 24.5174 79.3288 26.7109 77.9759 28.0638C76.623 29.4167 74.4295 29.4167 73.0766 28.0638L65.7481 20.7353Z" fill="#D91517"/>
<path fill-rule="evenodd" clip-rule="evenodd" d="M49.0467 48.2627C52.1043 45.9339 54.0777 42.2547 54.0777 38.1146C54.0777 31.0737 48.37 25.3659 41.329 25.3659C34.2881 25.3659 28.5804 31.0737 28.5804 38.1146C28.5804 45.1555 34.2881 50.8633 41.329 50.8633C41.3753 50.8633 41.4215 50.863 41.4676 50.8625V55.7133L49.0467 48.2627ZM41.329 44.0125C38.0717 44.0125 35.4312 41.3719 35.4312 38.1146C35.4312 34.8573 38.0717 32.2167 41.329 32.2167C44.5864 32.2167 47.2269 34.8573 47.2269 38.1146C47.2269 41.3719 44.5864 44.0125 41.329 44.0125Z" fill="#D91517"/>
<path d="M840.027 38.383C840.027 59.0465 823.275 75.7976 802.612 75.7976C781.948 75.7976 765.197 59.0465 765.197 38.383C765.197 17.7194 781.948 0.968323 802.612 0.968323C823.275 0.968323 840.027 17.7194 840.027 38.383ZM771.574 38.383C771.574 55.5245 785.47 69.4205 802.612 69.4205C819.753 69.4205 833.649 55.5245 833.649 38.383C833.649 21.2414 819.753 7.34538 802.612 7.34538C785.47 7.34538 771.574 21.2414 771.574 38.383Z" fill="#D91517"/>
<path d="M825.338 51.0131C825.338 57.9393 819.723 63.554 812.797 63.554C805.871 63.554 800.256 57.9393 800.256 51.0131C800.256 44.087 805.871 38.4723 812.797 38.4723C819.723 38.4723 825.338 44.087 825.338 51.0131ZM806.995 51.0131C806.995 54.2173 809.593 56.8149 812.797 56.8149C816.001 56.8149 818.599 54.2173 818.599 51.0131C818.599 47.8089 816.001 45.2114 812.797 45.2114C809.593 45.2114 806.995 47.8089 806.995 51.0131Z" fill="#D91517"/>
<path d="M801.642 33.7608C801.642 31.8475 803.193 30.2965 805.106 30.2965H820.349C822.263 30.2965 823.814 31.8475 823.814 33.7608C823.814 35.6741 822.263 37.2252 820.349 37.2252H805.106C803.193 37.2252 801.642 35.6741 801.642 33.7608Z" fill="#D91517"/>
<path d="M812.897 21.5087L805.477 28.928C804.124 30.2809 801.931 30.2809 800.578 28.928C799.225 27.5751 799.225 25.3816 800.578 24.0287L810.339 14.2681C810.492 14.1144 810.657 13.9781 810.83 13.8593C812.187 12.8344 814.127 12.9405 815.364 14.1774L825.124 23.938C826.477 25.2909 826.477 27.4844 825.124 28.8372C823.771 30.1902 821.578 30.1902 820.225 28.8372L812.897 21.5087Z" fill="#D91517"/>
<path fill-rule="evenodd" clip-rule="evenodd" d="M796.195 49.0362C799.253 46.7073 801.226 43.0281 801.226 38.888C801.226 31.8471 795.518 26.1393 788.477 26.1393C781.437 26.1393 775.729 31.8471 775.729 38.888C775.729 45.9289 781.437 51.6367 788.477 51.6367C788.524 51.6367 788.57 51.6365 788.616 51.636V56.4868L796.195 49.0362ZM788.477 44.7859C785.22 44.7859 782.58 42.1453 782.58 38.888C782.58 35.6307 785.22 32.9902 788.477 32.9902C791.735 32.9902 794.375 35.6307 794.375 38.888C794.375 42.1453 791.735 44.7859 788.477 44.7859Z" fill="#D91517"/>
<path d="M1587.17 38.383C1587.17 59.0465 1570.42 75.7976 1549.76 75.7976C1529.1 75.7976 1512.35 59.0465 1512.35 38.383C1512.35 17.7194 1529.1 0.968323 1549.76 0.968323C1570.42 0.968323 1587.17 17.7194 1587.17 38.383ZM1518.72 38.383C1518.72 55.5245 1532.62 69.4205 1549.76 69.4205C1566.9 69.4205 1580.8 55.5245 1580.8 38.383C1580.8 21.2414 1566.9 7.34538 1549.76 7.34538C1532.62 7.34538 1518.72 21.2414 1518.72 38.383Z" fill="#D91517"/>
<path d="M1572.49 51.0131C1572.49 57.9393 1566.87 63.554 1559.95 63.554C1553.02 63.554 1547.4 57.9393 1547.4 51.0131C1547.4 44.087 1553.02 38.4723 1559.95 38.4723C1566.87 38.4723 1572.49 44.087 1572.49 51.0131ZM1554.14 51.0131C1554.14 54.2173 1556.74 56.8149 1559.95 56.8149C1563.15 56.8149 1565.75 54.2173 1565.75 51.0131C1565.75 47.8089 1563.15 45.2114 1559.95 45.2114C1556.74 45.2114 1554.14 47.8089 1554.14 51.0131Z" fill="#D91517"/>
<path d="M1548.79 33.7608C1548.79 31.8475 1550.34 30.2965 1552.25 30.2965H1567.5C1569.41 30.2965 1570.96 31.8475 1570.96 33.7608C1570.96 35.6741 1569.41 37.2252 1567.5 37.2252H1552.25C1550.34 37.2252 1548.79 35.6741 1548.79 33.7608Z" fill="#D91517"/>
<path d="M1560.04 21.5087L1552.63 28.928C1551.27 30.2809 1549.08 30.2809 1547.73 28.928C1546.37 27.5751 1546.37 25.3816 1547.73 24.0287L1557.49 14.2681C1557.64 14.1144 1557.81 13.9781 1557.98 13.8593C1559.34 12.8344 1561.28 12.9405 1562.51 14.1774L1572.27 23.938C1573.63 25.2909 1573.63 27.4844 1572.27 28.8372C1570.92 30.1902 1568.73 30.1902 1567.37 28.8372L1560.04 21.5087Z" fill="#D91517"/>
<path fill-rule="evenodd" clip-rule="evenodd" d="M1543.34 49.0362C1546.4 46.7073 1548.37 43.0281 1548.37 38.888C1548.37 31.8471 1542.67 26.1393 1535.63 26.1393C1528.59 26.1393 1522.88 31.8471 1522.88 38.888C1522.88 45.9289 1528.59 51.6367 1535.63 51.6367C1535.67 51.6367 1535.72 51.6365 1535.76 51.636V56.4868L1543.34 49.0362ZM1535.63 44.7859C1532.37 44.7859 1529.73 42.1453 1529.73 38.888C1529.73 35.6307 1532.37 32.9902 1535.63 32.9902C1538.88 32.9902 1541.52 35.6307 1541.52 38.888C1541.52 42.1453 1538.88 44.7859 1535.63 44.7859Z" fill="#D91517"/>
<path d="M466.452 37.4146C466.452 58.0782 449.701 74.8293 429.038 74.8293C408.374 74.8293 391.623 58.0782 391.623 37.4146C391.623 16.7511 408.374 0 429.038 0C449.701 0 466.452 16.7511 466.452 37.4146ZM398 37.4146C398 54.5562 411.896 68.4522 429.038 68.4522C446.179 68.4522 460.075 54.5562 460.075 37.4146C460.075 20.2731 446.179 6.37706 429.038 6.37706C411.896 6.37706 398 20.2731 398 37.4146Z" fill="#FF7A31"/>
<path d="M451.764 50.0448C451.764 56.9709 446.149 62.5857 439.223 62.5857C432.297 62.5857 426.682 56.9709 426.682 50.0448C426.682 43.1187 432.297 37.504 439.223 37.504C446.149 37.504 451.764 43.1187 451.764 50.0448ZM433.421 50.0448C433.421 53.249 436.019 55.8465 439.223 55.8465C442.427 55.8465 445.025 53.249 445.025 50.0448C445.025 46.8406 442.427 44.2431 439.223 44.2431C436.019 44.2431 433.421 46.8406 433.421 50.0448Z" fill="#FF7A31"/>
<path d="M428.068 32.7925C428.068 30.8792 429.619 29.3282 431.532 29.3282H446.775C448.688 29.3282 450.239 30.8792 450.239 32.7925C450.239 34.7058 448.688 36.2568 446.775 36.2568H431.532C429.619 36.2568 428.068 34.7058 428.068 32.7925Z" fill="#FF7A31"/>
<path d="M439.322 20.5404L431.903 27.9597C430.55 29.3126 428.357 29.3126 427.004 27.9597C425.651 26.6068 425.651 24.4133 427.004 23.0604L436.764 13.2998C436.918 13.1461 437.083 13.0098 437.256 12.891C438.613 11.8661 440.553 11.9721 441.79 13.2091L451.55 22.9696C452.903 24.3225 452.903 26.516 451.55 27.8689C450.197 29.2218 448.004 29.2218 446.651 27.8689L439.322 20.5404Z" fill="#FF7A31"/>
<path fill-rule="evenodd" clip-rule="evenodd" d="M422.621 48.0678C425.678 45.739 427.652 42.0598 427.652 37.9197C427.652 30.8788 421.944 25.171 414.903 25.171C407.862 25.171 402.155 30.8788 402.155 37.9197C402.155 44.9606 407.862 50.6684 414.903 50.6684C414.95 50.6684 414.996 50.6682 415.042 50.6677V55.5184L422.621 48.0678ZM414.903 43.8176C411.646 43.8176 409.005 41.177 409.005 37.9197C409.005 34.6624 411.646 32.0218 414.903 32.0218C418.161 32.0218 420.801 34.6624 420.801 37.9197C420.801 41.177 418.161 43.8176 414.903 43.8176Z" fill="#FF7A31"/>
<path d="M1213.6 38.1881C1213.6 58.8516 1196.85 75.6027 1176.19 75.6027C1155.52 75.6027 1138.77 58.8516 1138.77 38.1881C1138.77 17.5246 1155.52 0.773453 1176.19 0.773453C1196.85 0.773453 1213.6 17.5246 1213.6 38.1881ZM1145.15 38.1881C1145.15 55.3297 1159.04 69.2257 1176.19 69.2257C1193.33 69.2257 1207.22 55.3297 1207.22 38.1881C1207.22 21.0465 1193.33 7.15051 1176.19 7.15051C1159.04 7.15051 1145.15 21.0465 1145.15 38.1881Z" fill="#FF7A31"/>
<path d="M1198.91 50.8183C1198.91 57.7444 1193.3 63.3591 1186.37 63.3591C1179.45 63.3591 1173.83 57.7444 1173.83 50.8183C1173.83 43.8922 1179.45 38.2774 1186.37 38.2774C1193.3 38.2774 1198.91 43.8922 1198.91 50.8183ZM1180.57 50.8183C1180.57 54.0225 1183.17 56.62 1186.37 56.62C1189.58 56.62 1192.17 54.0225 1192.17 50.8183C1192.17 47.6141 1189.58 45.0166 1186.37 45.0166C1183.17 45.0166 1180.57 47.6141 1180.57 50.8183Z" fill="#FF7A31"/>
<path d="M1175.22 33.566C1175.22 31.6527 1176.77 30.1016 1178.68 30.1016H1193.92C1195.84 30.1016 1197.39 31.6527 1197.39 33.566C1197.39 35.4793 1195.84 37.0303 1193.92 37.0303H1178.68C1176.77 37.0303 1175.22 35.4793 1175.22 33.566Z" fill="#FF7A31"/>
<path d="M1186.47 21.3138L1179.05 28.7331C1177.7 30.086 1175.51 30.086 1174.15 28.7331C1172.8 27.3802 1172.8 25.1867 1174.15 23.8338L1183.91 14.0733C1184.07 13.9195 1184.23 13.7833 1184.4 13.6645C1185.76 12.6396 1187.7 12.7456 1188.94 13.9825L1198.7 23.7431C1200.05 25.096 1200.05 27.2895 1198.7 28.6424C1197.35 29.9953 1195.15 29.9953 1193.8 28.6424L1186.47 21.3138Z" fill="#FF7A31"/>
<path fill-rule="evenodd" clip-rule="evenodd" d="M1169.77 48.8413C1172.83 46.5124 1174.8 42.8333 1174.8 38.6932C1174.8 31.6523 1169.09 25.9445 1162.05 25.9445C1155.01 25.9445 1149.3 31.6523 1149.3 38.6932C1149.3 45.7341 1155.01 51.4418 1162.05 51.4418C1162.1 51.4418 1162.14 51.4416 1162.19 51.4411V56.2919L1169.77 48.8413ZM1162.05 44.591C1158.79 44.591 1156.15 41.9505 1156.15 38.6932C1156.15 35.4358 1158.79 32.7953 1162.05 32.7953C1165.31 32.7953 1167.95 35.4358 1167.95 38.6932C1167.95 41.9505 1165.31 44.591 1162.05 44.591Z" fill="#FF7A31"/>
</g>
</svg>
