<svg width="24" height="24" viewBox="0 0 24 24" fill="none" xmlns="http://www.w3.org/2000/svg">
<path d="M23.6035 11.8061C23.6035 17.7687 19.185 22.6981 13.445 23.498C12.9083 23.5724 12.3592 23.6113 11.8018 23.6113C11.1584 23.6113 10.5266 23.56 9.9113 23.4608C4.292 22.5558 0 17.6818 0 11.8061C0 5.28593 5.28437 0 11.8026 0C18.3208 0 23.6052 5.28593 23.6052 11.8061H23.6035Z" fill="white"/>
<path d="M13.4455 9.47984V12.0517H16.626L16.1224 15.5161H13.4455V23.4979C12.9088 23.5723 12.3596 23.6112 11.8023 23.6112C11.1589 23.6112 10.5271 23.5599 9.9118 23.4607V15.5161H6.97852V12.0517H9.9118V8.90492C9.9118 6.95269 11.4938 5.36938 13.4463 5.36938V5.37104C13.4521 5.37104 13.457 5.36938 13.4628 5.36938H16.6268V8.36558H14.5594C13.945 8.36558 13.4463 8.86439 13.4463 9.47901L13.4455 9.47984Z" fill="#D91517"/>
</svg>
