<svg width="23" height="23" viewBox="0 0 23 23" fill="none" xmlns="http://www.w3.org/2000/svg">
<path d="M18.9279 20.1487C21.6237 17.6326 22.8218 13.4392 22.103 9.42547H11.3797V13.8586H17.4901C17.2506 15.2963 16.4118 16.4944 15.2137 17.2732L18.9279 20.1487Z" fill="#4285F4"/>
<path d="M1.19584 16.6141C1.294 16.8073 1.3975 16.9977 1.50634 17.1851C1.61525 17.3726 1.72934 17.5568 1.84859 17.7378C1.96792 17.9187 2.09217 18.0962 2.2215 18.2701C2.35084 18.4441 2.48492 18.6142 2.62392 18.7806C2.76284 18.9469 2.90634 19.1093 3.0545 19.2675C3.20259 19.4258 3.35509 19.5797 3.51192 19.7293C3.66875 19.8789 3.82967 20.024 3.99467 20.1646C4.15967 20.3051 4.3285 20.4408 4.50125 20.5718C4.67392 20.7028 4.85017 20.8288 5.03 20.9498C5.20984 21.0708 5.39292 21.1867 5.57934 21.2973C5.76567 21.408 5.955 21.5133 6.14734 21.6133C6.33967 21.7133 6.53467 21.8078 6.73234 21.8967C6.93 21.9856 7.13 22.0689 7.33242 22.1465C7.53475 22.2242 7.73917 22.296 7.94559 22.3621C8.152 22.4282 8.36017 22.4884 8.57 22.5427C8.77984 22.597 8.991 22.6453 9.20359 22.6878C9.41617 22.7301 9.62975 22.7664 9.84442 22.7968C10.059 22.827 10.2743 22.8513 10.4903 22.8693C10.7063 22.8874 10.9227 22.8995 11.1393 22.9053C11.356 22.9113 11.5727 22.911 11.7893 22.9047C12.006 22.8983 12.2223 22.8858 12.4383 22.8673C12.6542 22.8487 12.8694 22.824 13.084 22.7933C13.2986 22.7625 13.5121 22.7257 13.7246 22.6828C13.9371 22.64 14.1482 22.5913 14.3578 22.5365C14.5676 22.4818 14.7756 22.4211 14.9819 22.3546C15.1882 22.2881 15.3924 22.2158 15.5947 22.1377C15.7968 22.0596 15.9967 21.9759 16.1942 21.8865C16.3917 21.7972 16.5864 21.7023 16.7785 21.6019C16.9707 21.5016 17.1598 21.3958 17.3459 21.2848C17.532 21.1737 17.7148 21.0574 17.8944 20.9361C18.074 20.8147 18.25 20.6883 18.4224 20.5569C18.5948 20.4256 18.7632 20.2896 18.9279 20.1487L15.2137 17.2732C12.0387 19.3699 6.76717 18.591 4.96992 13.6787L1.19584 16.6141Z" fill="#34A853"/>
<path d="M4.96992 13.6787C4.49067 12.181 4.49053 10.8033 4.96978 9.3056L1.1957 6.37019C-0.182138 9.12594 -0.601331 13.0197 1.19584 16.6141L4.96992 13.6787Z" fill="#FBBC02"/>
<path d="M4.96978 9.3056C6.28778 5.1721 11.9191 2.77587 15.6932 6.31029L18.988 3.07537C14.3153 -1.41755 5.20945 -1.2379 1.1957 6.37019L4.96978 9.3056Z" fill="#EA4335"/>
</svg>
