<svg width="24" height="24" viewBox="0 0 24 24" fill="none" xmlns="http://www.w3.org/2000/svg">
<path d="M12.038 0H11.9843C5.48097 0 0.208984 5.27354 0.208984 11.7788V11.8325C0.208984 18.3378 5.48097 23.6113 11.9843 23.6113H12.038C18.5414 23.6113 23.8134 18.3378 23.8134 11.8325V11.7788C23.8134 5.27354 18.5414 0 12.038 0Z" fill="white"/>
<path d="M15.6624 4.80371H8.35859C6.34077 4.80371 4.69922 6.44574 4.69922 8.46416V15.1481C4.69922 17.1665 6.34077 18.8085 8.35859 18.8085H15.6624C17.6803 18.8085 19.3218 17.1665 19.3218 15.1481V8.46416C19.3218 6.44574 17.6803 4.80371 15.6624 4.80371ZM5.99013 8.46416C5.99013 7.15798 7.05279 6.095 8.35859 6.095H15.6624C16.9682 6.095 18.0309 7.15798 18.0309 8.46416V15.1481C18.0309 16.4543 16.9682 17.5172 15.6624 17.5172H8.35859C7.05279 17.5172 5.99013 16.4543 5.99013 15.1481V8.46416Z" fill="#D91517"/>
<path d="M12.0103 15.2101C13.8867 15.2101 15.4141 13.683 15.4141 11.8052C15.4141 9.92743 13.8875 8.40039 12.0103 8.40039C10.133 8.40039 8.60645 9.92743 8.60645 11.8052C8.60645 13.683 10.133 15.2101 12.0103 15.2101ZM12.0103 9.69251C13.1755 9.69251 14.1232 10.6405 14.1232 11.8061C14.1232 12.9716 13.1755 13.9196 12.0103 13.9196C10.8451 13.9196 9.89736 12.9716 9.89736 11.8061C9.89736 10.6405 10.8451 9.69251 12.0103 9.69251Z" fill="#D91517"/>
<path d="M15.7296 8.9505C16.2349 8.9505 16.6467 8.53937 16.6467 8.03311C16.6467 7.52685 16.2357 7.11572 15.7296 7.11572C15.2235 7.11572 14.8125 7.52685 14.8125 8.03311C14.8125 8.53937 15.2235 8.9505 15.7296 8.9505Z" fill="#D91517"/>
</svg>
