<svg width="176" height="106" viewBox="0 0 176 106" fill="none" xmlns="http://www.w3.org/2000/svg">
<path d="M79.7986 47.4549C78.9526 47.5664 78.2874 47.4174 77.8031 47.0078C77.3188 46.5982 77.0445 46.1502 76.9804 45.6638C76.9052 45.0927 76.9538 44.6452 77.1263 44.3212C77.2988 43.9972 77.682 43.7208 78.2758 43.4919C79.0572 43.2168 79.8648 42.8952 80.6985 42.5271C81.5534 42.1563 82.3646 41.7804 83.1321 41.3996C83.9179 40.9948 84.598 40.6039 85.1724 40.227C85.744 39.8289 86.1491 39.4743 86.3878 39.1631C86.0243 39.0173 85.4557 38.8663 84.682 38.71C83.9055 38.5326 83.0388 38.3241 82.082 38.0843C81.1435 37.8207 80.2284 37.4894 79.3366 37.0905C78.4449 36.6916 77.69 36.1885 77.0721 35.5814C76.4541 34.9742 76.088 34.2371 75.9738 33.3699C75.8149 32.1643 75.9725 30.9924 76.4465 29.854C76.9205 28.7157 77.6052 27.6249 78.5006 26.5816C79.396 25.5384 80.3857 24.558 81.4698 23.6405C82.5751 22.7203 83.6795 21.8754 84.7831 21.106C85.9051 20.3126 86.9099 19.61 87.7976 18.9981C88.1293 18.7392 88.4496 18.5571 88.7585 18.4519C89.0857 18.3227 89.3868 18.24 89.6618 18.2037C90.6136 18.0783 91.2999 18.2246 91.7207 18.6425C92.1416 19.0605 92.3841 19.5127 92.4482 19.9991C92.4928 20.3375 92.3871 20.7603 92.1312 21.2674C91.8724 21.7534 91.4192 22.2327 90.7714 22.7054C90.1447 23.1753 89.2821 23.5687 88.1834 23.8856C87.9958 23.9318 87.8294 23.9753 87.6841 24.0159C86.8938 24.5504 86.0513 25.1779 85.1564 25.8983C84.2615 26.6187 83.4237 27.3639 82.6429 28.1338C81.8805 28.8798 81.2661 29.6063 80.7998 30.3132C80.3335 31.0202 80.1338 31.6275 80.2007 32.1351C80.2759 32.7062 80.5769 33.1937 81.1035 33.5977C81.6273 33.9806 82.2739 34.315 83.0432 34.6009C83.8308 34.8629 84.6488 35.1102 85.4971 35.3427C86.3666 35.5724 87.1845 35.8197 87.951 36.0845C88.7359 36.3253 89.3889 36.6266 89.9099 36.9883C90.431 37.35 90.7263 37.7952 90.796 38.324C90.8907 39.0431 90.7381 39.7626 90.338 40.4823C89.938 41.2021 89.3843 41.8991 88.6769 42.5733C87.9668 43.2263 87.1757 43.8362 86.3036 44.403C85.4315 44.9698 84.5617 45.4717 83.694 45.9088C82.8503 46.3643 82.08 46.724 81.3832 46.9879C80.6863 47.2519 80.1582 47.4076 79.7986 47.4549ZM116.901 25.0399C116.934 25.2937 116.879 25.5269 116.735 25.7395C116.591 25.9522 116.399 26.1281 116.159 26.2673C115.819 26.4627 115.22 26.7353 114.362 27.085C113.505 27.4347 112.461 27.8412 111.231 28.3046C110.022 28.7651 108.719 29.2488 107.323 29.7555C105.924 30.2412 104.523 30.7162 103.121 31.1807C102.839 33.2836 102.554 35.4513 102.267 37.6839C101.978 39.8954 101.684 42.0751 101.386 44.2231C101.272 44.9912 101.092 45.5852 100.846 46.0049C100.603 46.4458 100.122 46.7136 99.4026 46.8084C98.6201 46.9115 98.0579 46.7273 97.716 46.256C97.3981 45.8029 97.2786 45.1409 97.3575 44.2698C97.6036 41.8919 97.8283 39.6782 98.0317 37.6288C98.2562 35.5765 98.4356 33.9175 98.5701 32.6518C97.3289 33.0305 96.2408 33.346 95.3058 33.5984C94.3679 33.8295 93.6967 33.961 93.2921 33.9928C92.8423 34.009 92.4485 33.878 92.1106 33.5998C91.7727 33.3215 91.5836 32.9484 91.5435 32.4803C91.53 32.0517 91.673 31.667 91.9724 31.3264C92.269 30.9645 92.6458 30.7212 93.1027 30.5964C93.75 30.4466 94.5835 30.2399 95.6032 29.9765C96.6228 29.713 97.7454 29.4144 98.971 29.0808C99.1038 27.9659 99.2748 26.8137 99.4839 25.6242C99.6901 24.4135 99.9139 23.2544 100.155 22.1467C100.415 21.015 100.672 20.0237 100.925 19.1726C101.179 18.3215 101.43 17.6967 101.679 17.2981C101.875 16.9925 102.133 16.7433 102.452 16.5507C102.792 16.3553 103.131 16.2352 103.47 16.1907C103.914 16.1321 104.294 16.2434 104.611 16.5244C104.928 16.8054 105.114 17.1574 105.17 17.5805C105.192 17.7497 105.205 17.9308 105.209 18.124C105.21 18.296 105.19 18.4707 105.149 18.6483C104.887 19.7588 104.622 21.0955 104.354 22.6585C104.108 24.2187 103.86 25.9298 103.61 27.7917C105.166 27.35 106.69 26.9125 108.182 26.4792C109.693 26.0219 111.058 25.6053 112.278 25.2294C113.516 24.8295 114.505 24.4948 115.244 24.2253C115.648 24.0215 116.011 24.0058 116.335 24.1783C116.657 24.3297 116.845 24.6168 116.901 25.0399ZM119.845 42.0167C118.534 42.1895 117.417 41.8741 116.493 41.0705C115.567 40.2458 114.968 38.8076 114.698 36.756C114.525 35.4447 114.5 34.1139 114.624 32.7635C114.765 31.3892 115.033 30.0736 115.427 28.8168C115.839 27.5359 116.354 26.3814 116.972 25.3533C117.611 24.3223 118.35 23.4825 119.19 22.8339C120.027 22.1642 120.932 21.7652 121.905 21.637C123.554 21.4196 124.903 21.6938 125.951 22.4595C126.998 23.2252 127.613 24.2954 127.794 25.6702C127.933 26.7277 127.764 27.7291 127.286 28.6743C126.826 29.5955 126.144 30.4601 125.239 31.2679C124.334 32.0757 123.305 32.8354 122.151 33.5469C120.996 34.2585 119.803 34.9213 118.572 35.5355C118.566 36.3109 118.603 36.9947 118.681 37.5869C118.728 37.9464 118.953 38.0997 119.355 38.0468C120.306 37.9214 121.302 37.6395 122.342 37.2013C123.4 36.7391 124.457 36.1909 125.514 35.5568C126.568 34.9014 127.578 34.2411 128.545 33.5758C129.509 32.8893 130.382 32.2471 131.164 31.6492C131.964 31.0273 132.62 30.5321 133.131 30.1635C133.66 29.771 134.009 29.5636 134.178 29.5413C134.644 29.48 135 29.5729 135.248 29.82C135.496 30.0671 135.64 30.3492 135.682 30.6665C135.702 30.8145 135.459 31.18 134.955 31.7629C134.472 32.3429 133.79 33.046 132.909 33.8722C132.047 34.6744 131.061 35.5251 129.953 36.4242C128.864 37.2994 127.717 38.1499 126.513 38.9755C125.328 39.7773 124.157 40.4479 123.002 40.9875C121.87 41.5454 120.818 41.8885 119.845 42.0167ZM118.739 32.6409C119.539 32.019 120.326 31.3773 121.1 30.7159C121.892 30.0306 122.527 29.3013 123.006 28.5281C123.483 27.7338 123.658 26.8607 123.533 25.9089C123.496 25.634 123.399 25.4639 123.239 25.3989C123.078 25.3126 122.859 25.2876 122.584 25.3238C121.844 25.4214 121.21 25.8384 120.683 26.5749C120.177 27.3086 119.76 28.2243 119.431 29.322C119.121 30.3957 118.89 31.502 118.739 32.6409ZM137.083 49.0087C136.491 49.0868 135.997 48.9366 135.603 48.5581C135.233 48.1981 134.992 47.5951 134.881 46.749C134.727 45.5858 134.651 44.1865 134.65 42.5512C134.65 40.9158 134.711 39.1756 134.834 37.3304C134.957 35.4853 135.115 33.6676 135.31 31.8776C135.555 29.8225 135.814 27.9487 136.086 26.256C136.379 24.5605 136.715 23.1928 137.094 22.153C137.492 21.0893 137.955 20.5226 138.484 20.4529C138.971 20.3888 139.417 20.5128 139.824 20.825C140.25 21.1133 140.507 21.5958 140.596 22.2726C140.66 22.7591 140.625 23.4738 140.491 24.4167C140.355 25.3384 140.184 26.4906 139.978 27.8733C140.542 26.5941 141.128 25.3333 141.739 24.0908C142.371 22.8456 143.028 21.7047 143.709 20.6682C144.39 19.6316 145.075 18.7883 145.764 18.138C146.453 17.4878 147.136 17.1181 147.813 17.0289C148.617 16.923 149.356 17.0623 150.03 17.4468C150.726 17.8285 151.307 18.3975 151.772 19.1538C152.238 19.9102 152.538 20.7959 152.671 21.8112C152.919 23.6936 152.822 25.5677 152.379 27.4335C151.934 29.2782 151.2 30.9779 150.179 32.5327C149.178 34.0847 147.939 35.3776 146.461 36.4115C144.981 37.4243 143.321 38.0519 141.481 38.2943C140.952 38.364 140.459 38.3752 140 38.328C139.566 38.2992 139.161 38.245 138.785 38.1654C138.709 39.5525 138.649 40.9699 138.603 42.4177C138.581 43.8838 138.558 45.4253 138.534 47.0422C138.434 48.239 137.95 48.8945 137.083 49.0087ZM148.623 20.7307C148.158 20.792 147.608 21.1873 146.972 21.9166C146.358 22.6431 145.707 23.5789 145.018 24.7239C144.327 25.8478 143.638 27.0683 142.951 28.3854C142.282 29.6785 141.642 30.9463 141.031 32.1887C140.441 33.4284 139.938 34.5061 139.521 35.4218C141.106 35.0408 142.467 34.431 143.605 33.5926C144.739 32.733 145.675 31.749 146.411 30.6407C147.147 29.5323 147.707 28.3934 148.091 27.2239C148.493 26.0305 148.752 24.8883 148.866 23.7973C148.981 22.7063 148.986 21.7695 148.883 20.987C148.858 20.7966 148.772 20.7112 148.623 20.7307ZM161.898 37.0242C160.988 37.144 160.326 37.1021 159.912 36.8985C159.519 36.6921 159.291 36.3456 159.227 35.8592C159.171 35.4362 159.272 35.0571 159.529 34.722C159.783 34.3657 160.397 33.962 161.37 33.511C162.507 32.9954 163.574 32.4352 164.57 31.8306C165.585 31.202 166.393 30.5576 166.994 29.8973C167.617 29.2343 167.887 28.5855 167.803 27.951C167.747 27.528 167.559 27.2408 167.238 27.0895C166.938 26.9353 166.597 26.8834 166.217 26.9335C165.899 26.9753 165.441 27.0895 164.842 27.2761C164.26 27.4387 163.62 27.6415 162.921 27.8843C162.218 28.1059 161.535 28.3142 160.873 28.5092C160.228 28.6802 159.673 28.7963 159.208 28.8576C158.108 29.0025 157.262 28.8666 156.669 28.4498C156.073 28.0119 155.724 27.4016 155.621 26.6191C155.565 26.1961 155.71 25.5852 156.057 24.7864C156.404 23.9876 156.889 23.0952 157.512 22.1094C158.135 21.1235 158.843 20.1265 159.635 19.1183C160.428 18.1102 161.24 17.1746 162.073 16.3118C162.925 15.4249 163.744 14.7037 164.532 14.148C165.317 13.5713 166.005 13.2438 166.597 13.1658C167.274 13.0766 167.841 13.2171 168.299 13.5871C168.778 13.9544 169.064 14.4976 169.159 15.2167C169.204 15.5551 169.221 15.9294 169.21 16.3396C169.197 16.7287 169.084 17.0986 168.872 17.4493C168.658 17.7789 168.294 18.0419 167.782 18.2385C167.27 18.4351 166.548 18.5087 165.616 18.4593C164.967 19.0828 164.293 19.7634 163.594 20.501C162.913 21.2147 162.279 21.9546 161.691 22.7206C161.101 23.4654 160.625 24.1844 160.265 24.8774C161.014 24.5205 161.876 24.2025 162.85 23.9235C163.822 23.6233 164.816 23.4063 165.831 23.2725C167.058 23.1109 168.081 23.202 168.901 23.5458C169.739 23.8657 170.386 24.3615 170.84 25.0332C171.315 25.7022 171.61 26.4703 171.725 27.3374C171.853 28.3104 171.664 29.3251 171.157 30.3816C170.651 31.4381 169.922 32.4379 168.97 33.381C168.019 34.3241 166.93 35.1238 165.704 35.7803C164.478 36.4368 163.209 36.8514 161.898 37.0242Z" fill="#D91517"/>
<path d="M43.2384 83.8212C42.5604 84.079 41.9044 84.2144 41.2702 84.2274C40.6911 84.265 40.1235 84.0929 39.5674 83.711C38.0385 84.612 36.5068 85.4457 34.9723 86.2119C33.4378 86.9782 31.9727 87.6267 30.5769 88.1576C29.3805 88.6126 28.3296 88.67 27.4241 88.3296C26.5338 88.0292 25.8915 87.3605 25.4971 86.3237C25.2696 85.7255 25.3507 84.9186 25.7404 83.903C26.1302 82.8874 27.1134 81.6918 28.69 80.3161C30.2514 78.9006 32.711 77.326 36.0687 75.5924C35.635 73.6119 35.2119 71.2394 34.7995 68.4747C34.3719 65.6702 34.0032 62.6606 33.6935 59.4461C33.3687 56.1916 33.1986 52.924 33.1833 49.6431C32.2993 51.7596 31.2445 53.6672 30.019 55.3658C28.8333 57.0493 27.6089 58.4508 26.3457 59.5703C25.1224 60.6747 23.9923 61.4241 22.9555 61.8184C22.118 62.137 21.367 62.2628 20.7025 62.196C20.0779 62.114 19.6215 61.6942 19.3333 60.9365C18.9693 59.9794 19.0942 58.9276 19.7081 57.7811C20.3068 56.5948 20.9928 55.3981 21.7662 54.191C22.9311 52.3328 24.1246 50.1899 25.3467 47.7622C26.6087 45.3193 27.6856 42.8098 28.5774 40.2339C29.5091 37.6427 30.0771 35.2355 30.2815 33.0123C30.4016 32.008 30.6299 31.168 30.9663 30.4922C31.2876 29.7766 32.0265 29.1989 33.183 28.759C34.3395 28.3191 35.3741 28.519 36.2869 29.3587C37.1846 30.1585 37.8988 31.2563 38.4297 32.6521C38.642 33.2104 38.9224 34.4276 39.2707 36.3036C39.6039 38.1398 39.9692 40.4203 40.3664 43.145C40.7485 45.8299 41.1694 48.7968 41.6291 52.0456C42.0735 55.2545 42.5284 58.5508 42.9937 61.9344C43.4589 65.3181 43.9262 68.5868 44.3954 71.7407C45.6962 71.2003 47.0445 70.6646 48.4403 70.1338C50.1153 69.4967 51.624 69.0827 52.9664 68.8916C54.3088 68.7006 55.1545 69.0637 55.5034 69.9809C55.8674 70.938 55.7217 71.8151 55.0662 72.6122C54.4355 73.3542 53.6101 74.1246 52.5901 74.9234C51.6347 75.652 50.5473 76.4536 49.3279 77.3282C48.1237 78.2427 46.8245 79.1477 45.4305 80.0431C45.3805 81.112 45.1522 81.952 44.7456 82.5632C44.339 83.1743 43.8366 83.5936 43.2384 83.8212Z" fill="#D91517"/>
</svg>
