<svg width="52" height="15" viewBox="0 0 52 15" fill="none" xmlns="http://www.w3.org/2000/svg">
<path d="M7.23409 14.2275C3.17617 14.2275 0.711084 11.5728 0.711084 7.15463C0.711084 2.74592 3.22358 0.0817228 7.15824 0.0817228C9.71814 0.0817228 11.6997 1.21946 12.6383 3.19153C12.8279 3.55181 12.9228 3.92157 12.9228 4.26289C12.9228 5.0119 12.4203 5.49544 11.6618 5.49544C11.0171 5.49544 10.6094 5.21101 10.2965 4.54733C9.67074 3.1536 8.55197 2.452 7.18669 2.452C5.02499 2.452 3.63127 4.26289 3.63127 7.14515C3.63127 10.0653 5.00603 11.8667 7.19617 11.8667C8.6373 11.8667 9.71814 11.2126 10.3344 9.83779C10.6283 9.19307 10.9886 8.93708 11.5954 8.93708C12.4013 8.93708 12.9322 9.44906 12.9322 10.2076C12.9322 10.5299 12.8564 10.8333 12.7142 11.1651C11.8609 13.0614 9.82244 14.2275 7.23409 14.2275ZM15.4163 14.1801C14.5251 14.1801 13.9657 13.6587 13.9657 12.8338C13.9657 12.5968 14.0321 12.2744 14.1553 11.9236L17.8909 1.7504C18.2891 0.641109 18.9622 0.129128 20.0431 0.129128C21.1618 0.129128 21.8255 0.622146 22.2332 1.74092L25.9877 11.9236C26.1205 12.2934 26.1679 12.5494 26.1679 12.8338C26.1679 13.6208 25.5706 14.1801 24.7362 14.1801C23.9303 14.1801 23.5037 13.8104 23.2477 12.9192L22.5271 10.7575H17.5875L16.8669 12.8907C16.6014 13.8009 16.1748 14.1801 15.4163 14.1801ZM18.2132 8.53888H21.8635L20.0526 2.93554H19.9862L18.2132 8.53888ZM32.634 14.2275C29.8086 14.2275 27.9977 13.0993 27.4478 11.6013C27.353 11.3548 27.2961 11.0893 27.2961 10.8333C27.2961 10.0748 27.8176 9.57232 28.5571 9.57232C29.1449 9.57232 29.5337 9.79987 29.875 10.4067C30.3206 11.4496 31.392 11.9236 32.7004 11.9236C34.2363 11.9236 35.2792 11.1841 35.2792 10.1791C35.2792 9.2784 34.6345 8.76642 32.9184 8.41562L31.4678 8.13119C28.7373 7.59077 27.4004 6.28237 27.4004 4.24393C27.4004 1.74092 29.5811 0.0817228 32.6245 0.0817228C35.1275 0.0817228 37.0143 1.13413 37.6211 2.91658C37.6874 3.1062 37.7254 3.3053 37.7254 3.55181C37.7254 4.23445 37.2323 4.69903 36.5023 4.69903C35.8576 4.69903 35.4594 4.44304 35.137 3.85521C34.6819 2.82177 33.8002 2.39511 32.6245 2.39511C31.2118 2.39511 30.2732 3.05879 30.2732 4.06379C30.2732 4.90761 30.9274 5.42907 32.5487 5.75143L33.9898 6.04534C36.891 6.62369 38.1425 7.78987 38.1425 9.86623C38.1425 12.5399 36.0472 14.2275 32.634 14.2275ZM41.3282 14.1801C40.4275 14.1801 39.8965 13.6302 39.8965 12.6916V1.62714C39.8965 0.679033 40.4275 0.129128 41.3282 0.129128C42.2289 0.129128 42.7598 0.679033 42.7598 1.62714V5.87468H48.9226V1.62714C48.9226 0.679033 49.4535 0.129128 50.3542 0.129128C51.2549 0.129128 51.7859 0.679033 51.7859 1.62714V12.6916C51.7859 13.6302 51.2549 14.1801 50.3542 14.1801C49.4535 14.1801 48.9226 13.6302 48.9226 12.6916V8.23548H42.7598V12.6916C42.7598 13.6302 42.2289 14.1801 41.3282 14.1801Z" fill="#FBBC02"/>
</svg>
